Atma-SemiBold.ufo
<glyph name="exclam" format="1">
  <advance width="280"/>
  <unicode hex="0021"/>
  <outline>
    <contour>
      <point x="63" y="695"/>
      <point x="63" y="673"/>
      <point x="63" y="655" type="curve" smooth="yes"/>
      <point x="63" y="526"/>
      <point x="66" y="401"/>
      <point x="82" y="233" type="curve"/>
      <point x="104" y="228"/>
      <point x="129" y="225"/>
      <point x="154" y="225" type="curve" smooth="yes"/>
      <point x="172" y="225"/>
      <point x="186" y="226"/>
      <point x="196" y="229" type="curve"/>
      <point x="192" y="376"/>
      <point x="203" y="580"/>
      <point x="228" y="727" type="curve"/>
      <point x="209" y="733"/>
      <point x="189" y="737"/>
      <point x="164" y="737" type="curve" smooth="yes"/>
      <point x="126" y="737"/>
      <point x="95" y="728"/>
      <point x="64" y="713" type="curve"/>
    </contour>
    <contour>
      <point x="75" y="82"/>
      <point x="74" y="41"/>
      <point x="77" y="-6" type="curve"/>
      <point x="95" y="-13"/>
      <point x="122" y="-19"/>
      <point x="152" y="-19" type="curve" smooth="yes"/>
      <point x="176" y="-19"/>
      <point x="195" y="-18"/>
      <point x="221" y="-12" type="curve"/>
      <point x="217" y="33"/>
      <point x="215" y="69"/>
      <point x="212" y="117" type="curve"/>
      <point x="165" y="119"/>
      <point x="131" y="121"/>
      <point x="77" y="121" type="curve"/>
    </contour>
  </outline>
</glyph>
<glyph name="numbersign" format="1">
  <advance width="615"/>
  <unicode hex="0023"/>
  <outline>
    <contour>
      <point x="120" y="-35" type="curve"/>
      <point x="221" y="185"/>
      <point x="272" y="367"/>
      <point x="305" y="589" type="curve"/>
      <point x="278" y="612"/>
      <point x="236" y="622"/>
      <point x="210" y="624" type="curve"/>
      <point x="194" y="435"/>
      <point x="122" y="177"/>
      <point x="40" y="-5" type="curve"/>
      <point x="66" y="-22"/>
      <point x="89" y="-31"/>
    </contour>
    <contour>
      <point x="11" y="187" type="curve"/>
      <point x="199" y="150"/>
      <point x="388" y="138"/>
      <point x="588" y="149" type="curve"/>
      <point x="603" y="181"/>
      <point x="602" y="223"/>
      <point x="596" y="249" type="curve"/>
      <point x="430" y="231"/>
      <point x="169" y="242"/>
      <point x="20" y="270" type="curve"/>
      <point x="11" y="241"/>
      <point x="7" y="217"/>
    </contour>
    <contour>
      <point x="25" y="392" type="curve"/>
      <point x="213" y="356"/>
      <point x="402" y="344"/>
      <point x="602" y="354" type="curve"/>
      <point x="617" y="387"/>
      <point x="616" y="429"/>
      <point x="610" y="454" type="curve"/>
      <point x="444" y="436"/>
      <point x="183" y="447"/>
      <point x="34" y="475" type="curve"/>
      <point x="24" y="446"/>
      <point x="21" y="422"/>
    </contour>
    <contour>
      <point x="347" y="-40" type="curve"/>
      <point x="447" y="180"/>
      <point x="497" y="362"/>
      <point x="530" y="584" type="curve"/>
      <point x="503" y="608"/>
      <point x="462" y="617"/>
      <point x="435" y="619" type="curve"/>
      <point x="419" y="430"/>
      <point x="349" y="172"/>
      <point x="266" y="-10" type="curve"/>
      <point x="293" y="-27"/>
      <point x="315" y="-36"/>
    </contour>
  </outline>
</glyph>
<glyph name="percent" format="1">
  <advance width="910"/>
  <unicode hex="0025"/>
  <outline>
    <contour>
      <point x="239" y="772" type="curve"/>
      <point x="110" y="772"/>
      <point x="27" y="672"/>
      <point x="27" y="535" type="curve"/>
      <point x="27" y="433"/>
      <point x="71" y="337"/>
      <point x="184" y="337" type="curve" smooth="yes"/>
      <point x="344" y="337"/>
      <point x="395" y="497"/>
      <point x="395" y="601" type="curve"/>
      <point x="395" y="711"/>
      <point x="337" y="772"/>
    </contour>
    <contour>
      <point x="217" y="696" type="curve" smooth="yes"/>
      <point x="250" y="696"/>
      <point x="269" y="659"/>
      <point x="269" y="567" type="curve" smooth="yes"/>
      <point x="269" y="499"/>
      <point x="254" y="413"/>
      <point x="209" y="413" type="curve" smooth="yes"/>
      <point x="168" y="413"/>
      <point x="150" y="487"/>
      <point x="150" y="551" type="curve" smooth="yes"/>
      <point x="150" y="639"/>
      <point x="177" y="696"/>
    </contour>
    <contour>
      <point x="726" y="417" type="curve"/>
      <point x="598" y="417"/>
      <point x="514" y="318"/>
      <point x="514" y="180" type="curve"/>
      <point x="514" y="79"/>
      <point x="558" y="-17"/>
      <point x="671" y="-17" type="curve" smooth="yes"/>
      <point x="832" y="-17"/>
      <point x="883" y="143"/>
      <point x="883" y="247" type="curve"/>
      <point x="883" y="356"/>
      <point x="824" y="417"/>
    </contour>
    <contour>
      <point x="704" y="341" type="curve" smooth="yes"/>
      <point x="737" y="341"/>
      <point x="756" y="305"/>
      <point x="756" y="212" type="curve" smooth="yes"/>
      <point x="756" y="144"/>
      <point x="742" y="58"/>
      <point x="697" y="58" type="curve" smooth="yes"/>
      <point x="656" y="58"/>
      <point x="638" y="133"/>
      <point x="638" y="196" type="curve" smooth="yes"/>
      <point x="638" y="284"/>
      <point x="665" y="341"/>
    </contour>
    <component base="fraction" xOffset="253" yOffset="-3"/>
  </outline>
</glyph>
<glyph name="ampersand" format="1">
  <advance width="809"/>
  <unicode hex="0026"/>
  <outline>
    <contour>
      <point x="790" y="39" type="curve"/>
      <point x="507" y="147"/>
      <point x="356" y="305"/>
      <point x="356" y="528" type="curve" smooth="yes"/>
      <point x="356" y="603"/>
      <point x="377" y="644"/>
      <point x="411" y="644" type="curve" smooth="yes"/>
      <point x="441" y="644"/>
      <point x="456" y="617"/>
      <point x="456" y="575" type="curve" smooth="yes"/>
      <point x="456" y="517"/>
      <point x="424" y="465"/>
      <point x="347" y="443" type="curve"/>
      <point x="355" y="390" type="line"/>
      <point x="492" y="411"/>
      <point x="589" y="475"/>
      <point x="589" y="586" type="curve" smooth="yes"/>
      <point x="589" y="664"/>
      <point x="528" y="722"/>
      <point x="430" y="722" type="curve" smooth="yes"/>
      <point x="289" y="722"/>
      <point x="221" y="622"/>
      <point x="221" y="496" type="curve" smooth="yes"/>
      <point x="221" y="221"/>
      <point x="434" y="33"/>
      <point x="706" y="-69" type="curve"/>
      <point x="746" y="-42"/>
      <point x="774" y="-5"/>
    </contour>
    <contour>
      <point x="676" y="394"/>
      <point x="622" y="395"/>
      <point x="578" y="383" type="curve"/>
      <point x="586" y="348"/>
      <point x="591" y="318"/>
      <point x="591" y="279" type="curve" smooth="yes"/>
      <point x="591" y="144"/>
      <point x="499" y="36"/>
      <point x="381" y="36" type="curve" smooth="yes"/>
      <point x="267" y="36"/>
      <point x="188" y="110"/>
      <point x="188" y="220" type="curve" smooth="yes"/>
      <point x="188" y="299"/>
      <point x="234" y="345"/>
      <point x="298" y="365" type="curve"/>
      <point x="295" y="416" type="line"/>
      <point x="133" y="400"/>
      <point x="40" y="304"/>
      <point x="40" y="183" type="curve" smooth="yes"/>
      <point x="40" y="38"/>
      <point x="160" y="-67"/>
      <point x="349" y="-67" type="curve" smooth="yes"/>
      <point x="560" y="-67"/>
      <point x="695" y="56"/>
      <point x="720" y="267" type="curve" smooth="yes"/>
      <point x="724" y="300"/>
      <point x="726" y="333"/>
      <point x="725" y="370" type="curve"/>
    </contour>
  </outline>
</glyph>
<glyph name="quotesingle" format="1">
  <advance width="203"/>
  <unicode hex="0027"/>
  <outline>
    <contour>
      <point x="160" y="736" type="curve"/>
      <point x="137" y="743"/>
      <point x="113" y="746"/>
      <point x="95" y="746" type="curve" smooth="yes"/>
      <point x="73" y="746"/>
      <point x="50" y="742"/>
      <point x="38" y="736" type="curve"/>
      <point x="42" y="655"/>
      <point x="44" y="586"/>
      <point x="47" y="491" type="curve"/>
      <point x="74" y="490"/>
      <point x="110" y="491"/>
      <point x="127" y="497" type="curve"/>
      <point x="145" y="597"/>
      <point x="154" y="671"/>
    </contour>
  </outline>
</glyph>
<glyph name="parenleft" format="1">
  <advance width="362"/>
  <unicode hex="0028"/>
  <outline>
    <contour>
      <point x="137" y="307" type="curve" smooth="yes"/>
      <point x="137" y="468"/>
      <point x="209" y="627"/>
      <point x="374" y="741" type="curve"/>
      <point x="344" y="777"/>
      <point x="315" y="798"/>
      <point x="285" y="810" type="curve"/>
      <point x="116" y="678"/>
      <point x="22" y="509"/>
      <point x="22" y="301" type="curve" smooth="yes"/>
      <point x="22" y="116"/>
      <point x="117" y="-50"/>
      <point x="271" y="-174" type="curve"/>
      <point x="323" y="-150"/>
      <point x="342" y="-132"/>
      <point x="360" y="-109" type="curve"/>
      <point x="207" y="19"/>
      <point x="137" y="144"/>
    </contour>
  </outline>
</glyph>
<glyph name="parenright" format="1">
  <advance width="406"/>
  <unicode hex="0029"/>
  <outline>
    <contour>
      <point x="213" y="327" type="curve" smooth="yes"/>
      <point x="213" y="169"/>
      <point x="139" y="8"/>
      <point x="-25" y="-106" type="curve"/>
      <point x="3" y="-141"/>
      <point x="32" y="-163"/>
      <point x="63" y="-174" type="curve"/>
      <point x="233" y="-42"/>
      <point x="327" y="128"/>
      <point x="327" y="333" type="curve" smooth="yes"/>
      <point x="327" y="515"/>
      <point x="235" y="687"/>
      <point x="83" y="810" type="curve"/>
      <point x="32" y="786"/>
      <point x="13" y="768"/>
      <point x="-5" y="744" type="curve"/>
      <point x="145" y="616"/>
      <point x="213" y="487"/>
    </contour>
  </outline>
</glyph>
<glyph name="asterisk" format="1">
  <advance width="483"/>
  <unicode hex="002A"/>
  <outline>
    <contour>
      <point x="425" y="399" type="curve" smooth="yes"/>
      <point x="436" y="418"/>
      <point x="441" y="440"/>
      <point x="442" y="454" type="curve"/>
      <point x="378" y="482"/>
      <point x="323" y="506"/>
      <point x="251" y="539" type="curve"/>
      <point x="240" y="522"/>
      <point x="230" y="497"/>
      <point x="226" y="485" type="curve"/>
      <point x="299" y="431"/>
      <point x="352" y="395"/>
      <point x="400" y="366" type="curve"/>
      <point x="410" y="377"/>
      <point x="417" y="386"/>
    </contour>
    <contour>
      <point x="429" y="613" type="curve" smooth="yes"/>
      <point x="419" y="632"/>
      <point x="402" y="649"/>
      <point x="391" y="656" type="curve"/>
      <point x="338" y="609"/>
      <point x="295" y="577"/>
      <point x="221" y="532" type="curve"/>
      <point x="230" y="515"/>
      <point x="246" y="494"/>
      <point x="256" y="485" type="curve"/>
      <point x="334" y="518"/>
      <point x="401" y="548"/>
      <point x="445" y="575" type="curve"/>
      <point x="441" y="589"/>
      <point x="437" y="600"/>
    </contour>
    <contour>
      <point x="286" y="720" type="curve"/>
      <point x="272" y="723"/>
      <point x="261" y="725"/>
      <point x="246" y="725" type="curve" smooth="yes"/>
      <point x="224" y="725"/>
      <point x="202" y="719"/>
      <point x="189" y="712" type="curve"/>
      <point x="197" y="642"/>
      <point x="204" y="582"/>
      <point x="212" y="501" type="curve"/>
      <point x="232" y="501"/>
      <point x="258" y="505"/>
      <point x="270" y="508" type="curve"/>
      <point x="281" y="599"/>
      <point x="286" y="663"/>
    </contour>
    <contour>
      <point x="293" y="308" type="curve"/>
      <point x="280" y="377"/>
      <point x="272" y="430"/>
      <point x="271" y="517" type="curve"/>
      <point x="252" y="518"/>
      <point x="224" y="514"/>
      <point x="212" y="510" type="curve"/>
      <point x="202" y="426"/>
      <point x="194" y="353"/>
      <point x="196" y="301" type="curve"/>
      <point x="211" y="297"/>
      <point x="222" y="295"/>
      <point x="237" y="295" type="curve" smooth="yes"/>
      <point x="259" y="295"/>
      <point x="281" y="302"/>
    </contour>
    <contour>
      <point x="82" y="654" type="curve"/>
      <point x="72" y="643"/>
      <point x="65" y="634"/>
      <point x="58" y="621" type="curve" smooth="yes"/>
      <point x="47" y="602"/>
      <point x="41" y="580"/>
      <point x="41" y="566" type="curve"/>
      <point x="108" y="543"/>
      <point x="157" y="523"/>
      <point x="234" y="480" type="curve"/>
      <point x="244" y="496"/>
      <point x="255" y="522"/>
      <point x="258" y="534" type="curve"/>
      <point x="189" y="586"/>
      <point x="130" y="629"/>
    </contour>
    <contour>
      <point x="37" y="445" type="curve"/>
      <point x="42" y="431"/>
      <point x="46" y="420"/>
      <point x="53" y="407" type="curve" smooth="yes"/>
      <point x="64" y="388"/>
      <point x="81" y="372"/>
      <point x="92" y="364" type="curve"/>
      <point x="150" y="405"/>
      <point x="198" y="442"/>
      <point x="264" y="489" type="curve"/>
      <point x="254" y="507"/>
      <point x="239" y="528"/>
      <point x="228" y="536" type="curve"/>
      <point x="144" y="500"/>
      <point x="87" y="473"/>
    </contour>
  </outline>
</glyph>
<glyph name="period" format="1">
  <advance width="228"/>
  <unicode hex="002E"/>
  <outline>
    <contour>
      <point x="195" y="30"/>
      <point x="198" y="70"/>
      <point x="199" y="116" type="curve"/>
      <point x="136" y="126"/>
      <point x="84" y="119"/>
      <point x="48" y="110" type="curve"/>
      <point x="48" y="64"/>
      <point x="50" y="35"/>
      <point x="53" y="-14" type="curve"/>
      <point x="96" y="-20"/>
      <point x="135" y="-20"/>
      <point x="187" y="-15" type="curve"/>
    </contour>
  </outline>
</glyph>
<glyph name="slash" format="1">
  <advance width="464"/>
  <unicode hex="002F"/>
  <outline>
    <contour>
      <point x="191" y="54"/>
      <point x="370" y="417"/>
      <point x="488" y="695" type="curve"/>
      <point x="456" y="728"/>
      <point x="411" y="750"/>
      <point x="381" y="754" type="curve"/>
      <point x="286" y="511"/>
      <point x="70" y="46"/>
      <point x="-44" y="-161" type="curve"/>
      <point x="-22" y="-178"/>
      <point x="17" y="-197"/>
      <point x="46" y="-206" type="curve"/>
    </contour>
  </outline>
</glyph>
<glyph name="three" format="1">
  <advance width="505"/>
  <unicode hex="0033"/>
  <outline>
    <contour>
      <point x="470" y="530" type="curve"/>
      <point x="471" y="575"/>
      <point x="464" y="618"/>
      <point x="451" y="653" type="curve"/>
      <point x="322" y="652"/>
      <point x="149" y="632"/>
      <point x="24" y="598" type="curve"/>
      <point x="23" y="562"/>
      <point x="27" y="516"/>
      <point x="38" y="482" type="curve"/>
      <point x="201" y="520"/>
      <point x="345" y="527"/>
    </contour>
    <contour>
      <point x="250" y="-57" type="curve" smooth="yes"/>
      <point x="377" y="-57"/>
      <point x="482" y="42"/>
      <point x="482" y="169" type="curve" smooth="yes"/>
      <point x="482" y="273"/>
      <point x="416" y="339"/>
      <point x="275" y="368" type="curve"/>
      <point x="270" y="340" type="line"/>
      <point x="373" y="413"/>
      <point x="419" y="461"/>
      <point x="470" y="530" type="curve"/>
      <point x="361" y="598" type="line"/>
      <point x="308" y="511"/>
      <point x="237" y="445"/>
      <point x="143" y="386" type="curve"/>
      <point x="143" y="348"/>
      <point x="147" y="328"/>
      <point x="154" y="297" type="curve"/>
      <point x="278" y="296"/>
      <point x="329" y="224"/>
      <point x="329" y="137" type="curve" smooth="yes"/>
      <point x="329" y="61"/>
      <point x="299" y="29"/>
      <point x="257" y="29" type="curve" smooth="yes"/>
      <point x="215" y="29"/>
      <point x="168" y="76"/>
      <point x="168" y="187" type="curve"/>
      <point x="114" y="186"/>
      <point x="69" y="179"/>
      <point x="30" y="161" type="curve"/>
      <point x="38" y="7"/>
      <point x="135" y="-57"/>
    </contour>
  </outline>
</glyph>
<glyph name="six" format="1">
  <advance width="558"/>
  <unicode hex="0036"/>
  <outline>
    <contour>
      <point x="323" y="588" type="curve" smooth="yes"/>
      <point x="244" y="588"/>
      <point x="187" y="484"/>
      <point x="187" y="302" type="curve" smooth="yes"/>
      <point x="187" y="154"/>
      <point x="228" y="49"/>
      <point x="296" y="49" type="curve" smooth="yes"/>
      <point x="350" y="49"/>
      <point x="376" y="111"/>
      <point x="376" y="164" type="curve" smooth="yes"/>
      <point x="376" y="244"/>
      <point x="338" y="292"/>
      <point x="287" y="292" type="curve" smooth="yes"/>
      <point x="244" y="292"/>
      <point x="206" y="250"/>
      <point x="189" y="180" type="curve"/>
      <point x="154" y="263" type="line"/>
      <point x="192" y="340"/>
      <point x="255" y="391"/>
      <point x="342" y="391" type="curve" smooth="yes"/>
      <point x="452" y="391"/>
      <point x="531" y="316"/>
      <point x="531" y="203" type="curve" smooth="yes"/>
      <point x="531" y="98"/>
      <point x="462" y="-50"/>
      <point x="280" y="-50" type="curve" smooth="yes"/>
      <point x="105" y="-50"/>
      <point x="34" y="105"/>
      <point x="34" y="293" type="curve" smooth="yes"/>
      <point x="34" y="529"/>
      <point x="149" y="691"/>
      <point x="329" y="691" type="curve" smooth="yes"/>
      <point x="445" y="691"/>
      <point x="511" y="625"/>
      <point x="530" y="519" type="curve"/>
      <point x="492" y="495"/>
      <point x="455" y="482"/>
      <point x="400" y="478" type="curve"/>
      <point x="391" y="552"/>
      <point x="368" y="588"/>
    </contour>
  </outline>
</glyph>
<glyph name="eight" format="1">
  <advance width="563"/>
  <unicode hex="0038"/>
  <outline>
    <contour>
      <point x="520" y="230" type="curve" smooth="yes"/>
      <point x="520" y="327"/>
      <point x="436" y="387"/>
      <point x="311" y="387" type="curve" smooth="yes"/>
      <point x="144" y="387"/>
      <point x="36" y="289"/>
      <point x="36" y="170" type="curve" smooth="yes"/>
      <point x="36" y="77"/>
      <point x="102" y="-6"/>
      <point x="245" y="-6" type="curve" smooth="yes"/>
      <point x="443" y="-6"/>
      <point x="520" y="126"/>
    </contour>
    <contour>
      <point x="365" y="212" type="curve" smooth="yes"/>
      <point x="365" y="146"/>
      <point x="335" y="76"/>
      <point x="273" y="76" type="curve" smooth="yes"/>
      <point x="220" y="76"/>
      <point x="189" y="128"/>
      <point x="189" y="190" type="curve" smooth="yes"/>
      <point x="189" y="269"/>
      <point x="232" y="318"/>
      <point x="285" y="318" type="curve" smooth="yes"/>
      <point x="335" y="318"/>
      <point x="365" y="280"/>
    </contour>
    <contour>
      <point x="360" y="530" type="curve" smooth="yes"/>
      <point x="360" y="467"/>
      <point x="334" y="405"/>
      <point x="275" y="405" type="curve" smooth="yes"/>
      <point x="217" y="405"/>
      <point x="192" y="461"/>
      <point x="192" y="517" type="curve" smooth="yes"/>
      <point x="192" y="584"/>
      <point x="227" y="640"/>
      <point x="283" y="640" type="curve" smooth="yes"/>
      <point x="328" y="640"/>
      <point x="360" y="603"/>
    </contour>
    <contour>
      <point x="515" y="565" type="curve" smooth="yes"/>
      <point x="515" y="664"/>
      <point x="433" y="723"/>
      <point x="308" y="723" type="curve" smooth="yes"/>
      <point x="146" y="723"/>
      <point x="40" y="635"/>
      <point x="40" y="511" type="curve" smooth="yes"/>
      <point x="40" y="418"/>
      <point x="106" y="335"/>
      <point x="241" y="335" type="curve" smooth="yes"/>
      <point x="441" y="335"/>
      <point x="515" y="460"/>
    </contour>
  </outline>
</glyph>
<glyph name="colon" format="1">
  <advance width="235"/>
  <unicode hex="003A"/>
  <outline>
    <contour>
      <point x="206" y="38"/>
      <point x="205" y="80"/>
      <point x="205" y="130" type="curve"/>
      <point x="144" y="131"/>
      <point x="93" y="127"/>
      <point x="53" y="123" type="curve"/>
      <point x="53" y="77"/>
      <point x="53" y="49"/>
      <point x="54" y="-2" type="curve"/>
      <point x="86" y="-8"/>
      <point x="153" y="-11"/>
      <point x="204" y="-10" type="curve"/>
    </contour>
    <contour>
      <point x="199" y="438"/>
      <point x="197" y="488"/>
      <point x="195" y="536" type="curve"/>
      <point x="177" y="544"/>
      <point x="149" y="550"/>
      <point x="119" y="550" type="curve" smooth="yes"/>
      <point x="92" y="550"/>
      <point x="68" y="548"/>
      <point x="41" y="542" type="curve"/>
      <point x="45" y="496"/>
      <point x="48" y="460"/>
      <point x="50" y="411" type="curve"/>
      <point x="98" y="408"/>
      <point x="143" y="406"/>
      <point x="198" y="407" type="curve"/>
    </contour>
  </outline>
</glyph>
<glyph name="greater" format="1">
  <advance width="444"/>
  <unicode hex="003E"/>
  <outline>
    <contour>
      <point x="363" y="394" type="line"/>
      <point x="265" y="321"/>
      <point x="156" y="261"/>
      <point x="29" y="206" type="curve"/>
      <point x="36" y="173"/>
      <point x="43" y="151"/>
      <point x="57" y="121" type="curve"/>
      <point x="174" y="167"/>
      <point x="325" y="247"/>
      <point x="414" y="315" type="curve"/>
      <point x="415" y="369" type="line"/>
      <point x="329" y="437"/>
      <point x="176" y="519"/>
      <point x="59" y="563" type="curve"/>
      <point x="44" y="535"/>
      <point x="36" y="512"/>
      <point x="30" y="478" type="curve"/>
      <point x="157" y="424"/>
      <point x="270" y="363"/>
      <point x="364" y="291" type="curve"/>
    </contour>
  </outline>
</glyph>
<glyph name="question" format="1">
  <advance width="483"/>
  <unicode hex="003F"/>
  <outline>
    <contour>
      <point x="242" y="367" type="line"/>
      <point x="375" y="387"/>
      <point x="456" y="463"/>
      <point x="456" y="571" type="curve" smooth="yes"/>
      <point x="456" y="684"/>
      <point x="360" y="763"/>
      <point x="239" y="763" type="curve" smooth="yes"/>
      <point x="93" y="763"/>
      <point x="23" y="680"/>
      <point x="15" y="546" type="curve"/>
      <point x="53" y="528"/>
      <point x="98" y="521"/>
      <point x="151" y="521" type="curve"/>
      <point x="151" y="622"/>
      <point x="185" y="680"/>
      <point x="233" y="680" type="curve" smooth="yes"/>
      <point x="281" y="680"/>
      <point x="301" y="632"/>
      <point x="301" y="571" type="curve" smooth="yes"/>
      <point x="301" y="485"/>
      <point x="252" y="421"/>
      <point x="148" y="401" type="curve"/>
    </contour>
    <contour>
      <point x="148" y="401" type="line"/>
      <point x="150" y="346"/>
      <point x="159" y="281"/>
      <point x="168" y="225" type="curve"/>
      <point x="205" y="225"/>
      <point x="249" y="228"/>
      <point x="276" y="235" type="curve"/>
      <point x="277" y="304"/>
      <point x="279" y="370"/>
      <point x="281" y="421" type="curve"/>
    </contour>
    <contour>
      <point x="305" y="-7" type="curve"/>
      <point x="300" y="39"/>
      <point x="297" y="75"/>
      <point x="293" y="123" type="curve"/>
      <point x="247" y="124"/>
      <point x="214" y="125"/>
      <point x="161" y="125" type="curve"/>
      <point x="159" y="85"/>
      <point x="159" y="45"/>
      <point x="163" y="-2" type="curve"/>
      <point x="181" y="-10"/>
      <point x="206" y="-15"/>
      <point x="236" y="-15" type="curve" smooth="yes"/>
      <point x="260" y="-14"/>
      <point x="279" y="-13"/>
    </contour>
  </outline>
</glyph>
<glyph name="at" format="1">
  <advance width="901"/>
  <unicode hex="0040"/>
  <outline>
    <contour>
      <point x="514" y="446" type="curve"/>
      <point x="523" y="513" type="line"/>
      <point x="512" y="520"/>
      <point x="479" y="529"/>
      <point x="453" y="529" type="curve" smooth="yes"/>
      <point x="335" y="529"/>
      <point x="257" y="435"/>
      <point x="257" y="287" type="curve" smooth="yes"/>
      <point x="257" y="179"/>
      <point x="303" y="96"/>
      <point x="388" y="96" type="curve" smooth="yes"/>
      <point x="461" y="96"/>
      <point x="516" y="151"/>
      <point x="532" y="321" type="curve"/>
      <point x="500" y="355" type="line"/>
      <point x="492" y="222"/>
      <point x="459" y="180"/>
      <point x="427" y="180" type="curve" smooth="yes"/>
      <point x="394" y="180"/>
      <point x="373" y="222"/>
      <point x="373" y="302" type="curve" smooth="yes"/>
      <point x="373" y="405"/>
      <point x="411" y="461"/>
      <point x="461" y="461" type="curve" smooth="yes"/>
      <point x="487" y="461"/>
      <point x="501" y="453"/>
    </contour>
    <contour>
      <point x="860" y="361" type="curve" smooth="yes"/>
      <point x="860" y="547"/>
      <point x="752" y="727"/>
      <point x="487" y="727" type="curve" smooth="yes"/>
      <point x="207" y="727"/>
      <point x="32" y="543"/>
      <point x="32" y="282" type="curve" smooth="yes"/>
      <point x="32" y="47"/>
      <point x="177" y="-112"/>
      <point x="421" y="-112" type="curve" smooth="yes"/>
      <point x="516" y="-112"/>
      <point x="592" y="-90"/>
      <point x="663" y="-49" type="curve"/>
      <point x="647" y="-20"/>
      <point x="629" y="2"/>
      <point x="604" y="26" type="curve"/>
      <point x="558" y="-9"/>
      <point x="508" y="-28"/>
      <point x="429" y="-28" type="curve" smooth="yes"/>
      <point x="236" y="-28"/>
      <point x="136" y="104"/>
      <point x="136" y="305" type="curve" smooth="yes"/>
      <point x="136" y="511"/>
      <point x="265" y="646"/>
      <point x="475" y="646" type="curve" smooth="yes"/>
      <point x="667" y="646"/>
      <point x="766" y="531"/>
      <point x="766" y="363" type="curve" smooth="yes"/>
      <point x="766" y="235"/>
      <point x="714" y="152"/>
      <point x="658" y="152" type="curve" smooth="yes"/>
      <point x="616" y="152"/>
      <point x="595" y="197"/>
      <point x="595" y="307" type="curve" smooth="yes"/>
      <point x="595" y="373"/>
      <point x="597" y="437"/>
      <point x="604" y="551" type="curve"/>
      <point x="575" y="558"/>
      <point x="537" y="561"/>
      <point x="481" y="548" type="curve"/>
      <point x="486" y="425"/>
      <point x="490" y="325"/>
      <point x="494" y="248" type="curve" smooth="yes"/>
      <point x="500" y="144"/>
      <point x="552" y="85"/>
      <point x="648" y="85" type="curve" smooth="yes"/>
      <point x="753" y="85"/>
      <point x="860" y="185"/>
    </contour>
  </outline>
</glyph>
<glyph name="A" format="1">
  <advance width="649"/>
  <unicode hex="0041"/>
  <outline>
    <contour>
      <point x="640" y="-65" type="curve"/>
      <point x="594" y="229"/>
      <point x="519" y="473"/>
      <point x="393" y="692" type="curve"/>
      <point x="349" y="702"/>
      <point x="313" y="707"/>
      <point x="256" y="708" type="curve"/>
      <point x="191" y="456"/>
      <point x="129" y="269"/>
      <point x="2" y="38" type="curve"/>
      <point x="28" y="7"/>
      <point x="73" y="-18"/>
      <point x="125" y="-27" type="curve"/>
      <point x="216" y="152"/>
      <point x="285" y="374"/>
      <point x="334" y="583" type="curve"/>
      <point x="299" y="585" type="line"/>
      <point x="394" y="384"/>
      <point x="457" y="161"/>
      <point x="491" y="-112" type="curve"/>
      <point x="551" y="-104"/>
      <point x="600" y="-91"/>
    </contour>
    <contour>
      <point x="483" y="173" type="curve"/>
      <point x="474" y="279" type="line"/>
      <point x="369" y="279"/>
      <point x="266" y="270"/>
      <point x="168" y="251" type="curve"/>
      <point x="172" y="154" type="line"/>
      <point x="268" y="170"/>
      <point x="377" y="174"/>
    </contour>
    <contour>
      <point x="309" y="745" type="move" name="top"/>
    </contour>
  </outline>
</glyph>
<glyph name="B" format="1">
  <advance width="614"/>
  <unicode hex="0042"/>
  <outline>
    <contour>
      <point x="227" y="3" type="curve"/>
      <point x="222" y="78"/>
      <point x="220" y="148"/>
      <point x="220" y="236" type="curve" smooth="yes"/>
      <point x="220" y="374"/>
      <point x="222" y="526"/>
      <point x="237" y="686" type="curve"/>
      <point x="200" y="696"/>
      <point x="126" y="699"/>
      <point x="77" y="691" type="curve"/>
      <point x="76" y="635"/>
      <point x="76" y="586"/>
      <point x="76" y="538" type="curve" smooth="yes"/>
      <point x="76" y="371"/>
      <point x="82" y="223"/>
      <point x="97" y="30" type="curve"/>
      <point x="134" y="23"/>
      <point x="192" y="3"/>
    </contour>
    <contour>
      <point x="536" y="577" type="curve" smooth="yes"/>
      <point x="536" y="678"/>
      <point x="455" y="741"/>
      <point x="293" y="741" type="curve"/>
      <point x="218" y="741"/>
      <point x="143" y="723"/>
      <point x="77" y="691" type="curve"/>
      <point x="80" y="666"/>
      <point x="100" y="629"/>
      <point x="116" y="604" type="curve"/>
      <point x="153" y="628"/>
      <point x="235" y="652"/>
      <point x="275" y="652" type="curve" smooth="yes"/>
      <point x="353" y="652"/>
      <point x="388" y="615"/>
      <point x="388" y="557" type="curve" smooth="yes"/>
      <point x="388" y="482"/>
      <point x="341" y="430"/>
      <point x="210" y="416" type="curve"/>
      <point x="266" y="363" type="line"/>
      <point x="479" y="395"/>
      <point x="536" y="487"/>
    </contour>
    <contour>
      <point x="586" y="263" type="curve" smooth="yes"/>
      <point x="586" y="355"/>
      <point x="510" y="428"/>
      <point x="351" y="428" type="curve" smooth="yes"/>
      <point x="301" y="428"/>
      <point x="248" y="415"/>
      <point x="195" y="405" type="curve"/>
      <point x="196" y="307" type="line"/>
      <point x="227" y="321"/>
      <point x="275" y="335"/>
      <point x="316" y="335" type="curve" smooth="yes"/>
      <point x="405" y="335"/>
      <point x="434" y="290"/>
      <point x="434" y="232" type="curve" smooth="yes"/>
      <point x="434" y="153"/>
      <point x="369" y="73"/>
      <point x="284" y="73" type="curve" smooth="yes"/>
      <point x="246" y="73"/>
      <point x="213" y="91"/>
      <point x="178" y="117" type="curve"/>
      <point x="97" y="30" type="line"/>
      <point x="147" y="0"/>
      <point x="209" y="-20"/>
      <point x="270" y="-20" type="curve" smooth="yes"/>
      <point x="447" y="-20"/>
      <point x="586" y="104"/>
    </contour>
  </outline>
</glyph>
<glyph name="C" format="1">
  <advance width="588"/>
  <unicode hex="0043"/>
  <outline>
    <contour>
      <point x="548" y="208" type="curve"/>
      <point x="524" y="223"/>
      <point x="475" y="233"/>
      <point x="431" y="229" type="curve"/>
      <point x="439" y="128"/>
      <point x="401" y="63"/>
      <point x="325" y="63" type="curve" smooth="yes"/>
      <point x="245" y="63"/>
      <point x="203" y="151"/>
      <point x="203" y="305" type="curve" smooth="yes"/>
      <point x="203" y="477"/>
      <point x="264" y="598"/>
      <point x="335" y="598" type="curve" smooth="yes"/>
      <point x="388" y="598"/>
      <point x="417" y="554"/>
      <point x="414" y="442" type="curve"/>
      <point x="482" y="441"/>
      <point x="514" y="451"/>
      <point x="556" y="471" type="curve"/>
      <point x="550" y="614"/>
      <point x="481" y="693"/>
      <point x="360" y="693" type="curve" smooth="yes"/>
      <point x="167" y="693"/>
      <point x="39" y="504"/>
      <point x="39" y="269" type="curve" smooth="yes"/>
      <point x="39" y="60"/>
      <point x="144" y="-35"/>
      <point x="288" y="-35" type="curve" smooth="yes"/>
      <point x="452" y="-35"/>
      <point x="538" y="58"/>
    </contour>
  </outline>
</glyph>
<glyph name="G" format="1">
  <advance width="611"/>
  <unicode hex="0047"/>
  <outline>
    <contour>
      <point x="510" y="219" type="curve"/>
      <point x="429" y="259" type="line"/>
      <point x="411" y="156"/>
      <point x="363" y="97"/>
      <point x="300" y="97" type="curve" smooth="yes"/>
      <point x="235" y="97"/>
      <point x="197" y="164"/>
      <point x="197" y="323" type="curve" smooth="yes"/>
      <point x="197" y="509"/>
      <point x="246" y="629"/>
      <point x="312" y="629" type="curve" smooth="yes"/>
      <point x="359" y="629"/>
      <point x="385" y="582"/>
      <point x="395" y="478" type="curve"/>
      <point x="452" y="478"/>
      <point x="500" y="484"/>
      <point x="547" y="499" type="curve"/>
      <point x="540" y="631"/>
      <point x="471" y="724"/>
      <point x="342" y="724" type="curve" smooth="yes"/>
      <point x="158" y="724"/>
      <point x="39" y="521"/>
      <point x="39" y="276" type="curve" smooth="yes"/>
      <point x="39" y="87"/>
      <point x="126" y="-21"/>
      <point x="252" y="-21" type="curve" smooth="yes"/>
      <point x="370" y="-21"/>
      <point x="451" y="55"/>
    </contour>
    <contour>
      <point x="599" y="-17" type="curve"/>
      <point x="566" y="103"/>
      <point x="551" y="223"/>
      <point x="553" y="350" type="curve"/>
      <point x="493" y="350"/>
      <point x="444" y="345"/>
      <point x="401" y="333" type="curve"/>
      <point x="409" y="199"/>
      <point x="437" y="80"/>
      <point x="487" y="-32" type="curve"/>
      <point x="529" y="-29"/>
      <point x="567" y="-25"/>
    </contour>
  </outline>
</glyph>
<glyph name="J" format="1">
  <advance width="503"/>
  <unicode hex="004A"/>
  <outline>
    <contour>
      <point x="217" y="-88" type="curve" smooth="yes"/>
      <point x="310" y="-88"/>
      <point x="382" y="-23"/>
      <point x="411" y="113" type="curve" smooth="yes"/>
      <point x="434" y="219"/>
      <point x="441" y="319"/>
      <point x="441" y="478" type="curve" smooth="yes"/>
      <point x="441" y="561"/>
      <point x="437" y="645"/>
      <point x="430" y="717" type="curve"/>
      <point x="405" y="723"/>
      <point x="382" y="725"/>
      <point x="356" y="724" type="curve" smooth="yes"/>
      <point x="314" y="723"/>
      <point x="277" y="712"/>
      <point x="255" y="698" type="curve"/>
      <point x="277" y="520"/>
      <point x="286" y="342"/>
      <point x="286" y="222" type="curve" smooth="yes"/>
      <point x="286" y="57"/>
      <point x="256" y="12"/>
      <point x="214" y="12" type="curve" smooth="yes"/>
      <point x="171" y="12"/>
      <point x="153" y="59"/>
      <point x="135" y="187" type="curve"/>
      <point x="92" y="181"/>
      <point x="53" y="167"/>
      <point x="19" y="139" type="curve"/>
      <point x="34" y="9"/>
      <point x="113" y="-88"/>
    </contour>
  </outline>
</glyph>
<glyph name="L" format="1">
  <advance width="511"/>
  <unicode hex="004C"/>
  <outline>
    <contour>
      <point x="510" y="-72" type="curve"/>
      <point x="510" y="-36"/>
      <point x="500" y="19"/>
      <point x="493" y="44" type="curve"/>
      <point x="417" y="44"/>
      <point x="325" y="34"/>
      <point x="245" y="15" type="curve"/>
      <point x="227" y="133"/>
      <point x="224" y="257"/>
      <point x="224" y="372" type="curve" smooth="yes"/>
      <point x="223" y="488"/>
      <point x="228" y="596"/>
      <point x="238" y="672" type="curve"/>
      <point x="224" y="674"/>
      <point x="210" y="675"/>
      <point x="196" y="675" type="curve" smooth="yes"/>
      <point x="148" y="675"/>
      <point x="105" y="668"/>
      <point x="65" y="656" type="curve"/>
      <point x="63" y="431"/>
      <point x="89" y="110"/>
      <point x="120" y="-102" type="curve"/>
      <point x="256" y="-83"/>
      <point x="360" y="-73"/>
    </contour>
  </outline>
</glyph>
<glyph name="O" format="1">
  <advance width="628"/>
  <unicode hex="004F"/>
  <outline>
    <contour>
      <point x="591" y="416" type="curve" smooth="yes"/>
      <point x="591" y="621"/>
      <point x="504" y="733"/>
      <point x="350" y="733" type="curve" smooth="yes"/>
      <point x="157" y="733"/>
      <point x="33" y="560"/>
      <point x="33" y="329" type="curve" smooth="yes"/>
      <point x="33" y="143"/>
      <point x="109" y="-20"/>
      <point x="277" y="-20" type="curve" smooth="yes"/>
      <point x="517" y="-20"/>
      <point x="591" y="251"/>
    </contour>
    <contour>
      <point x="434" y="377" type="curve" smooth="yes"/>
      <point x="434" y="244"/>
      <point x="408" y="80"/>
      <point x="305" y="80" type="curve" smooth="yes"/>
      <point x="215" y="80"/>
      <point x="187" y="228"/>
      <point x="187" y="351" type="curve" smooth="yes"/>
      <point x="187" y="519"/>
      <point x="238" y="631"/>
      <point x="320" y="631" type="curve" smooth="yes"/>
      <point x="398" y="631"/>
      <point x="434" y="560"/>
    </contour>
  </outline>
</glyph>
<glyph name="P" format="1">
  <advance width="599"/>
  <unicode hex="0050"/>
  <outline>
    <contour>
      <point x="225" y="-68" type="curve"/>
      <point x="217" y="52"/>
      <point x="212" y="152"/>
      <point x="212" y="268" type="curve"/>
      <point x="212" y="405"/>
      <point x="218" y="540"/>
      <point x="233" y="686" type="curve"/>
      <point x="70" y="696" type="line"/>
      <point x="66" y="647"/>
      <point x="63" y="586"/>
      <point x="63" y="538" type="curve" smooth="yes"/>
      <point x="63" y="340"/>
      <point x="72" y="170"/>
      <point x="95" y="-59" type="curve"/>
      <point x="132" y="-66"/>
      <point x="186" y="-69"/>
    </contour>
    <contour>
      <point x="561" y="547" type="curve" smooth="yes"/>
      <point x="561" y="660"/>
      <point x="480" y="742"/>
      <point x="306" y="742" type="curve" smooth="yes"/>
      <point x="225" y="742"/>
      <point x="137" y="724"/>
      <point x="70" y="696" type="curve"/>
      <point x="74" y="669"/>
      <point x="95" y="627"/>
      <point x="112" y="599" type="curve"/>
      <point x="157" y="623"/>
      <point x="218" y="653"/>
      <point x="281" y="653" type="curve" smooth="yes"/>
      <point x="375" y="653"/>
      <point x="406" y="590"/>
      <point x="406" y="521" type="curve" smooth="yes"/>
      <point x="406" y="409"/>
      <point x="326" y="342"/>
      <point x="187" y="314" type="curve"/>
      <point x="203" y="216" type="line"/>
      <point x="429" y="280"/>
      <point x="561" y="397"/>
    </contour>
  </outline>
</glyph>
<glyph name="Q" format="1">
  <advance width="635"/>
  <unicode hex="0051"/>
  <outline>
    <contour>
      <point x="594" y="373" type="curve" smooth="yes"/>
      <point x="594" y="565"/>
      <point x="510" y="673"/>
      <point x="349" y="673" type="curve" smooth="yes"/>
      <point x="170" y="673"/>
      <point x="34" y="509"/>
      <point x="34" y="274" type="curve" smooth="yes"/>
      <point x="34" y="99"/>
      <point x="112" y="-40"/>
      <point x="272" y="-40" type="curve" smooth="yes"/>
      <point x="505" y="-40"/>
      <point x="594" y="197"/>
    </contour>
    <contour>
      <point x="329" y="571" type="curve" smooth="yes"/>
      <point x="399" y="571"/>
      <point x="437" y="507"/>
      <point x="437" y="333" type="curve" smooth="yes"/>
      <point x="437" y="200"/>
      <point x="398" y="60"/>
      <point x="300" y="60" type="curve" smooth="yes"/>
      <point x="222" y="60"/>
      <point x="189" y="175"/>
      <point x="189" y="296" type="curve" smooth="yes"/>
      <point x="189" y="460"/>
      <point x="242" y="571"/>
    </contour>
    <contour>
      <point x="533" y="-119" type="curve"/>
      <point x="572" y="-94"/>
      <point x="605" y="-64"/>
      <point x="618" y="-28" type="curve"/>
      <point x="535" y="75"/>
      <point x="449" y="146"/>
      <point x="346" y="207" type="curve"/>
      <point x="321" y="194"/>
      <point x="306" y="173"/>
      <point x="296" y="154" type="curve"/>
      <point x="387" y="77"/>
      <point x="457" y="-5"/>
    </contour>
  </outline>
</glyph>
<glyph name="R" format="1">
  <advance width="606"/>
  <unicode hex="0052"/>
  <outline>
    <contour>
      <point x="214" y="-6" type="curve"/>
      <point x="227" y="128"/>
      <point x="232" y="263"/>
      <point x="232" y="394" type="curve" smooth="yes"/>
      <point x="232" y="491"/>
      <point x="228" y="582"/>
      <point x="222" y="685" type="curve"/>
      <point x="184" y="695"/>
      <point x="109" y="700"/>
      <point x="59" y="692" type="curve"/>
      <point x="80" y="503"/>
      <point x="90" y="354"/>
      <point x="90" y="164" type="curve" smooth="yes"/>
      <point x="90" y="106"/>
      <point x="88" y="59"/>
      <point x="85" y="2" type="curve"/>
      <point x="122" y="-4"/>
      <point x="175" y="-7"/>
    </contour>
    <contour>
      <point x="208" y="267" type="line"/>
      <point x="420" y="321"/>
      <point x="541" y="424"/>
      <point x="541" y="566" type="curve" smooth="yes"/>
      <point x="541" y="681"/>
      <point x="464" y="770"/>
      <point x="292" y="770" type="curve" smooth="yes"/>
      <point x="217" y="770"/>
      <point x="125" y="744"/>
      <point x="59" y="692" type="curve"/>
      <point x="67" y="661"/>
      <point x="89" y="624"/>
      <point x="101" y="590" type="curve"/>
      <point x="152" y="639"/>
      <point x="209" y="680"/>
      <point x="273" y="680" type="curve" smooth="yes"/>
      <point x="349" y="680"/>
      <point x="387" y="628"/>
      <point x="387" y="549" type="curve" smooth="yes"/>
      <point x="387" y="441"/>
      <point x="322" y="382"/>
      <point x="189" y="357" type="curve"/>
    </contour>
    <contour>
      <point x="601" y="28" type="curve"/>
      <point x="531" y="178"/>
      <point x="459" y="295"/>
      <point x="372" y="383" type="curve"/>
      <point x="269" y="324" type="line"/>
      <point x="353" y="212"/>
      <point x="401" y="107"/>
      <point x="466" y="-44" type="curve"/>
      <point x="523" y="-28"/>
      <point x="571" y="-1"/>
    </contour>
  </outline>
</glyph>
<glyph name="S" format="1">
  <advance width="525"/>
  <unicode hex="0053"/>
  <outline>
    <contour>
      <point x="489" y="177" type="curve" smooth="yes"/>
      <point x="489" y="418"/>
      <point x="220" y="416"/>
      <point x="220" y="588" type="curve" smooth="yes"/>
      <point x="220" y="639"/>
      <point x="246" y="669"/>
      <point x="290" y="669" type="curve" smooth="yes"/>
      <point x="346" y="669"/>
      <point x="375" y="633"/>
      <point x="388" y="540" type="curve"/>
      <point x="441" y="543"/>
      <point x="480" y="551"/>
      <point x="513" y="573" type="curve"/>
      <point x="491" y="686"/>
      <point x="432" y="767"/>
      <point x="293" y="767" type="curve" smooth="yes"/>
      <point x="152" y="767"/>
      <point x="66" y="678"/>
      <point x="66" y="556" type="curve" smooth="yes"/>
      <point x="66" y="316"/>
      <point x="337" y="308"/>
      <point x="337" y="146" type="curve" smooth="yes"/>
      <point x="337" y="92"/>
      <point x="307" y="53"/>
      <point x="248" y="53" type="curve" smooth="yes"/>
      <point x="168" y="53"/>
      <point x="129" y="137"/>
      <point x="129" y="246" type="curve"/>
      <point x="98" y="245"/>
      <point x="45" y="233"/>
      <point x="10" y="215" type="curve"/>
      <point x="10" y="93"/>
      <point x="94" y="-40"/>
      <point x="261" y="-40" type="curve" smooth="yes"/>
      <point x="385" y="-40"/>
      <point x="489" y="46"/>
    </contour>
  </outline>
</glyph>
<glyph name="T" format="1">
  <advance width="584"/>
  <unicode hex="0054"/>
  <outline>
    <contour>
      <point x="556" y="663" type="curve"/>
      <point x="559" y="680"/>
      <point x="563" y="703"/>
      <point x="563" y="727" type="curve" smooth="yes"/>
      <point x="563" y="752"/>
      <point x="560" y="774"/>
      <point x="554" y="792" type="curve"/>
      <point x="347" y="791"/>
      <point x="204" y="776"/>
      <point x="16" y="738" type="curve"/>
      <point x="15" y="704"/>
      <point x="22" y="665"/>
      <point x="35" y="627" type="curve"/>
      <point x="231" y="651"/>
      <point x="362" y="662"/>
    </contour>
    <contour>
      <point x="384" y="40" type="curve"/>
      <point x="390" y="122"/>
      <point x="396" y="214"/>
      <point x="396" y="302" type="curve" smooth="yes"/>
      <point x="396" y="467"/>
      <point x="388" y="609"/>
      <point x="373" y="743" type="curve"/>
      <point x="310" y="743"/>
      <point x="251" y="737"/>
      <point x="203" y="727" type="curve"/>
      <point x="236" y="529"/>
      <point x="249" y="218"/>
      <point x="246" y="23" type="curve"/>
      <point x="306" y="24"/>
      <point x="347" y="30"/>
    </contour>
  </outline>
</glyph>
<glyph name="U" format="1">
  <advance width="580"/>
  <unicode hex="0055"/>
  <outline>
    <contour>
      <point x="539" y="394" type="curve" smooth="yes"/>
      <point x="539" y="512"/>
      <point x="517" y="622"/>
      <point x="497" y="709" type="curve"/>
      <point x="451" y="708"/>
      <point x="383" y="699"/>
      <point x="338" y="681" type="curve"/>
      <point x="356" y="608"/>
      <point x="382" y="483"/>
      <point x="382" y="338" type="curve" smooth="yes"/>
      <point x="382" y="169"/>
      <point x="353" y="21"/>
      <point x="282" y="21" type="curve" smooth="yes"/>
      <point x="228" y="21"/>
      <point x="204" y="121"/>
      <point x="204" y="300" type="curve" smooth="yes"/>
      <point x="204" y="405"/>
      <point x="217" y="519"/>
      <point x="238" y="623" type="curve"/>
      <point x="226" y="629"/>
      <point x="205" y="634"/>
      <point x="173" y="634" type="curve" smooth="yes"/>
      <point x="145" y="634"/>
      <point x="114" y="629"/>
      <point x="96" y="624" type="curve"/>
      <point x="75" y="575"/>
      <point x="43" y="419"/>
      <point x="43" y="268" type="curve" smooth="yes"/>
      <point x="43" y="61"/>
      <point x="102" y="-80"/>
      <point x="258" y="-80" type="curve" smooth="yes"/>
      <point x="474" y="-80"/>
      <point x="539" y="135"/>
    </contour>
  </outline>
</glyph>
<glyph name="Z" format="1">
  <advance width="588"/>
  <unicode hex="005A"/>
  <outline>
    <contour>
      <point x="514" y="-35" type="curve"/>
      <point x="532" y="6"/>
      <point x="540" y="56"/>
      <point x="540" y="109" type="curve"/>
      <point x="419" y="98"/>
      <point x="301" y="94"/>
      <point x="163" y="98" type="curve"/>
      <point x="322" y="262"/>
      <point x="453" y="412"/>
      <point x="550" y="553" type="curve"/>
      <point x="562" y="580"/>
      <point x="567" y="630"/>
      <point x="571" y="661" type="curve"/>
      <point x="419" y="683"/>
      <point x="259" y="710"/>
      <point x="97" y="741" type="curve"/>
      <point x="73" y="698"/>
      <point x="65" y="659"/>
      <point x="65" y="608" type="curve"/>
      <point x="170" y="592"/>
      <point x="291" y="577"/>
      <point x="430" y="571" type="curve"/>
      <point x="408" y="602" type="line"/>
      <point x="321" y="457"/>
      <point x="211" y="312"/>
      <point x="28" y="125" type="curve"/>
      <point x="18" y="92"/>
      <point x="15" y="44"/>
      <point x="15" y="6" type="curve"/>
      <point x="146" y="-15"/>
      <point x="348" y="-34"/>
    </contour>
  </outline>
</glyph>
<glyph name="grave" format="1">
  <advance width="260"/>
  <unicode hex="0060"/>
  <outline>
    <contour>
      <point x="207" y="583" type="curve"/>
      <point x="188" y="639"/>
      <point x="176" y="696"/>
      <point x="173" y="749" type="curve"/>
      <point x="141" y="753"/>
      <point x="89" y="753"/>
      <point x="50" y="738" type="curve"/>
      <point x="58" y="679"/>
      <point x="85" y="625"/>
      <point x="119" y="572" type="curve"/>
      <point x="151" y="572"/>
      <point x="179" y="576"/>
    </contour>
    <contour>
      <point x="158" y="560" type="move" name="_top"/>
    </contour>
  </outline>
</glyph>
<glyph name="a" format="1">
  <advance width="511"/>
  <unicode hex="0061"/>
  <outline>
    <contour>
      <point x="405" y="-35" type="curve"/>
      <point x="368" y="-35"/>
      <point x="324" y="-30"/>
      <point x="288" y="-21" type="curve"/>
      <point x="314" y="120"/>
      <point x="322" y="195"/>
      <point x="322" y="300" type="curve" smooth="yes"/>
      <point x="322" y="409"/>
      <point x="308" y="469"/>
      <point x="259" y="469" type="curve" smooth="yes"/>
      <point x="217" y="469"/>
      <point x="181" y="419"/>
      <point x="179" y="342" type="curve"/>
      <point x="112" y="344"/>
      <point x="70" y="370"/>
      <point x="52" y="413" type="curve"/>
      <point x="70" y="480"/>
      <point x="153" y="552"/>
      <point x="273" y="552" type="curve" smooth="yes"/>
      <point x="428" y="552"/>
      <point x="466" y="450"/>
      <point x="466" y="351" type="curve" smooth="yes"/>
      <point x="466" y="250"/>
      <point x="432" y="73"/>
    </contour>
    <contour>
      <point x="339" y="219" type="line"/>
      <point x="212" y="225"/>
      <point x="175" y="190"/>
      <point x="175" y="140" type="curve" smooth="yes"/>
      <point x="175" y="101"/>
      <point x="199" y="79"/>
      <point x="238" y="79" type="curve" smooth="yes"/>
      <point x="276" y="79"/>
      <point x="305" y="93"/>
      <point x="333" y="119" type="curve"/>
      <point x="325" y="48" type="line"/>
      <point x="296" y="22"/>
      <point x="252" y="4"/>
      <point x="195" y="4" type="curve" smooth="yes"/>
      <point x="93" y="4"/>
      <point x="25" y="61"/>
      <point x="25" y="149" type="curve" smooth="yes"/>
      <point x="25" y="235"/>
      <point x="92" y="287"/>
      <point x="250" y="287" type="curve" smooth="yes"/>
      <point x="300" y="287"/>
      <point x="319" y="286"/>
      <point x="339" y="284" type="curve"/>
    </contour>
  </outline>
</glyph>
<glyph name="b" format="1">
  <advance width="519"/>
  <unicode hex="0062"/>
  <outline>
    <contour>
      <point x="66" y="1" type="curve"/>
      <point x="111" y="-7"/>
      <point x="154" y="-18"/>
      <point x="201" y="-23" type="curve"/>
      <point x="197" y="23"/>
      <point x="197" y="68"/>
      <point x="197" y="133" type="curve" smooth="yes"/>
      <point x="197" y="347"/>
      <point x="213" y="554"/>
      <point x="241" y="699" type="curve"/>
      <point x="220" y="705"/>
      <point x="204" y="706"/>
      <point x="181" y="706" type="curve" smooth="yes"/>
      <point x="138" y="706"/>
      <point x="92" y="700"/>
      <point x="67" y="687" type="curve"/>
      <point x="59" y="607"/>
      <point x="55" y="489"/>
      <point x="55" y="376" type="curve" smooth="yes"/>
      <point x="55" y="271"/>
      <point x="58" y="115"/>
    </contour>
    <contour>
      <point x="179" y="83" type="curve"/>
      <point x="66" y="1" type="line"/>
      <point x="102" y="-23"/>
      <point x="150" y="-49"/>
      <point x="230" y="-49" type="curve" smooth="yes"/>
      <point x="373" y="-49"/>
      <point x="485" y="84"/>
      <point x="485" y="281" type="curve" smooth="yes"/>
      <point x="485" y="426"/>
      <point x="432" y="506"/>
      <point x="326" y="506" type="curve" smooth="yes"/>
      <point x="222" y="506"/>
      <point x="180" y="424"/>
      <point x="146" y="315" type="curve"/>
      <point x="188" y="277" type="line"/>
      <point x="208" y="371"/>
      <point x="242" y="410"/>
      <point x="276" y="410" type="curve" smooth="yes"/>
      <point x="318" y="410"/>
      <point x="335" y="368"/>
      <point x="335" y="302" type="curve" smooth="yes"/>
      <point x="335" y="164"/>
      <point x="309" y="50"/>
      <point x="238" y="50" type="curve" smooth="yes"/>
      <point x="216" y="50"/>
      <point x="193" y="64"/>
    </contour>
  </outline>
</glyph>
<glyph name="c" format="1">
  <advance width="481"/>
  <unicode hex="0063"/>
  <outline>
    <contour>
      <point x="327" y="346" type="curve"/>
      <point x="379" y="346"/>
      <point x="423" y="352"/>
      <point x="460" y="370" type="curve"/>
      <point x="460" y="467"/>
      <point x="404" y="542"/>
      <point x="282" y="542" type="curve" smooth="yes"/>
      <point x="121" y="542"/>
      <point x="26" y="369"/>
      <point x="26" y="201" type="curve" smooth="yes"/>
      <point x="26" y="80"/>
      <point x="83" y="-25"/>
      <point x="225" y="-25" type="curve" smooth="yes"/>
      <point x="364" y="-25"/>
      <point x="438" y="66"/>
      <point x="452" y="116" type="curve"/>
      <point x="433" y="143"/>
      <point x="401" y="163"/>
      <point x="372" y="170" type="curve"/>
      <point x="346" y="122"/>
      <point x="304" y="62"/>
      <point x="252" y="62" type="curve" smooth="yes"/>
      <point x="197" y="62"/>
      <point x="175" y="129"/>
      <point x="175" y="207" type="curve" smooth="yes"/>
      <point x="175" y="333"/>
      <point x="218" y="463"/>
      <point x="274" y="463" type="curve" smooth="yes"/>
      <point x="313" y="463"/>
      <point x="327" y="415"/>
    </contour>
  </outline>
</glyph>
<glyph name="d" format="1">
  <advance width="542"/>
  <unicode hex="0064"/>
  <outline>
    <contour>
      <point x="348" y="433" type="curve"/>
      <point x="358" y="516" type="line"/>
      <point x="347" y="523"/>
      <point x="309" y="531"/>
      <point x="281" y="531" type="curve" smooth="yes"/>
      <point x="127" y="531"/>
      <point x="31" y="408"/>
      <point x="31" y="223" type="curve" smooth="yes"/>
      <point x="31" y="84"/>
      <point x="84" y="-30"/>
      <point x="208" y="-30" type="curve" smooth="yes"/>
      <point x="293" y="-30"/>
      <point x="353" y="31"/>
      <point x="375" y="234" type="curve"/>
      <point x="335" y="275" type="line"/>
      <point x="324" y="120"/>
      <point x="284" y="75"/>
      <point x="249" y="75" type="curve" smooth="yes"/>
      <point x="205" y="75"/>
      <point x="177" y="130"/>
      <point x="177" y="241" type="curve" smooth="yes"/>
      <point x="177" y="386"/>
      <point x="233" y="444"/>
      <point x="291" y="444" type="curve" smooth="yes"/>
      <point x="318" y="444"/>
      <point x="333" y="440"/>
    </contour>
    <contour>
      <point x="313" y="477"/>
      <point x="328" y="128"/>
      <point x="356" y="-42" type="curve"/>
      <point x="394" y="-42"/>
      <point x="444" y="-34"/>
      <point x="470" y="-26" type="curve"/>
      <point x="468" y="20"/>
      <point x="467" y="56"/>
      <point x="467" y="108" type="curve" smooth="yes"/>
      <point x="467" y="306"/>
      <point x="468" y="594"/>
      <point x="483" y="720" type="curve"/>
      <point x="461" y="725"/>
      <point x="441" y="727"/>
      <point x="423" y="727" type="curve" smooth="yes"/>
      <point x="382" y="727"/>
      <point x="337" y="719"/>
      <point x="313" y="707" type="curve"/>
    </contour>
  </outline>
</glyph>
<glyph name="e" format="1">
  <advance width="499"/>
  <unicode hex="0065"/>
  <outline>
    <contour>
      <point x="132" y="270" type="line"/>
      <point x="179" y="251"/>
      <point x="229" y="243"/>
      <point x="274" y="243" type="curve" smooth="yes"/>
      <point x="337" y="243"/>
      <point x="392" y="248"/>
      <point x="432" y="266" type="curve"/>
      <point x="445" y="302"/>
      <point x="456" y="356"/>
      <point x="456" y="402" type="curve" smooth="yes"/>
      <point x="456" y="489"/>
      <point x="397" y="551"/>
      <point x="295" y="551" type="curve" smooth="yes"/>
      <point x="149" y="551"/>
      <point x="30" y="383"/>
      <point x="30" y="211" type="curve" smooth="yes"/>
      <point x="30" y="86"/>
      <point x="92" y="-17"/>
      <point x="231" y="-17" type="curve" smooth="yes"/>
      <point x="369" y="-17"/>
      <point x="447" y="78"/>
      <point x="463" y="126" type="curve"/>
      <point x="436" y="153"/>
      <point x="392" y="176"/>
      <point x="354" y="183" type="curve"/>
      <point x="340" y="133"/>
      <point x="296" y="70"/>
      <point x="255" y="70" type="curve" smooth="yes"/>
      <point x="202" y="70"/>
      <point x="178" y="134"/>
      <point x="178" y="216" type="curve" smooth="yes"/>
      <point x="178" y="331"/>
      <point x="223" y="470"/>
      <point x="284" y="470" type="curve" smooth="yes"/>
      <point x="314" y="470"/>
      <point x="322" y="446"/>
      <point x="322" y="412" type="curve" smooth="yes"/>
      <point x="322" y="382"/>
      <point x="315" y="349"/>
      <point x="308" y="323" type="curve"/>
      <point x="302" y="321"/>
      <point x="283" y="320"/>
      <point x="271" y="320" type="curve" smooth="yes"/>
      <point x="240" y="320"/>
      <point x="187" y="327"/>
      <point x="138" y="354" type="curve"/>
    </contour>
  </outline>
</glyph>
<glyph name="f" format="1">
  <advance width="435"/>
  <unicode hex="0066"/>
  <outline>
    <contour>
      <point x="240" y="-10"/>
      <point x="177" y="-21"/>
      <point x="125" y="-21" type="curve"/>
      <point x="112" y="38"/>
      <point x="86" y="236"/>
      <point x="86" y="394" type="curve" smooth="yes"/>
      <point x="86" y="624"/>
      <point x="160" y="727"/>
      <point x="279" y="727" type="curve" smooth="yes"/>
      <point x="377" y="727"/>
      <point x="420" y="661"/>
      <point x="420" y="591" type="curve" smooth="yes"/>
      <point x="420" y="572"/>
      <point x="416" y="551"/>
      <point x="409" y="536" type="curve"/>
      <point x="370" y="536"/>
      <point x="332" y="544"/>
      <point x="300" y="553" type="curve"/>
      <point x="305" y="566"/>
      <point x="307" y="580"/>
      <point x="307" y="594" type="curve" smooth="yes"/>
      <point x="307" y="624"/>
      <point x="296" y="639"/>
      <point x="277" y="639" type="curve" smooth="yes"/>
      <point x="239" y="639"/>
      <point x="223" y="563"/>
      <point x="223" y="448" type="curve" smooth="yes"/>
      <point x="223" y="279"/>
      <point x="262" y="74"/>
      <point x="280" y="4" type="curve"/>
    </contour>
    <contour>
      <point x="87" y="465"/>
      <point x="199" y="459"/>
      <point x="294" y="459" type="curve" smooth="yes"/>
      <point x="336" y="459"/>
      <point x="371" y="460"/>
      <point x="395" y="465" type="curve"/>
      <point x="395" y="437"/>
      <point x="390" y="396"/>
      <point x="385" y="374" type="curve"/>
      <point x="368" y="369"/>
      <point x="343" y="367"/>
      <point x="302" y="367" type="curve" smooth="yes"/>
      <point x="170" y="367"/>
      <point x="56" y="386"/>
      <point x="18" y="402" type="curve"/>
      <point x="18" y="420"/>
      <point x="25" y="464"/>
      <point x="34" y="473" type="curve"/>
    </contour>
  </outline>
</glyph>
<glyph name="i" format="1">
  <advance width="263"/>
  <unicode hex="0069"/>
  <outline>
    <contour>
      <point x="228" y="649"/>
      <point x="244" y="705"/>
      <point x="257" y="734" type="curve"/>
      <point x="240" y="743"/>
      <point x="214" y="749"/>
      <point x="180" y="750" type="curve" smooth="yes"/>
      <point x="145" y="750"/>
      <point x="119" y="744"/>
      <point x="95" y="732" type="curve"/>
      <point x="87" y="712"/>
      <point x="84" y="687"/>
      <point x="84" y="667" type="curve" smooth="yes"/>
      <point x="84" y="644"/>
      <point x="88" y="622"/>
      <point x="94" y="603" type="curve"/>
      <point x="150" y="602"/>
      <point x="190" y="605"/>
      <point x="220" y="609" type="curve"/>
    </contour>
    <contour>
      <point x="208" y="524"/>
      <point x="189" y="526"/>
      <point x="170" y="526" type="curve" smooth="yes"/>
      <point x="131" y="526"/>
      <point x="95" y="518"/>
      <point x="66" y="501" type="curve"/>
      <point x="39" y="359"/>
      <point x="36" y="173"/>
      <point x="57" y="-8" type="curve"/>
      <point x="66" y="-10"/>
      <point x="78" y="-11"/>
      <point x="92" y="-11" type="curve" smooth="yes"/>
      <point x="121" y="-11"/>
      <point x="157" y="-6"/>
      <point x="180" y="5" type="curve"/>
      <point x="180" y="219"/>
      <point x="201" y="420"/>
      <point x="227" y="520" type="curve"/>
    </contour>
  </outline>
</glyph>
<glyph name="l" format="1">
  <advance width="269"/>
  <unicode hex="006C"/>
  <outline>
    <contour>
      <point x="48" y="464"/>
      <point x="60" y="174"/>
      <point x="79" y="-61" type="curve"/>
      <point x="120" y="-61"/>
      <point x="182" y="-54"/>
      <point x="207" y="-46" type="curve"/>
      <point x="201" y="172"/>
      <point x="204" y="541"/>
      <point x="223" y="732" type="curve"/>
      <point x="197" y="739"/>
      <point x="174" y="742"/>
      <point x="149" y="742" type="curve" smooth="yes"/>
      <point x="109" y="742"/>
      <point x="74" y="730"/>
      <point x="54" y="717" type="curve"/>
    </contour>
  </outline>
</glyph>
<glyph name="m" format="1">
  <advance width="804"/>
  <unicode hex="006D"/>
  <outline>
    <contour>
      <point x="445" y="56"/>
      <point x="472" y="208"/>
      <point x="472" y="334" type="curve" smooth="yes"/>
      <point x="472" y="474"/>
      <point x="423" y="521"/>
      <point x="353" y="521" type="curve" smooth="yes"/>
      <point x="274" y="521"/>
      <point x="211" y="468"/>
      <point x="170" y="368" type="curve"/>
      <point x="189" y="284" type="line"/>
      <point x="212" y="363"/>
      <point x="251" y="405"/>
      <point x="284" y="405" type="curve" smooth="yes"/>
      <point x="317" y="405"/>
      <point x="329" y="379"/>
      <point x="329" y="324" type="curve" smooth="yes"/>
      <point x="329" y="235"/>
      <point x="310" y="117"/>
      <point x="294" y="27" type="curve"/>
      <point x="340" y="18"/>
      <point x="389" y="11"/>
      <point x="432" y="10" type="curve"/>
    </contour>
    <contour>
      <point x="37" y="371"/>
      <point x="59" y="114"/>
      <point x="72" y="-10" type="curve"/>
      <point x="113" y="-10"/>
      <point x="167" y="-4"/>
      <point x="196" y="4" type="curve"/>
      <point x="193" y="39"/>
      <point x="193" y="96"/>
      <point x="193" y="127" type="curve" smooth="yes"/>
      <point x="193" y="261"/>
      <point x="198" y="459"/>
      <point x="210" y="548" type="curve"/>
      <point x="187" y="553"/>
      <point x="166" y="554"/>
      <point x="148" y="554" type="curve" smooth="yes"/>
      <point x="106" y="554"/>
      <point x="62" y="547"/>
      <point x="37" y="535" type="curve"/>
    </contour>
    <contour>
      <point x="707" y="25"/>
      <point x="750" y="221"/>
      <point x="750" y="384" type="curve" smooth="yes"/>
      <point x="750" y="529"/>
      <point x="699" y="578"/>
      <point x="625" y="578" type="curve" smooth="yes"/>
      <point x="540" y="578"/>
      <point x="474" y="522"/>
      <point x="430" y="414" type="curve"/>
      <point x="461" y="326" type="line"/>
      <point x="486" y="415"/>
      <point x="523" y="462"/>
      <point x="557" y="462" type="curve" smooth="yes"/>
      <point x="590" y="462"/>
      <point x="602" y="436"/>
      <point x="602" y="381" type="curve" smooth="yes"/>
      <point x="602" y="262"/>
      <point x="571" y="105"/>
      <point x="543" y="-17" type="curve"/>
      <point x="593" y="-29"/>
      <point x="645" y="-34"/>
      <point x="691" y="-34" type="curve"/>
    </contour>
  </outline>
</glyph>
<glyph name="o" format="1">
  <advance width="510"/>
  <unicode hex="006F"/>
  <outline>
    <contour>
      <point x="287" y="546" type="curve" smooth="yes"/>
      <point x="131" y="546"/>
      <point x="27" y="416"/>
      <point x="27" y="236" type="curve" smooth="yes"/>
      <point x="27" y="108"/>
      <point x="83" y="-10"/>
      <point x="218" y="-10" type="curve" smooth="yes"/>
      <point x="407" y="-10"/>
      <point x="477" y="184"/>
      <point x="477" y="333" type="curve" smooth="yes"/>
      <point x="477" y="467"/>
      <point x="406" y="546"/>
    </contour>
    <contour>
      <point x="254" y="455" type="curve" smooth="yes"/>
      <point x="301" y="455"/>
      <point x="327" y="407"/>
      <point x="327" y="283" type="curve" smooth="yes"/>
      <point x="327" y="184"/>
      <point x="297" y="80"/>
      <point x="249" y="80" type="curve" smooth="yes"/>
      <point x="194" y="80"/>
      <point x="173" y="180"/>
      <point x="173" y="257" type="curve" smooth="yes"/>
      <point x="173" y="375"/>
      <point x="210" y="455"/>
    </contour>
  </outline>
</glyph>
<glyph name="p" format="1">
  <advance width="521"/>
  <unicode hex="0070"/>
  <outline>
    <contour>
      <point x="166" y="140" type="curve"/>
      <point x="81" y="57" type="line"/>
      <point x="115" y="36"/>
      <point x="160" y="10"/>
      <point x="240" y="10" type="curve" smooth="yes"/>
      <point x="377" y="10"/>
      <point x="494" y="149"/>
      <point x="494" y="370" type="curve" smooth="yes"/>
      <point x="494" y="490"/>
      <point x="441" y="566"/>
      <point x="354" y="566" type="curve" smooth="yes"/>
      <point x="253" y="566"/>
      <point x="187" y="468"/>
      <point x="156" y="344" type="curve"/>
      <point x="193" y="316" type="line"/>
      <point x="213" y="419"/>
      <point x="251" y="454"/>
      <point x="289" y="454" type="curve" smooth="yes"/>
      <point x="324" y="454"/>
      <point x="344" y="420"/>
      <point x="344" y="355" type="curve" smooth="yes"/>
      <point x="344" y="196"/>
      <point x="292" y="95"/>
      <point x="238" y="95" type="curve" smooth="yes"/>
      <point x="208" y="95"/>
      <point x="185" y="114"/>
    </contour>
    <contour>
      <point x="96" y="-227" type="curve"/>
      <point x="138" y="-227"/>
      <point x="191" y="-220"/>
      <point x="221" y="-211" type="curve"/>
      <point x="208" y="-102"/>
      <point x="195" y="11"/>
      <point x="195" y="165" type="curve"/>
      <point x="195" y="309"/>
      <point x="203" y="471"/>
      <point x="228" y="564" type="curve"/>
      <point x="209" y="569"/>
      <point x="197" y="571"/>
      <point x="179" y="571" type="curve" smooth="yes"/>
      <point x="137" y="571"/>
      <point x="93" y="563"/>
      <point x="68" y="550" type="curve"/>
      <point x="62" y="492"/>
      <point x="59" y="434"/>
      <point x="59" y="351" type="curve" smooth="yes"/>
      <point x="59" y="142"/>
      <point x="79" y="-98"/>
    </contour>
  </outline>
</glyph>
<glyph name="r" format="1">
  <advance width="452"/>
  <unicode hex="0072"/>
  <outline>
    <contour>
      <point x="219" y="-1" type="curve"/>
      <point x="183" y="232"/>
      <point x="188" y="413"/>
      <point x="209" y="531" type="curve"/>
      <point x="185" y="541"/>
      <point x="156" y="545"/>
      <point x="125" y="545" type="curve" smooth="yes"/>
      <point x="97" y="545"/>
      <point x="69" y="543"/>
      <point x="45" y="534" type="curve"/>
      <point x="33" y="367"/>
      <point x="50" y="156"/>
      <point x="84" y="-3" type="curve"/>
      <point x="97" y="-8"/>
      <point x="109" y="-10"/>
      <point x="130" y="-11" type="curve" smooth="yes"/>
      <point x="169" y="-13"/>
      <point x="198" y="-9"/>
    </contour>
    <contour>
      <point x="436" y="375" type="curve"/>
      <point x="437" y="391"/>
      <point x="437" y="406"/>
      <point x="437" y="419" type="curve" smooth="yes"/>
      <point x="437" y="525"/>
      <point x="393" y="571"/>
      <point x="334" y="571" type="curve" smooth="yes"/>
      <point x="258" y="571"/>
      <point x="176" y="459"/>
      <point x="165" y="273" type="curve"/>
      <point x="192" y="198" type="line"/>
      <point x="210" y="376"/>
      <point x="248" y="461"/>
      <point x="280" y="461" type="curve" smooth="yes"/>
      <point x="299" y="461"/>
      <point x="307" y="441"/>
      <point x="307" y="405" type="curve" smooth="yes"/>
      <point x="307" y="393"/>
      <point x="306" y="379"/>
      <point x="305" y="364" type="curve"/>
      <point x="351" y="361"/>
      <point x="402" y="364"/>
    </contour>
  </outline>
</glyph>
<glyph name="s" format="1">
  <advance width="447"/>
  <unicode hex="0073"/>
  <outline>
    <contour>
      <point x="409" y="133" type="curve" smooth="yes"/>
      <point x="409" y="300"/>
      <point x="180" y="320"/>
      <point x="180" y="421" type="curve" smooth="yes"/>
      <point x="180" y="453"/>
      <point x="197" y="474"/>
      <point x="228" y="474" type="curve" smooth="yes"/>
      <point x="268" y="474"/>
      <point x="289" y="442"/>
      <point x="298" y="374" type="curve"/>
      <point x="349" y="378"/>
      <point x="387" y="386"/>
      <point x="420" y="407" type="curve"/>
      <point x="402" y="499"/>
      <point x="344" y="563"/>
      <point x="224" y="563" type="curve" smooth="yes"/>
      <point x="110" y="563"/>
      <point x="38" y="492"/>
      <point x="38" y="397" type="curve" smooth="yes"/>
      <point x="38" y="227"/>
      <point x="264" y="213"/>
      <point x="264" y="102" type="curve" smooth="yes"/>
      <point x="264" y="61"/>
      <point x="240" y="39"/>
      <point x="202" y="39" type="curve" smooth="yes"/>
      <point x="143" y="39"/>
      <point x="119" y="95"/>
      <point x="120" y="155" type="curve"/>
      <point x="93" y="156"/>
      <point x="47" y="149"/>
      <point x="18" y="136" type="curve"/>
      <point x="18" y="39"/>
      <point x="92" y="-43"/>
      <point x="203" y="-43" type="curve" smooth="yes"/>
      <point x="314" y="-43"/>
      <point x="409" y="28"/>
    </contour>
  </outline>
</glyph>
<glyph name="t" format="1">
  <advance width="423"/>
  <unicode hex="0074"/>
  <outline>
    <contour>
      <point x="247" y="7" type="curve" smooth="yes"/>
      <point x="364" y="7"/>
      <point x="394" y="114"/>
      <point x="396" y="182" type="curve"/>
      <point x="368" y="203"/>
      <point x="329" y="218"/>
      <point x="293" y="221" type="curve"/>
      <point x="291" y="134"/>
      <point x="278" y="96"/>
      <point x="257" y="96" type="curve" smooth="yes"/>
      <point x="226" y="96"/>
      <point x="217" y="167"/>
      <point x="217" y="269" type="curve" smooth="yes"/>
      <point x="217" y="400"/>
      <point x="247" y="560"/>
      <point x="271" y="638" type="curve"/>
      <point x="231" y="651"/>
      <point x="170" y="659"/>
      <point x="115" y="659" type="curve"/>
      <point x="85" y="547"/>
      <point x="70" y="421"/>
      <point x="70" y="288" type="curve" smooth="yes"/>
      <point x="70" y="88"/>
      <point x="147" y="7"/>
    </contour>
    <contour>
      <point x="24" y="543" type="curve"/>
      <point x="12" y="523"/>
      <point x="6" y="488"/>
      <point x="5" y="460" type="curve"/>
      <point x="108" y="432"/>
      <point x="288" y="429"/>
      <point x="378" y="443" type="curve"/>
      <point x="387" y="470"/>
      <point x="393" y="502"/>
      <point x="393" y="525" type="curve"/>
      <point x="277" y="513"/>
      <point x="103" y="522"/>
    </contour>
  </outline>
</glyph>
<glyph name="u" format="1">
  <advance width="491"/>
  <unicode hex="0075"/>
  <outline>
    <contour>
      <point x="59" y="487"/>
      <point x="33" y="374"/>
      <point x="33" y="267" type="curve" smooth="yes"/>
      <point x="33" y="129"/>
      <point x="73" y="-10"/>
      <point x="221" y="-10" type="curve" smooth="yes"/>
      <point x="417" y="-10"/>
      <point x="458" y="197"/>
      <point x="458" y="372" type="curve" smooth="yes"/>
      <point x="458" y="421"/>
      <point x="454" y="470"/>
      <point x="448" y="502" type="curve"/>
      <point x="405" y="502"/>
      <point x="340" y="494"/>
      <point x="296" y="475" type="curve"/>
      <point x="300" y="458"/>
      <point x="308" y="391"/>
      <point x="308" y="321" type="curve" smooth="yes"/>
      <point x="308" y="207"/>
      <point x="293" y="83"/>
      <point x="244" y="83" type="curve" smooth="yes"/>
      <point x="202" y="83"/>
      <point x="185" y="183"/>
      <point x="185" y="289" type="curve" smooth="yes"/>
      <point x="185" y="373"/>
      <point x="194" y="452"/>
      <point x="209" y="518" type="curve"/>
      <point x="197" y="525"/>
      <point x="176" y="529"/>
      <point x="145" y="529" type="curve" smooth="yes"/>
      <point x="118" y="529"/>
      <point x="93" y="524"/>
      <point x="77" y="520" type="curve"/>
    </contour>
  </outline>
</glyph>
<glyph name="v" format="1">
  <advance width="490"/>
  <unicode hex="0076"/>
  <outline>
    <contour>
      <point x="281" y="21" type="curve"/>
      <point x="373" y="186"/>
      <point x="436" y="341"/>
      <point x="479" y="516" type="curve"/>
      <point x="439" y="533"/>
      <point x="392" y="545"/>
      <point x="347" y="548" type="curve"/>
      <point x="330" y="425"/>
      <point x="294" y="281"/>
      <point x="246" y="158" type="curve"/>
      <point x="220" y="316"/>
      <point x="190" y="461"/>
      <point x="148" y="578" type="curve"/>
      <point x="88" y="577"/>
      <point x="31" y="565"/>
      <point x="-13" y="544" type="curve"/>
      <point x="64" y="371"/>
      <point x="119" y="193"/>
      <point x="154" y="8" type="curve"/>
      <point x="201" y="8"/>
      <point x="251" y="9"/>
    </contour>
  </outline>
</glyph>
<glyph name="x" format="1">
  <advance width="524"/>
  <unicode hex="0078"/>
  <outline>
    <contour>
      <point x="24" y="473" type="curve"/>
      <point x="160" y="321"/>
      <point x="272" y="146"/>
      <point x="378" y="-44" type="curve"/>
      <point x="415" y="-27"/>
      <point x="460" y="0"/>
      <point x="485" y="24" type="curve"/>
      <point x="391" y="219"/>
      <point x="291" y="387"/>
      <point x="167" y="557" type="curve"/>
      <point x="116" y="539"/>
      <point x="64" y="505"/>
    </contour>
    <contour>
      <point x="241" y="303" type="curve"/>
      <point x="224" y="299" type="line"/>
      <point x="148" y="211"/>
      <point x="67" y="128"/>
      <point x="-15" y="50" type="curve"/>
      <point x="0" y="24"/>
      <point x="22" y="-6"/>
      <point x="46" y="-25" type="curve"/>
      <point x="133" y="49"/>
      <point x="209" y="123"/>
      <point x="283" y="201" type="curve"/>
      <point x="300" y="203" type="line"/>
      <point x="376" y="280"/>
      <point x="449" y="362"/>
      <point x="523" y="453" type="curve"/>
      <point x="500" y="493"/>
      <point x="469" y="529"/>
      <point x="430" y="554" type="curve"/>
      <point x="367" y="462"/>
      <point x="309" y="381"/>
    </contour>
  </outline>
</glyph>
<glyph name="y" format="1">
  <advance width="526"/>
  <unicode hex="0079"/>
  <outline>
    <contour>
      <point x="385" y="517"/>
      <point x="323" y="508"/>
      <point x="285" y="491" type="curve"/>
      <point x="304" y="430"/>
      <point x="326" y="293"/>
      <point x="326" y="160" type="curve" smooth="yes"/>
      <point x="326" y="-46"/>
      <point x="297" y="-147"/>
      <point x="243" y="-147" type="curve" smooth="yes"/>
      <point x="207" y="-147"/>
      <point x="189" y="-110"/>
      <point x="177" y="-26" type="curve"/>
      <point x="133" y="-33"/>
      <point x="86" y="-50"/>
      <point x="52" y="-76" type="curve"/>
      <point x="56" y="-127"/>
      <point x="88" y="-236"/>
      <point x="231" y="-236" type="curve" smooth="yes"/>
      <point x="351" y="-236"/>
      <point x="476" y="-147"/>
      <point x="476" y="179" type="curve" smooth="yes"/>
      <point x="476" y="300"/>
      <point x="458" y="448"/>
      <point x="440" y="515" type="curve"/>
    </contour>
    <contour>
      <point x="49" y="433"/>
      <point x="33" y="362"/>
      <point x="33" y="255" type="curve" smooth="yes"/>
      <point x="33" y="109"/>
      <point x="107" y="17"/>
      <point x="199" y="17" type="curve" smooth="yes"/>
      <point x="272" y="17"/>
      <point x="325" y="66"/>
      <point x="364" y="177" type="curve"/>
      <point x="343" y="263" type="line"/>
      <point x="321" y="172"/>
      <point x="290" y="126"/>
      <point x="249" y="126" type="curve" smooth="yes"/>
      <point x="204" y="126"/>
      <point x="183" y="193"/>
      <point x="183" y="262" type="curve" smooth="yes"/>
      <point x="183" y="349"/>
      <point x="194" y="413"/>
      <point x="222" y="519" type="curve"/>
      <point x="168" y="531"/>
      <point x="123" y="535"/>
      <point x="79" y="535" type="curve"/>
    </contour>
  </outline>
</glyph>
<glyph name="braceleft" format="1">
  <advance width="331"/>
  <unicode hex="007B"/>
  <outline>
    <contour>
      <point x="314" y="-156" type="curve"/>
      <point x="317" y="-135"/>
      <point x="311" y="-104"/>
      <point x="299" y="-74" type="curve"/>
      <point x="284" y="-80"/>
      <point x="272" y="-83"/>
      <point x="254" y="-83" type="curve" smooth="yes"/>
      <point x="217" y="-83"/>
      <point x="192" y="-58"/>
      <point x="192" y="-11" type="curve" smooth="yes"/>
      <point x="192" y="88"/>
      <point x="276" y="116"/>
      <point x="276" y="223" type="curve" smooth="yes"/>
      <point x="276" y="281"/>
      <point x="223" y="334"/>
      <point x="147" y="334" type="curve"/>
      <point x="146" y="313" type="line"/>
      <point x="221" y="316"/>
      <point x="273" y="370"/>
      <point x="273" y="427" type="curve" smooth="yes"/>
      <point x="273" y="534"/>
      <point x="181" y="577"/>
      <point x="181" y="660" type="curve" smooth="yes"/>
      <point x="181" y="704"/>
      <point x="205" y="732"/>
      <point x="244" y="732" type="curve" smooth="yes"/>
      <point x="262" y="732"/>
      <point x="273" y="728"/>
      <point x="286" y="721" type="curve"/>
      <point x="298" y="753"/>
      <point x="302" y="783"/>
      <point x="298" y="803" type="curve"/>
      <point x="274" y="812"/>
      <point x="243" y="819"/>
      <point x="206" y="819" type="curve" smooth="yes"/>
      <point x="121" y="819"/>
      <point x="58" y="761"/>
      <point x="58" y="671" type="curve" smooth="yes"/>
      <point x="58" y="610"/>
      <point x="81" y="571"/>
      <point x="118" y="523" type="curve" smooth="yes"/>
      <point x="147" y="482"/>
      <point x="162" y="457"/>
      <point x="162" y="429" type="curve" smooth="yes"/>
      <point x="162" y="397"/>
      <point x="141" y="374"/>
      <point x="102" y="374" type="curve" smooth="yes"/>
      <point x="83" y="374"/>
      <point x="63" y="376"/>
      <point x="44" y="380" type="curve"/>
      <point x="37" y="345"/>
      <point x="38" y="299"/>
      <point x="48" y="263" type="curve"/>
      <point x="68" y="268"/>
      <point x="84" y="271"/>
      <point x="106" y="271" type="curve" smooth="yes"/>
      <point x="145" y="271"/>
      <point x="167" y="249"/>
      <point x="167" y="218" type="curve" smooth="yes"/>
      <point x="167" y="190"/>
      <point x="153" y="162"/>
      <point x="124" y="120" type="curve" smooth="yes"/>
      <point x="86" y="68"/>
      <point x="70" y="28"/>
      <point x="70" y="-29" type="curve" smooth="yes"/>
      <point x="70" y="-115"/>
      <point x="136" y="-173"/>
      <point x="218" y="-173" type="curve" smooth="yes"/>
      <point x="257" y="-173"/>
      <point x="283" y="-169"/>
    </contour>
  </outline>
</glyph>
<glyph name="bar" format="1">
  <advance width="271"/>
  <unicode hex="007C"/>
  <outline>
    <contour>
      <point x="73" y="458"/>
      <point x="78" y="91"/>
      <point x="94" y="-168" type="curve"/>
      <point x="120" y="-171"/>
      <point x="158" y="-167"/>
      <point x="182" y="-159" type="curve"/>
      <point x="176" y="34"/>
      <point x="182" y="519"/>
      <point x="197" y="725" type="curve"/>
      <point x="164" y="734"/>
      <point x="114" y="730"/>
      <point x="74" y="713" type="curve"/>
    </contour>
  </outline>
</glyph>
<glyph name="asciitilde" format="1">
  <advance width="440"/>
  <unicode hex="007E"/>
  <outline>
    <contour>
      <point x="292" y="353" type="curve" smooth="yes"/>
      <point x="239" y="353"/>
      <point x="191" y="396"/>
      <point x="132" y="396" type="curve" smooth="yes"/>
      <point x="61" y="396"/>
      <point x="23" y="347"/>
      <point x="30" y="266" type="curve"/>
      <point x="51" y="259"/>
      <point x="75" y="255"/>
      <point x="94" y="256" type="curve"/>
      <point x="92" y="291"/>
      <point x="105" y="307"/>
      <point x="144" y="307" type="curve" smooth="yes"/>
      <point x="190" y="307"/>
      <point x="238" y="264"/>
      <point x="306" y="264" type="curve" smooth="yes"/>
      <point x="377" y="264"/>
      <point x="416" y="312"/>
      <point x="409" y="394" type="curve"/>
      <point x="392" y="402"/>
      <point x="364" y="405"/>
      <point x="344" y="404" type="curve"/>
      <point x="345" y="369"/>
      <point x="331" y="353"/>
    </contour>
  </outline>
</glyph>
<glyph name="exclamdown" format="1">
  <advance width="280"/>
  <unicode hex="00A1"/>
  <outline>
    <contour>
      <point x="212" y="-150"/>
      <point x="213" y="-128"/>
      <point x="213" y="-110" type="curve" smooth="yes"/>
      <point x="213" y="18"/>
      <point x="210" y="143"/>
      <point x="194" y="311" type="curve"/>
      <point x="172" y="316"/>
      <point x="147" y="319"/>
      <point x="122" y="319" type="curve" smooth="yes"/>
      <point x="104" y="319"/>
      <point x="90" y="318"/>
      <point x="80" y="315" type="curve"/>
      <point x="84" y="168"/>
      <point x="72" y="-35"/>
      <point x="48" y="-182" type="curve"/>
      <point x="67" y="-188"/>
      <point x="87" y="-192"/>
      <point x="112" y="-192" type="curve" smooth="yes"/>
      <point x="150" y="-192"/>
      <point x="181" y="-183"/>
      <point x="211" y="-168" type="curve"/>
    </contour>
    <contour>
      <point x="201" y="462"/>
      <point x="201" y="503"/>
      <point x="198" y="551" type="curve"/>
      <point x="181" y="558"/>
      <point x="153" y="564"/>
      <point x="124" y="564" type="curve" smooth="yes"/>
      <point x="100" y="564"/>
      <point x="81" y="563"/>
      <point x="55" y="557" type="curve"/>
      <point x="59" y="511"/>
      <point x="61" y="475"/>
      <point x="64" y="426" type="curve"/>
      <point x="110" y="424"/>
      <point x="145" y="422"/>
      <point x="198" y="423" type="curve"/>
    </contour>
  </outline>
</glyph>
<glyph name="sterling" format="1">
  <advance width="515"/>
  <unicode hex="00A3"/>
  <outline>
    <contour>
      <point x="423" y="292" type="curve" smooth="yes"/>
      <point x="422" y="305"/>
      <point x="420" y="318"/>
      <point x="418" y="331" type="curve"/>
      <point x="315" y="311"/>
      <point x="114" y="300"/>
      <point x="18" y="304" type="curve"/>
      <point x="14" y="285"/>
      <point x="14" y="248"/>
      <point x="16" y="219" type="curve"/>
      <point x="117" y="216"/>
      <point x="294" y="217"/>
      <point x="415" y="236" type="curve"/>
      <point x="421" y="253"/>
      <point x="423" y="274"/>
    </contour>
    <contour>
      <point x="262" y="192" type="curve" smooth="yes"/>
      <point x="262" y="297"/>
      <point x="185" y="318"/>
      <point x="185" y="450" type="curve" smooth="yes"/>
      <point x="185" y="532"/>
      <point x="215" y="584"/>
      <point x="269" y="584" type="curve" smooth="yes"/>
      <point x="317" y="584"/>
      <point x="349" y="536"/>
      <point x="343" y="427" type="curve"/>
      <point x="395" y="418"/>
      <point x="447" y="418"/>
      <point x="488" y="431" type="curve"/>
      <point x="480" y="585"/>
      <point x="395" y="673"/>
      <point x="270" y="673" type="curve" smooth="yes"/>
      <point x="127" y="673"/>
      <point x="29" y="580"/>
      <point x="29" y="461" type="curve" smooth="yes"/>
      <point x="29" y="370"/>
      <point x="83" y="306"/>
      <point x="127" y="253" type="curve" smooth="yes"/>
      <point x="151" y="223"/>
      <point x="160" y="194"/>
      <point x="160" y="160" type="curve" smooth="yes"/>
      <point x="160" y="111"/>
      <point x="135" y="73"/>
      <point x="75" y="36" type="curve"/>
      <point x="121" y="6" type="line"/>
      <point x="205" y="59"/>
      <point x="262" y="108"/>
    </contour>
    <contour>
      <point x="39" y="-36" type="curve"/>
      <point x="81" y="-18"/>
      <point x="105" y="-11"/>
      <point x="140" y="-11" type="curve" smooth="yes"/>
      <point x="226" y="-11"/>
      <point x="327" y="-49"/>
      <point x="504" y="-26" type="curve"/>
      <point x="509" y="15"/>
      <point x="503" y="68"/>
      <point x="488" y="106" type="curve"/>
      <point x="414" y="80"/>
      <point x="342" y="67"/>
      <point x="277" y="65" type="curve" smooth="yes"/>
      <point x="214" y="64"/>
      <point x="188" y="79"/>
      <point x="137" y="79" type="curve" smooth="yes"/>
      <point x="103" y="79"/>
      <point x="58" y="64"/>
      <point x="13" y="38" type="curve"/>
      <point x="14" y="15"/>
      <point x="21" y="-9"/>
    </contour>
  </outline>
</glyph>
<glyph name="currency" format="1">
  <advance width="562"/>
  <unicode hex="00A4"/>
  <outline>
    <contour>
      <point x="309" y="596" type="curve" smooth="yes"/>
      <point x="169" y="596"/>
      <point x="69" y="490"/>
      <point x="69" y="329" type="curve" smooth="yes"/>
      <point x="69" y="214"/>
      <point x="126" y="116"/>
      <point x="249" y="116" type="curve" smooth="yes"/>
      <point x="420" y="116"/>
      <point x="487" y="280"/>
      <point x="487" y="412" type="curve" smooth="yes"/>
      <point x="487" y="532"/>
      <point x="415" y="596"/>
    </contour>
    <contour>
      <point x="282" y="515" type="curve" smooth="yes"/>
      <point x="327" y="515"/>
      <point x="353" y="471"/>
      <point x="353" y="371" type="curve" smooth="yes"/>
      <point x="353" y="288"/>
      <point x="325" y="197"/>
      <point x="275" y="197" type="curve" smooth="yes"/>
      <point x="230" y="197"/>
      <point x="201" y="270"/>
      <point x="201" y="348" type="curve" smooth="yes"/>
      <point x="201" y="449"/>
      <point x="235" y="515"/>
    </contour>
    <contour>
      <point x="462" y="481" type="line"/>
      <point x="495" y="528"/>
      <point x="527" y="563"/>
      <point x="570" y="601" type="curve"/>
      <point x="551" y="625"/>
      <point x="518" y="651"/>
      <point x="492" y="661" type="curve"/>
      <point x="457" y="629"/>
      <point x="424" y="584"/>
      <point x="401" y="547" type="curve"/>
    </contour>
    <contour>
      <point x="162" y="165" type="curve"/>
      <point x="99" y="232" type="line"/>
      <point x="66" y="184"/>
      <point x="33" y="149"/>
      <point x="-9" y="112" type="curve"/>
      <point x="9" y="88"/>
      <point x="43" y="62"/>
      <point x="70" y="51" type="curve"/>
      <point x="104" y="84"/>
      <point x="138" y="130"/>
    </contour>
    <contour>
      <point x="475" y="68" type="curve"/>
      <point x="502" y="83"/>
      <point x="531" y="112"/>
      <point x="545" y="137" type="curve"/>
      <point x="516" y="176"/>
      <point x="474" y="215"/>
      <point x="440" y="244" type="curve"/>
      <point x="377" y="183" type="line"/>
      <point x="419" y="145"/>
      <point x="442" y="115"/>
    </contour>
    <contour>
      <point x="203" y="552" type="line"/>
      <point x="159" y="591"/>
      <point x="134" y="624"/>
      <point x="102" y="671" type="curve"/>
      <point x="76" y="655"/>
      <point x="46" y="625"/>
      <point x="32" y="599" type="curve"/>
      <point x="60" y="561"/>
      <point x="101" y="521"/>
      <point x="133" y="494" type="curve"/>
    </contour>
  </outline>
</glyph>
<glyph name="copyright" format="1">
  <advance width="823"/>
  <unicode hex="00A9"/>
  <outline>
    <contour>
      <point x="563" y="256" type="curve"/>
      <point x="548" y="267"/>
      <point x="509" y="274"/>
      <point x="477" y="271" type="curve"/>
      <point x="483" y="221"/>
      <point x="465" y="189"/>
      <point x="427" y="189" type="curve" smooth="yes"/>
      <point x="389" y="189"/>
      <point x="370" y="235"/>
      <point x="370" y="313" type="curve" smooth="yes"/>
      <point x="370" y="392"/>
      <point x="394" y="462"/>
      <point x="428" y="462" type="curve"/>
      <point x="448" y="462"/>
      <point x="465" y="440"/>
      <point x="465" y="385" type="curve"/>
      <point x="519" y="385"/>
      <point x="539" y="391"/>
      <point x="571" y="405" type="curve"/>
      <point x="564" y="484"/>
      <point x="518" y="527"/>
      <point x="447" y="527" type="curve"/>
      <point x="325" y="527"/>
      <point x="245" y="415"/>
      <point x="245" y="286" type="curve" smooth="yes"/>
      <point x="245" y="169"/>
      <point x="312" y="120"/>
      <point x="397" y="120" type="curve" smooth="yes"/>
      <point x="502" y="120"/>
      <point x="558" y="175"/>
    </contour>
    <contour>
      <point x="686" y="330" type="curve" smooth="yes"/>
      <point x="686" y="135"/>
      <point x="584" y="17"/>
      <point x="413" y="17" type="curve" smooth="yes"/>
      <point x="242" y="17"/>
      <point x="136" y="129"/>
      <point x="136" y="312" type="curve" smooth="yes"/>
      <point x="136" y="490"/>
      <point x="260" y="620"/>
      <point x="423" y="620" type="curve" smooth="yes"/>
      <point x="591" y="620"/>
      <point x="686" y="506"/>
    </contour>
    <contour>
      <point x="791" y="328" type="curve" smooth="yes"/>
      <point x="791" y="524"/>
      <point x="674" y="704"/>
      <point x="435" y="704" type="curve" smooth="yes"/>
      <point x="201" y="704"/>
      <point x="32" y="531"/>
      <point x="32" y="305" type="curve" smooth="yes"/>
      <point x="32" y="75"/>
      <point x="181" y="-66"/>
      <point x="405" y="-66" type="curve" smooth="yes"/>
      <point x="658" y="-66"/>
      <point x="791" y="95"/>
    </contour>
  </outline>
</glyph>
<glyph name="logicalnot" format="1">
  <advance width="444"/>
  <unicode hex="00AC"/>
  <outline>
    <contour>
      <point x="34" y="402" type="curve"/>
      <point x="29" y="369"/>
      <point x="27" y="343"/>
      <point x="27" y="309" type="curve"/>
      <point x="135" y="294"/>
      <point x="283" y="292"/>
      <point x="400" y="309" type="curve"/>
      <point x="413" y="401" type="line"/>
      <point x="273" y="387"/>
      <point x="153" y="387"/>
    </contour>
    <contour>
      <point x="310" y="167" type="curve"/>
      <point x="344" y="162"/>
      <point x="370" y="160"/>
      <point x="404" y="160" type="curve"/>
      <point x="414" y="230"/>
      <point x="420" y="319"/>
      <point x="413" y="401" type="curve"/>
      <point x="320" y="350" type="line"/>
      <point x="322" y="286"/>
      <point x="319" y="230"/>
    </contour>
  </outline>
</glyph>
<glyph name="degree" format="1">
  <advance width="268"/>
  <unicode hex="00B0"/>
  <outline>
    <contour>
      <point x="144" y="747" type="curve" smooth="yes"/>
      <point x="56" y="747"/>
      <point x="10" y="698"/>
      <point x="10" y="630" type="curve" smooth="yes"/>
      <point x="10" y="561"/>
      <point x="55" y="515"/>
      <point x="128" y="515" type="curve" smooth="yes"/>
      <point x="215" y="515"/>
      <point x="258" y="565"/>
      <point x="258" y="648" type="curve" smooth="yes"/>
      <point x="258" y="707"/>
      <point x="216" y="747"/>
    </contour>
    <contour>
      <point x="137" y="697" type="curve" smooth="yes"/>
      <point x="159" y="697"/>
      <point x="179" y="682"/>
      <point x="179" y="639" type="curve" smooth="yes"/>
      <point x="179" y="596"/>
      <point x="159" y="569"/>
      <point x="132" y="569" type="curve" smooth="yes"/>
      <point x="105" y="569"/>
      <point x="88" y="590"/>
      <point x="88" y="628" type="curve" smooth="yes"/>
      <point x="88" y="671"/>
      <point x="109" y="697"/>
    </contour>
  </outline>
</glyph>
<glyph name="plusminus" format="1">
  <advance width="445"/>
  <unicode hex="00B1"/>
  <outline>
    <contour>
      <point x="28" y="152" type="curve"/>
      <point x="23" y="119"/>
      <point x="21" y="93"/>
      <point x="21" y="59" type="curve"/>
      <point x="129" y="44"/>
      <point x="278" y="42"/>
      <point x="395" y="59" type="curve"/>
      <point x="403" y="88"/>
      <point x="407" y="119"/>
      <point x="407" y="151" type="curve"/>
      <point x="267" y="137"/>
      <point x="147" y="137"/>
    </contour>
    <component base="plus" yOffset="35"/>
  </outline>
</glyph>
<glyph name="threesuperior" format="1">
  <advance width="364"/>
  <unicode hex="00B3"/>
  <outline>
    <contour>
      <point x="341" y="624" type="curve"/>
      <point x="341" y="660"/>
      <point x="335" y="693"/>
      <point x="324" y="720" type="curve"/>
      <point x="230" y="719"/>
      <point x="101" y="705"/>
      <point x="24" y="682" type="curve"/>
      <point x="24" y="655"/>
      <point x="27" y="620"/>
      <point x="36" y="595" type="curve"/>
      <point x="150" y="619"/>
      <point x="251" y="623"/>
    </contour>
    <contour>
      <point x="178" y="267" type="curve" smooth="yes"/>
      <point x="276" y="267"/>
      <point x="347" y="330"/>
      <point x="347" y="413" type="curve" smooth="yes"/>
      <point x="347" y="472"/>
      <point x="304" y="520"/>
      <point x="212" y="532" type="curve"/>
      <point x="213" y="515" type="line"/>
      <point x="278" y="559"/>
      <point x="305" y="585"/>
      <point x="341" y="624" type="curve"/>
      <point x="263" y="677" type="line"/>
      <point x="231" y="621"/>
      <point x="172" y="572"/>
      <point x="105" y="541" type="curve"/>
      <point x="106" y="520"/>
      <point x="110" y="496"/>
      <point x="115" y="478" type="curve"/>
      <point x="187" y="489"/>
      <point x="222" y="445"/>
      <point x="222" y="389" type="curve" smooth="yes"/>
      <point x="222" y="345"/>
      <point x="205" y="331"/>
      <point x="185" y="331" type="curve" smooth="yes"/>
      <point x="160" y="331"/>
      <point x="135" y="358"/>
      <point x="135" y="421" type="curve"/>
      <point x="91" y="421"/>
      <point x="54" y="415"/>
      <point x="23" y="401" type="curve"/>
      <point x="29" y="306"/>
      <point x="96" y="267"/>
    </contour>
  </outline>
</glyph>
<glyph name="uni00B5" format="1">
  <advance width="520"/>
  <unicode hex="00B5"/>
  <outline>
    <contour>
      <point x="371" y="-12" type="curve" smooth="yes"/>
      <point x="413" y="-12"/>
      <point x="458" y="-5"/>
      <point x="482" y="6" type="curve"/>
      <point x="482" y="175"/>
      <point x="466" y="441"/>
      <point x="452" y="569" type="curve"/>
      <point x="411" y="569"/>
      <point x="355" y="562"/>
      <point x="327" y="553" type="curve"/>
      <point x="339" y="361"/>
      <point x="326" y="110"/>
      <point x="312" y="-6" type="curve"/>
      <point x="334" y="-11"/>
      <point x="353" y="-12"/>
    </contour>
    <contour>
      <point x="100" y="114" type="line"/>
      <point x="112" y="33"/>
      <point x="143" y="-2"/>
      <point x="198" y="-2" type="curve" smooth="yes"/>
      <point x="260" y="-2"/>
      <point x="313" y="55"/>
      <point x="356" y="161" type="curve"/>
      <point x="337" y="245" type="line"/>
      <point x="312" y="156"/>
      <point x="271" y="109"/>
      <point x="234" y="109" type="curve" smooth="yes"/>
      <point x="200" y="109"/>
      <point x="187" y="136"/>
      <point x="187" y="191" type="curve" smooth="yes"/>
      <point x="187" y="284"/>
      <point x="205" y="408"/>
      <point x="222" y="502" type="curve"/>
      <point x="174" y="511"/>
      <point x="123" y="518"/>
      <point x="79" y="519" type="curve"/>
      <point x="59" y="421"/>
      <point x="36" y="294"/>
      <point x="34" y="151" type="curve" smooth="yes"/>
      <point x="32" y="44"/>
      <point x="34" y="-56"/>
      <point x="43" y="-192" type="curve"/>
      <point x="63" y="-203"/>
      <point x="92" y="-210"/>
      <point x="126" y="-210" type="curve" smooth="yes"/>
      <point x="145" y="-210"/>
      <point x="159" y="-209"/>
      <point x="179" y="-204" type="curve"/>
      <point x="144" y="-96"/>
      <point x="121" y="71"/>
      <point x="121" y="206" type="curve"/>
    </contour>
  </outline>
</glyph>
<glyph name="paragraph" format="1">
  <advance width="706"/>
  <unicode hex="00B6"/>
  <outline>
    <contour>
      <point x="604" y="-287" type="curve"/>
      <point x="631" y="-12"/>
      <point x="644" y="441"/>
      <point x="640" y="695" type="curve"/>
      <point x="508" y="741"/>
      <point x="441" y="760"/>
      <point x="330" y="760" type="curve" smooth="yes"/>
      <point x="156" y="760"/>
      <point x="50" y="673"/>
      <point x="50" y="543" type="curve" smooth="yes"/>
      <point x="50" y="379"/>
      <point x="169" y="273"/>
      <point x="386" y="210" type="curve"/>
      <point x="386" y="92"/>
      <point x="368" y="-149"/>
      <point x="360" y="-296" type="curve"/>
      <point x="399" y="-297"/>
      <point x="428" y="-294"/>
      <point x="449" y="-287" type="curve"/>
      <point x="481" y="65"/>
      <point x="496" y="352"/>
      <point x="492" y="639" type="curve"/>
      <point x="509" y="636"/>
      <point x="527" y="631"/>
      <point x="544" y="626" type="curve"/>
      <point x="554" y="232"/>
      <point x="535" y="20"/>
      <point x="514" y="-300" type="curve"/>
      <point x="554" y="-300"/>
      <point x="585" y="-292"/>
    </contour>
  </outline>
</glyph>
<glyph name="cedilla" format="1">
  <advance width="261"/>
  <unicode hex="00B8"/>
  <outline>
    <contour>
      <point x="121" y="-228" type="curve" smooth="yes"/>
      <point x="198" y="-228"/>
      <point x="247" y="-186"/>
      <point x="247" y="-126" type="curve" smooth="yes"/>
      <point x="247" y="-78"/>
      <point x="211" y="-46"/>
      <point x="159" y="-46" type="curve" smooth="yes"/>
      <point x="132" y="-46"/>
      <point x="112" y="-53"/>
      <point x="88" y="-66" type="curve"/>
      <point x="115" y="-85" type="line"/>
      <point x="133" y="-52"/>
      <point x="141" y="-24"/>
      <point x="143" y="0" type="curve"/>
      <point x="90" y="12" type="line"/>
      <point x="89" y="-19"/>
      <point x="78" y="-57"/>
      <point x="61" y="-85" type="curve"/>
      <point x="66" y="-93"/>
      <point x="76" y="-102"/>
      <point x="85" y="-109" type="curve"/>
      <point x="97" y="-103"/>
      <point x="108" y="-100"/>
      <point x="120" y="-100" type="curve" smooth="yes"/>
      <point x="142" y="-100"/>
      <point x="157" y="-114"/>
      <point x="157" y="-135" type="curve" smooth="yes"/>
      <point x="157" y="-158"/>
      <point x="142" y="-172"/>
      <point x="119" y="-172" type="curve" smooth="yes"/>
      <point x="94" y="-172"/>
      <point x="75" y="-153"/>
      <point x="66" y="-126" type="curve"/>
      <point x="48" y="-134"/>
      <point x="32" y="-142"/>
      <point x="10" y="-156" type="curve"/>
      <point x="28" y="-205"/>
      <point x="71" y="-228"/>
    </contour>
    <contour>
      <point x="114" y="0" type="move" name="_bottom"/>
    </contour>
  </outline>
</glyph>
<glyph name="ordmasculine" format="1">
  <advance width="314"/>
  <unicode hex="00BA"/>
  <outline>
    <contour>
      <point x="182" y="716" type="curve" smooth="yes"/>
      <point x="81" y="716"/>
      <point x="14" y="640"/>
      <point x="14" y="538" type="curve" smooth="yes"/>
      <point x="14" y="469"/>
      <point x="46" y="402"/>
      <point x="131" y="402" type="curve" smooth="yes"/>
      <point x="261" y="402"/>
      <point x="300" y="526"/>
      <point x="300" y="598" type="curve" smooth="yes"/>
      <point x="300" y="675"/>
      <point x="257" y="716"/>
    </contour>
    <contour>
      <point x="158" y="653" type="curve" smooth="yes"/>
      <point x="177" y="653"/>
      <point x="187" y="629"/>
      <point x="187" y="567" type="curve" smooth="yes"/>
      <point x="187" y="525"/>
      <point x="180" y="465"/>
      <point x="156" y="465" type="curve" smooth="yes"/>
      <point x="134" y="465"/>
      <point x="125" y="514"/>
      <point x="125" y="553" type="curve" smooth="yes"/>
      <point x="125" y="613"/>
      <point x="138" y="653"/>
    </contour>
  </outline>
</glyph>
<glyph name="guillemotright" format="1">
  <advance width="549"/>
  <unicode hex="00BB"/>
  <outline>
    <contour>
      <point x="104" y="40" type="curve"/>
      <point x="184" y="105"/>
      <point x="249" y="175"/>
      <point x="294" y="265" type="curve"/>
      <point x="208" y="305" type="line"/>
      <point x="160" y="236"/>
      <point x="106" y="179"/>
      <point x="16" y="120" type="curve"/>
      <point x="40" y="80"/>
      <point x="65" y="57"/>
    </contour>
    <contour>
      <point x="15" y="402" type="curve"/>
      <point x="80" y="326"/>
      <point x="140" y="270"/>
      <point x="232" y="218" type="curve"/>
      <point x="294" y="265" type="line"/>
      <point x="220" y="324"/>
      <point x="165" y="388"/>
      <point x="110" y="477" type="curve"/>
      <point x="74" y="459"/>
      <point x="34" y="431"/>
    </contour>
    <contour>
      <point x="351" y="40" type="curve"/>
      <point x="431" y="105"/>
      <point x="496" y="175"/>
      <point x="541" y="265" type="curve"/>
      <point x="455" y="305" type="line"/>
      <point x="407" y="236"/>
      <point x="353" y="179"/>
      <point x="263" y="120" type="curve"/>
      <point x="287" y="80"/>
      <point x="312" y="57"/>
    </contour>
    <contour>
      <point x="262" y="402" type="curve"/>
      <point x="327" y="326"/>
      <point x="387" y="270"/>
      <point x="479" y="218" type="curve"/>
      <point x="541" y="265" type="line"/>
      <point x="467" y="324"/>
      <point x="412" y="388"/>
      <point x="357" y="477" type="curve"/>
      <point x="321" y="459"/>
      <point x="281" y="431"/>
    </contour>
  </outline>
</glyph>
<glyph name="questiondown" format="1">
  <advance width="453"/>
  <unicode hex="00BF"/>
  <outline>
    <contour>
      <point x="240" y="184" type="line"/>
      <point x="107" y="164"/>
      <point x="26" y="88"/>
      <point x="26" y="-19" type="curve" smooth="yes"/>
      <point x="26" y="-132"/>
      <point x="122" y="-211"/>
      <point x="243" y="-211" type="curve" smooth="yes"/>
      <point x="389" y="-211"/>
      <point x="460" y="-128"/>
      <point x="468" y="5" type="curve"/>
      <point x="429" y="23"/>
      <point x="384" y="30"/>
      <point x="331" y="30" type="curve"/>
      <point x="331" y="-70"/>
      <point x="297" y="-128"/>
      <point x="249" y="-128" type="curve" smooth="yes"/>
      <point x="202" y="-128"/>
      <point x="181" y="-80"/>
      <point x="181" y="-19" type="curve" smooth="yes"/>
      <point x="181" y="66"/>
      <point x="230" y="130"/>
      <point x="334" y="151" type="curve"/>
    </contour>
    <contour>
      <point x="334" y="151" type="line"/>
      <point x="332" y="205"/>
      <point x="323" y="270"/>
      <point x="314" y="326" type="curve"/>
      <point x="277" y="327"/>
      <point x="233" y="323"/>
      <point x="206" y="316" type="curve"/>
      <point x="205" y="250"/>
      <point x="205" y="186"/>
      <point x="203" y="137" type="curve"/>
    </contour>
    <contour>
      <point x="177" y="559" type="curve"/>
      <point x="182" y="513"/>
      <point x="185" y="476"/>
      <point x="189" y="428" type="curve"/>
      <point x="235" y="427"/>
      <point x="268" y="426"/>
      <point x="321" y="426" type="curve"/>
      <point x="323" y="466"/>
      <point x="323" y="506"/>
      <point x="319" y="554" type="curve"/>
      <point x="301" y="562"/>
      <point x="276" y="567"/>
      <point x="246" y="567" type="curve" smooth="yes"/>
      <point x="222" y="566"/>
      <point x="203" y="565"/>
    </contour>
  </outline>
</glyph>
<glyph name="Eth" format="1">
  <advance width="609"/>
  <unicode hex="00D0"/>
  <outline>
    <contour>
      <point x="206" y="-10" type="curve"/>
      <point x="203" y="60"/>
      <point x="200" y="126"/>
      <point x="200" y="206" type="curve" smooth="yes"/>
      <point x="200" y="360"/>
      <point x="204" y="490"/>
      <point x="218" y="658" type="curve"/>
      <point x="180" y="669"/>
      <point x="106" y="673"/>
      <point x="56" y="665" type="curve"/>
      <point x="54" y="614"/>
      <point x="53" y="558"/>
      <point x="53" y="508" type="curve" smooth="yes"/>
      <point x="53" y="353"/>
      <point x="62" y="183"/>
      <point x="78" y="0" type="curve"/>
      <point x="111" y="-5"/>
      <point x="172" y="-10"/>
    </contour>
    <contour>
      <point x="581" y="442" type="curve" smooth="yes"/>
      <point x="581" y="611"/>
      <point x="485" y="717"/>
      <point x="271" y="717" type="curve" smooth="yes"/>
      <point x="195" y="717"/>
      <point x="128" y="699"/>
      <point x="56" y="665" type="curve"/>
      <point x="60" y="635"/>
      <point x="80" y="591"/>
      <point x="100" y="561" type="curve"/>
      <point x="151" y="594"/>
      <point x="207" y="623"/>
      <point x="260" y="623" type="curve" smooth="yes"/>
      <point x="368" y="623"/>
      <point x="426" y="552"/>
      <point x="426" y="442" type="curve" smooth="yes"/>
      <point x="426" y="272"/>
      <point x="334" y="132"/>
      <point x="135" y="76" type="curve"/>
      <point x="206" y="-10" type="line"/>
      <point x="428" y="57"/>
      <point x="581" y="254"/>
    </contour>
    <contour>
      <point x="-20" y="413" type="curve"/>
      <point x="-24" y="395"/>
      <point x="-24" y="358"/>
      <point x="-22" y="334" type="curve"/>
      <point x="75" y="326"/>
      <point x="194" y="325"/>
      <point x="309" y="344" type="curve"/>
      <point x="312" y="371"/>
      <point x="311" y="398"/>
      <point x="310" y="421" type="curve"/>
      <point x="204" y="408"/>
      <point x="98" y="406"/>
    </contour>
  </outline>
</glyph>
<glyph name="multiply" format="1">
  <advance width="445"/>
  <unicode hex="00D7"/>
  <outline>
    <contour>
      <point x="334" y="506" type="curve"/>
      <point x="243" y="404"/>
      <point x="149" y="306"/>
      <point x="52" y="221" type="curve"/>
      <point x="72" y="194"/>
      <point x="90" y="174"/>
      <point x="114" y="152" type="curve"/>
      <point x="207" y="232"/>
      <point x="315" y="341"/>
      <point x="392" y="432" type="curve"/>
      <point x="377" y="459"/>
      <point x="358" y="483"/>
    </contour>
    <contour>
      <point x="331" y="151" type="curve"/>
      <point x="356" y="172"/>
      <point x="377" y="193"/>
      <point x="396" y="217" type="curve"/>
      <point x="321" y="318"/>
      <point x="206" y="432"/>
      <point x="115" y="499" type="curve"/>
      <point x="92" y="477"/>
      <point x="73" y="457"/>
      <point x="52" y="431" type="curve"/>
      <point x="162" y="344"/>
      <point x="249" y="254"/>
    </contour>
  </outline>
</glyph>
<glyph name="germandbls" format="1">
  <advance width="682"/>
  <unicode hex="00DF"/>
  <outline>
    <contour>
      <point x="138" y="376" type="line"/>
      <point x="80" y="383"/>
      <point x="36" y="393"/>
      <point x="15" y="402" type="curve"/>
      <point x="15" y="420"/>
      <point x="23" y="464"/>
      <point x="31" y="473" type="curve"/>
      <point x="56" y="469"/>
      <point x="95" y="466"/>
      <point x="138" y="463" type="curve"/>
    </contour>
    <contour>
      <point x="416" y="422" type="curve" smooth="yes"/>
      <point x="416" y="303"/>
      <point x="658" y="296"/>
      <point x="658" y="133" type="curve" smooth="yes"/>
      <point x="658" y="29"/>
      <point x="592" y="-43"/>
      <point x="477" y="-43" type="curve" smooth="yes"/>
      <point x="375" y="-43"/>
      <point x="301" y="27"/>
      <point x="296" y="136" type="curve"/>
      <point x="324" y="149"/>
      <point x="370" y="156"/>
      <point x="398" y="155" type="curve"/>
      <point x="397" y="84"/>
      <point x="423" y="39"/>
      <point x="472" y="39" type="curve" smooth="yes"/>
      <point x="508" y="39"/>
      <point x="527" y="64"/>
      <point x="527" y="102" type="curve" smooth="yes"/>
      <point x="527" y="211"/>
      <point x="304" y="198"/>
      <point x="304" y="358" type="curve" smooth="yes"/>
      <point x="304" y="408"/>
      <point x="322" y="444"/>
      <point x="354" y="481" type="curve" smooth="yes"/>
      <point x="386" y="518"/>
      <point x="394" y="539"/>
      <point x="394" y="573" type="curve" smooth="yes"/>
      <point x="394" y="608"/>
      <point x="367" y="639"/>
      <point x="328" y="639" type="curve" smooth="yes"/>
      <point x="267" y="639"/>
      <point x="220" y="588"/>
      <point x="220" y="448" type="curve" smooth="yes"/>
      <point x="220" y="279"/>
      <point x="259" y="74"/>
      <point x="277" y="4" type="curve"/>
      <point x="238" y="-10"/>
      <point x="174" y="-21"/>
      <point x="122" y="-21" type="curve"/>
      <point x="109" y="38"/>
      <point x="83" y="236"/>
      <point x="83" y="394" type="curve" smooth="yes"/>
      <point x="83" y="628"/>
      <point x="187" y="727"/>
      <point x="323" y="727" type="curve" smooth="yes"/>
      <point x="420" y="727"/>
      <point x="483" y="662"/>
      <point x="483" y="594" type="curve" smooth="yes"/>
      <point x="483" y="560"/>
      <point x="471" y="535"/>
      <point x="451" y="510" type="curve" smooth="yes"/>
      <point x="428" y="479"/>
      <point x="416" y="458"/>
    </contour>
  </outline>
</glyph>
<glyph name="ae" format="1">
  <advance width="782"/>
  <unicode hex="00E6"/>
  <outline>
    <contour>
      <point x="273" y="529" type="curve" smooth="yes"/>
      <point x="163" y="529"/>
      <point x="72" y="463"/>
      <point x="52" y="390" type="curve"/>
      <point x="70" y="347"/>
      <point x="112" y="321"/>
      <point x="179" y="319" type="curve"/>
      <point x="181" y="397"/>
      <point x="217" y="446"/>
      <point x="259" y="446" type="curve" smooth="yes"/>
      <point x="303" y="446"/>
      <point x="320" y="403"/>
      <point x="322" y="315" type="curve" smooth="yes"/>
      <point x="322" y="295"/>
      <point x="323" y="271"/>
      <point x="322" y="240" type="curve"/>
      <point x="431" y="273"/>
      <point x="435" y="273"/>
      <point x="439" y="288" type="curve"/>
      <point x="442" y="356" type="line"/>
      <point x="432" y="439"/>
      <point x="389" y="529"/>
    </contour>
    <contour>
      <point x="415" y="248" type="line"/>
      <point x="461" y="228"/>
      <point x="512" y="220"/>
      <point x="557" y="220" type="curve" smooth="yes"/>
      <point x="619" y="220"/>
      <point x="674" y="225"/>
      <point x="715" y="243" type="curve"/>
      <point x="728" y="279"/>
      <point x="738" y="333"/>
      <point x="738" y="379" type="curve" smooth="yes"/>
      <point x="738" y="466"/>
      <point x="677" y="528"/>
      <point x="584" y="528" type="curve" smooth="yes"/>
      <point x="434" y="528"/>
      <point x="317" y="357"/>
      <point x="317" y="193" type="curve" smooth="yes"/>
      <point x="317" y="67"/>
      <point x="392" y="-39"/>
      <point x="514" y="-39" type="curve" smooth="yes"/>
      <point x="652" y="-39"/>
      <point x="730" y="55"/>
      <point x="745" y="103" type="curve"/>
      <point x="719" y="130"/>
      <point x="675" y="153"/>
      <point x="637" y="160" type="curve"/>
      <point x="622" y="110"/>
      <point x="578" y="48"/>
      <point x="538" y="48" type="curve" smooth="yes"/>
      <point x="485" y="48"/>
      <point x="460" y="111"/>
      <point x="460" y="193" type="curve" smooth="yes"/>
      <point x="460" y="308"/>
      <point x="506" y="447"/>
      <point x="567" y="447" type="curve" smooth="yes"/>
      <point x="597" y="447"/>
      <point x="605" y="424"/>
      <point x="605" y="389" type="curve" smooth="yes"/>
      <point x="605" y="359"/>
      <point x="598" y="327"/>
      <point x="591" y="300" type="curve"/>
      <point x="585" y="299"/>
      <point x="565" y="297"/>
      <point x="554" y="297" type="curve" smooth="yes"/>
      <point x="523" y="297"/>
      <point x="469" y="305"/>
      <point x="420" y="331" type="curve"/>
    </contour>
    <contour>
      <point x="339" y="262" type="line"/>
      <point x="319" y="264"/>
      <point x="300" y="265"/>
      <point x="250" y="265" type="curve" smooth="yes"/>
      <point x="91" y="265"/>
      <point x="25" y="210"/>
      <point x="25" y="125" type="curve" smooth="yes"/>
      <point x="25" y="38"/>
      <point x="90" y="-18"/>
      <point x="192" y="-18" type="curve" smooth="yes"/>
      <point x="256" y="-18"/>
      <point x="317" y="1"/>
      <point x="380" y="68" type="curve"/>
      <point x="383" y="137" type="line"/>
      <point x="340" y="85"/>
      <point x="278" y="56"/>
      <point x="235" y="56" type="curve" smooth="yes"/>
      <point x="195" y="56"/>
      <point x="175" y="79"/>
      <point x="175" y="116" type="curve" smooth="yes"/>
      <point x="175" y="167"/>
      <point x="215" y="203"/>
      <point x="339" y="197" type="curve"/>
    </contour>
  </outline>
</glyph>
<glyph name="eth" format="1">
  <advance width="542"/>
  <unicode hex="00F0"/>
  <outline>
    <contour>
      <point x="348" y="433" type="curve"/>
      <point x="358" y="516" type="line"/>
      <point x="347" y="523"/>
      <point x="309" y="531"/>
      <point x="281" y="531" type="curve" smooth="yes"/>
      <point x="127" y="531"/>
      <point x="31" y="408"/>
      <point x="31" y="223" type="curve" smooth="yes"/>
      <point x="31" y="84"/>
      <point x="84" y="-30"/>
      <point x="208" y="-30" type="curve" smooth="yes"/>
      <point x="293" y="-30"/>
      <point x="353" y="31"/>
      <point x="375" y="234" type="curve"/>
      <point x="335" y="275" type="line"/>
      <point x="324" y="121"/>
      <point x="284" y="75"/>
      <point x="249" y="75" type="curve" smooth="yes"/>
      <point x="205" y="75"/>
      <point x="177" y="130"/>
      <point x="177" y="241" type="curve" smooth="yes"/>
      <point x="177" y="386"/>
      <point x="233" y="444"/>
      <point x="291" y="444" type="curve" smooth="yes"/>
      <point x="318" y="444"/>
      <point x="333" y="439"/>
    </contour>
    <contour>
      <point x="313" y="477"/>
      <point x="328" y="128"/>
      <point x="356" y="-42" type="curve"/>
      <point x="394" y="-42"/>
      <point x="444" y="-34"/>
      <point x="470" y="-26" type="curve"/>
      <point x="468" y="20"/>
      <point x="467" y="56"/>
      <point x="467" y="108" type="curve" smooth="yes"/>
      <point x="467" y="306"/>
      <point x="468" y="594"/>
      <point x="483" y="720" type="curve"/>
      <point x="461" y="725"/>
      <point x="441" y="727"/>
      <point x="423" y="727" type="curve" smooth="yes"/>
      <point x="382" y="727"/>
      <point x="337" y="719"/>
      <point x="313" y="707" type="curve"/>
    </contour>
    <contour>
      <point x="202" y="633"/>
      <point x="202" y="596"/>
      <point x="204" y="573" type="curve"/>
      <point x="301" y="564"/>
      <point x="450" y="563"/>
      <point x="565" y="583" type="curve"/>
      <point x="568" y="609"/>
      <point x="567" y="637"/>
      <point x="566" y="660" type="curve"/>
      <point x="461" y="647"/>
      <point x="324" y="645"/>
      <point x="206" y="652" type="curve"/>
    </contour>
  </outline>
</glyph>
<glyph name="thorn" format="1">
  <advance width="518"/>
  <unicode hex="00FE"/>
  <outline>
    <contour>
      <point x="163" y="140" type="curve"/>
      <point x="79" y="57" type="line"/>
      <point x="113" y="36"/>
      <point x="157" y="10"/>
      <point x="237" y="10" type="curve" smooth="yes"/>
      <point x="374" y="10"/>
      <point x="491" y="149"/>
      <point x="491" y="370" type="curve" smooth="yes"/>
      <point x="491" y="490"/>
      <point x="438" y="566"/>
      <point x="351" y="566" type="curve" smooth="yes"/>
      <point x="250" y="566"/>
      <point x="184" y="468"/>
      <point x="153" y="344" type="curve"/>
      <point x="190" y="316" type="line"/>
      <point x="210" y="419"/>
      <point x="248" y="454"/>
      <point x="286" y="454" type="curve" smooth="yes"/>
      <point x="321" y="454"/>
      <point x="341" y="420"/>
      <point x="341" y="355" type="curve" smooth="yes"/>
      <point x="341" y="196"/>
      <point x="289" y="95"/>
      <point x="235" y="95" type="curve" smooth="yes"/>
      <point x="206" y="95"/>
      <point x="182" y="114"/>
    </contour>
    <contour>
      <point x="91" y="-229" type="curve"/>
      <point x="134" y="-229"/>
      <point x="189" y="-220"/>
      <point x="216" y="-210" type="curve"/>
      <point x="193" y="44"/>
      <point x="189" y="508"/>
      <point x="229" y="737" type="curve"/>
      <point x="205" y="745"/>
      <point x="184" y="748"/>
      <point x="158" y="748" type="curve" smooth="yes"/>
      <point x="117" y="748"/>
      <point x="83" y="733"/>
      <point x="60" y="717" type="curve"/>
      <point x="39" y="412"/>
      <point x="63" y="34"/>
    </contour>
  </outline>
</glyph>
<glyph name="eogonek" format="1">
  <advance width="499"/>
  <unicode hex="0119"/>
  <outline>
    <contour>
      <point x="385" y="8" type="curve" smooth="yes"/>
      <point x="346" y="-18"/>
      <point x="325" y="-59"/>
      <point x="325" y="-92" type="curve" smooth="yes"/>
      <point x="325" y="-114"/>
      <point x="337" y="-130"/>
      <point x="355" y="-130" type="curve" smooth="yes"/>
      <point x="377" y="-130"/>
      <point x="395" y="-118"/>
      <point x="412" y="-89" type="curve"/>
      <point x="427" y="-100"/>
      <point x="437" y="-119"/>
      <point x="445" y="-138" type="curve"/>
      <point x="419" y="-175"/>
      <point x="381" y="-197"/>
      <point x="332" y="-197" type="curve" smooth="yes"/>
      <point x="275" y="-197"/>
      <point x="235" y="-167"/>
      <point x="235" y="-118" type="curve" smooth="yes"/>
      <point x="235" y="-65"/>
      <point x="270" y="-26"/>
      <point x="336" y="15" type="curve"/>
      <point x="323" y="-24" type="line"/>
      <point x="297" y="-34"/>
      <point x="266" y="-39"/>
      <point x="231" y="-39" type="curve" smooth="yes"/>
      <point x="92" y="-39"/>
      <point x="30" y="63"/>
      <point x="30" y="188" type="curve" smooth="yes"/>
      <point x="30" y="360"/>
      <point x="149" y="528"/>
      <point x="295" y="528" type="curve" smooth="yes"/>
      <point x="397" y="528"/>
      <point x="456" y="466"/>
      <point x="456" y="379" type="curve" smooth="yes"/>
      <point x="456" y="333"/>
      <point x="445" y="279"/>
      <point x="432" y="243" type="curve"/>
      <point x="392" y="225"/>
      <point x="337" y="220"/>
      <point x="274" y="220" type="curve" smooth="yes"/>
      <point x="229" y="220"/>
      <point x="179" y="228"/>
      <point x="132" y="248" type="curve"/>
      <point x="138" y="331" type="line"/>
      <point x="187" y="305"/>
      <point x="240" y="297"/>
      <point x="271" y="297" type="curve" smooth="yes"/>
      <point x="283" y="297"/>
      <point x="302" y="299"/>
      <point x="308" y="300" type="curve"/>
      <point x="315" y="327"/>
      <point x="322" y="359"/>
      <point x="322" y="389" type="curve" smooth="yes"/>
      <point x="322" y="424"/>
      <point x="314" y="447"/>
      <point x="284" y="447" type="curve" smooth="yes"/>
      <point x="223" y="447"/>
      <point x="178" y="308"/>
      <point x="178" y="193" type="curve" smooth="yes"/>
      <point x="178" y="111"/>
      <point x="202" y="48"/>
      <point x="255" y="48" type="curve" smooth="yes"/>
      <point x="296" y="48"/>
      <point x="340" y="110"/>
      <point x="354" y="160" type="curve"/>
      <point x="392" y="153"/>
      <point x="436" y="130"/>
      <point x="463" y="103" type="curve"/>
      <point x="445" y="60"/>
      <point x="424" y="34"/>
    </contour>
  </outline>
</glyph>
<glyph name="Iogonek" format="1">
  <advance width="292"/>
  <unicode hex="012E"/>
  <outline>
    <contour>
      <point x="209" y="-15" type="curve"/>
      <point x="220" y="160"/>
      <point x="225" y="346"/>
      <point x="225" y="510" type="curve" smooth="yes"/>
      <point x="225" y="572"/>
      <point x="224" y="626"/>
      <point x="221" y="677" type="curve"/>
      <point x="196" y="683"/>
      <point x="177" y="685"/>
      <point x="151" y="685" type="curve" smooth="yes"/>
      <point x="110" y="685"/>
      <point x="78" y="674"/>
      <point x="56" y="660" type="curve"/>
      <point x="79" y="442"/>
      <point x="85" y="194"/>
      <point x="84" y="-30" type="curve"/>
      <point x="128" y="-30"/>
      <point x="183" y="-23"/>
    </contour>
    <contour>
      <point x="190" y="-19" type="curve"/>
      <point x="153" y="-3" type="line"/>
      <point x="77" y="-47"/>
      <point x="35" y="-91"/>
      <point x="35" y="-151" type="curve" smooth="yes"/>
      <point x="35" y="-198"/>
      <point x="74" y="-228"/>
      <point x="131" y="-228" type="curve" smooth="yes"/>
      <point x="183" y="-228"/>
      <point x="219" y="-205"/>
      <point x="245" y="-169" type="curve"/>
      <point x="237" y="-150"/>
      <point x="227" y="-130"/>
      <point x="212" y="-119" type="curve"/>
      <point x="195" y="-148"/>
      <point x="177" y="-160"/>
      <point x="155" y="-160" type="curve" smooth="yes"/>
      <point x="136" y="-160"/>
      <point x="125" y="-146"/>
      <point x="125" y="-125" type="curve" smooth="yes"/>
      <point x="125" y="-90"/>
      <point x="147" y="-52"/>
    </contour>
  </outline>
</glyph>
<glyph name="lslash" format="1">
  <advance width="269"/>
  <unicode hex="0142"/>
  <outline>
    <contour>
      <point x="54" y="717" type="curve"/>
      <point x="48" y="464"/>
      <point x="60" y="174"/>
      <point x="79" y="-61" type="curve"/>
      <point x="120" y="-61"/>
      <point x="182" y="-54"/>
      <point x="207" y="-46" type="curve"/>
      <point x="201" y="172"/>
      <point x="204" y="541"/>
      <point x="223" y="732" type="curve"/>
      <point x="197" y="739"/>
      <point x="174" y="742"/>
      <point x="149" y="742" type="curve" smooth="yes"/>
      <point x="109" y="742"/>
      <point x="74" y="730"/>
    </contour>
    <contour>
      <point x="-17" y="136" type="curve"/>
      <point x="114" y="222"/>
      <point x="235" y="309"/>
      <point x="354" y="403" type="curve"/>
      <point x="341" y="439"/>
      <point x="319" y="474"/>
      <point x="295" y="493" type="curve"/>
      <point x="174" y="394"/>
      <point x="55" y="307"/>
      <point x="-73" y="219" type="curve"/>
      <point x="-59" y="183"/>
      <point x="-45" y="161"/>
    </contour>
  </outline>
</glyph>
<glyph name="OE" format="1">
  <advance width="922"/>
  <unicode hex="0152"/>
  <outline>
    <contour>
      <point x="577" y="419" type="curve" smooth="yes"/>
      <point x="576" y="616"/>
      <point x="493" y="734"/>
      <point x="342" y="734" type="curve" smooth="yes"/>
      <point x="151" y="734"/>
      <point x="36" y="561"/>
      <point x="36" y="331" type="curve" smooth="yes"/>
      <point x="36" y="144"/>
      <point x="113" y="-18"/>
      <point x="280" y="-18" type="curve" smooth="yes"/>
      <point x="509" y="-18"/>
      <point x="578" y="242"/>
    </contour>
    <contour>
      <point x="422" y="378" type="curve" smooth="yes"/>
      <point x="423" y="233"/>
      <point x="401" y="82"/>
      <point x="309" y="82" type="curve" smooth="yes"/>
      <point x="219" y="82"/>
      <point x="190" y="230"/>
      <point x="190" y="352" type="curve" smooth="yes"/>
      <point x="190" y="520"/>
      <point x="231" y="633"/>
      <point x="311" y="633" type="curve" smooth="yes"/>
      <point x="387" y="633"/>
      <point x="421" y="554"/>
    </contour>
    <contour>
      <point x="889" y="1" type="curve"/>
      <point x="890" y="37"/>
      <point x="884" y="94"/>
      <point x="876" y="119" type="curve"/>
      <point x="800" y="104"/>
      <point x="669" y="89"/>
      <point x="605" y="87" type="curve"/>
      <point x="593" y="182"/>
      <point x="587" y="267"/>
      <point x="584" y="352" type="curve" smooth="yes"/>
      <point x="579" y="484"/>
      <point x="583" y="596"/>
      <point x="591" y="675" type="curve"/>
      <point x="412" y="682" type="line"/>
      <point x="415" y="479"/>
      <point x="448" y="181"/>
      <point x="480" y="-29" type="curve"/>
      <point x="615" y="-28"/>
      <point x="817" y="-12"/>
    </contour>
    <contour>
      <point x="821" y="320" type="curve"/>
      <point x="821" y="367"/>
      <point x="818" y="403"/>
      <point x="809" y="439" type="curve"/>
      <point x="713" y="436"/>
      <point x="633" y="421"/>
      <point x="546" y="398" type="curve"/>
      <point x="553" y="296" type="line"/>
      <point x="642" y="310"/>
      <point x="722" y="317"/>
    </contour>
    <contour>
      <point x="851" y="608" type="curve"/>
      <point x="858" y="641"/>
      <point x="865" y="686"/>
      <point x="865" y="732" type="curve"/>
      <point x="696" y="731"/>
      <point x="562" y="710"/>
      <point x="412" y="682" type="curve"/>
      <point x="439" y="576" type="line"/>
      <point x="571" y="597"/>
      <point x="708" y="608"/>
    </contour>
  </outline>
</glyph>
<glyph name="circumflex" format="1">
  <advance width="260"/>
  <unicode hex="02C6"/>
  <outline>
    <contour>
      <point x="265" y="623" type="curve"/>
      <point x="252" y="606"/>
      <point x="233" y="586"/>
      <point x="200" y="574" type="curve"/>
      <point x="152" y="617"/>
      <point x="133" y="640"/>
      <point x="100" y="691" type="curve"/>
      <point x="146" y="692" type="line"/>
      <point x="120" y="647"/>
      <point x="96" y="615"/>
      <point x="47" y="572" type="curve"/>
      <point x="14" y="585"/>
      <point x="-6" y="606"/>
      <point x="-16" y="619" type="curve"/>
      <point x="32" y="663"/>
      <point x="58" y="697"/>
      <point x="80" y="741" type="curve"/>
      <point x="92" y="744"/>
      <point x="106" y="745"/>
      <point x="119" y="745" type="curve" smooth="yes"/>
      <point x="134" y="745"/>
      <point x="150" y="744"/>
      <point x="167" y="741" type="curve"/>
      <point x="189" y="696"/>
      <point x="223" y="660"/>
    </contour>
    <contour>
      <point x="131" y="560" type="move" name="_top"/>
    </contour>
  </outline>
</glyph>
<glyph name="dotaccent" format="1">
  <advance width="261"/>
  <unicode hex="02D9"/>
  <outline>
    <contour>
      <point x="194" y="651"/>
      <point x="210" y="707"/>
      <point x="223" y="735" type="curve"/>
      <point x="205" y="744"/>
      <point x="180" y="751"/>
      <point x="146" y="751" type="curve" smooth="yes"/>
      <point x="111" y="752"/>
      <point x="85" y="746"/>
      <point x="61" y="734" type="curve"/>
      <point x="53" y="714"/>
      <point x="50" y="688"/>
      <point x="50" y="669" type="curve" smooth="yes"/>
      <point x="50" y="645"/>
      <point x="54" y="624"/>
      <point x="60" y="605" type="curve"/>
      <point x="116" y="604"/>
      <point x="156" y="606"/>
      <point x="186" y="611" type="curve"/>
    </contour>
    <contour>
      <point x="130" y="560" type="move" name="_top"/>
    </contour>
  </outline>
</glyph>
<glyph name="ring" format="1">
  <advance width="260"/>
  <unicode hex="02DA"/>
  <outline>
    <contour>
      <point x="143" y="768" type="curve" smooth="yes"/>
      <point x="75" y="768"/>
      <point x="25" y="728"/>
      <point x="25" y="663" type="curve" smooth="yes"/>
      <point x="25" y="612"/>
      <point x="59" y="574"/>
      <point x="116" y="574" type="curve" smooth="yes"/>
      <point x="191" y="574"/>
      <point x="233" y="624"/>
      <point x="233" y="688" type="curve" smooth="yes"/>
      <point x="233" y="739"/>
      <point x="198" y="768"/>
    </contour>
    <contour>
      <point x="131" y="726" type="curve" smooth="yes"/>
      <point x="146" y="726"/>
      <point x="157" y="714"/>
      <point x="157" y="677" type="curve" smooth="yes"/>
      <point x="157" y="645"/>
      <point x="147" y="619"/>
      <point x="127" y="619" type="curve" smooth="yes"/>
      <point x="111" y="619"/>
      <point x="99" y="636"/>
      <point x="99" y="666" type="curve" smooth="yes"/>
      <point x="99" y="704"/>
      <point x="113" y="726"/>
    </contour>
    <contour>
      <point x="130" y="560" type="move" name="_top"/>
    </contour>
  </outline>
</glyph>
<glyph name="ogonek" format="1">
  <advance width="261"/>
  <unicode hex="02DB"/>
  <outline>
    <contour>
      <point x="177" y="-7" type="curve"/>
      <point x="141" y="8" type="line"/>
      <point x="65" y="-36"/>
      <point x="23" y="-80"/>
      <point x="23" y="-139" type="curve" smooth="yes"/>
      <point x="23" y="-187"/>
      <point x="61" y="-217"/>
      <point x="119" y="-217" type="curve" smooth="yes"/>
      <point x="170" y="-217"/>
      <point x="207" y="-194"/>
      <point x="233" y="-157" type="curve"/>
      <point x="225" y="-138"/>
      <point x="214" y="-119"/>
      <point x="200" y="-107" type="curve"/>
      <point x="182" y="-136"/>
      <point x="164" y="-148"/>
      <point x="143" y="-148" type="curve" smooth="yes"/>
      <point x="124" y="-148"/>
      <point x="113" y="-135"/>
      <point x="113" y="-113" type="curve" smooth="yes"/>
      <point x="113" y="-79"/>
      <point x="134" y="-40"/>
    </contour>
    <contour>
      <point x="144" y="0" type="move" name="_bottom"/>
    </contour>
  </outline>
</glyph>
<glyph name="bn_danda" format="1">
  <advance width="586"/>
  <unicode hex="0964"/>
  <outline>
    <contour>
      <point x="382" y="-103"/>
      <point x="433" y="-95"/>
      <point x="469" y="-81" type="curve"/>
      <point x="450" y="2"/>
      <point x="440" y="126"/>
      <point x="440" y="262" type="curve" smooth="yes"/>
      <point x="440" y="387"/>
      <point x="447" y="489"/>
      <point x="455" y="595" type="curve"/>
      <point x="356" y="582" type="line"/>
      <point x="335" y="389"/>
      <point x="334" y="260"/>
      <point x="334" y="58" type="curve" smooth="yes"/>
      <point x="334" y="0"/>
      <point x="341" y="-53"/>
      <point x="343" y="-103" type="curve"/>
    </contour>
  </outline>
</glyph>
<glyph name="bn_anusvar" format="1">
  <advance width="451"/>
  <unicode hex="0982"/>
  <outline>
    <contour>
      <point x="395" y="-41"/>
      <point x="422" y="-15"/>
      <point x="436" y="10" type="curve"/>
      <point x="363" y="146"/>
      <point x="205" y="270"/>
      <point x="67" y="321" type="curve"/>
      <point x="41" y="290"/>
      <point x="22" y="253"/>
      <point x="9" y="209" type="curve"/>
      <point x="135" y="176"/>
      <point x="280" y="80"/>
      <point x="362" y="-56" type="curve"/>
    </contour>
    <contour>
      <point x="306" y="323"/>
      <point x="381" y="396"/>
      <point x="382" y="486" type="curve" smooth="yes"/>
      <point x="383" y="569"/>
      <point x="320" y="630"/>
      <point x="234" y="630" type="curve" smooth="yes"/>
      <point x="141" y="630"/>
      <point x="68" y="558"/>
      <point x="67" y="466" type="curve" smooth="yes"/>
      <point x="66" y="384"/>
      <point x="129" y="323"/>
      <point x="213" y="323" type="curve" smooth="yes"/>
    </contour>
    <contour>
      <point x="192" y="405"/>
      <point x="150" y="442"/>
      <point x="150" y="493" type="curve" smooth="yes"/>
      <point x="150" y="527"/>
      <point x="173" y="549"/>
      <point x="209" y="549" type="curve" smooth="yes"/>
      <point x="258" y="549"/>
      <point x="299" y="512"/>
      <point x="299" y="461" type="curve" smooth="yes"/>
      <point x="299" y="427"/>
      <point x="275" y="405"/>
      <point x="240" y="405" type="curve" smooth="yes"/>
    </contour>
  </outline>
</glyph>
<glyph name="bn_bisarga" format="1">
  <advance width="434"/>
  <unicode hex="0983"/>
  <outline>
    <contour>
      <point x="304" y="323"/>
      <point x="379" y="396"/>
      <point x="380" y="486" type="curve" smooth="yes"/>
      <point x="381" y="569"/>
      <point x="318" y="630"/>
      <point x="232" y="630" type="curve" smooth="yes"/>
      <point x="139" y="630"/>
      <point x="66" y="558"/>
      <point x="65" y="466" type="curve" smooth="yes"/>
      <point x="64" y="384"/>
      <point x="128" y="323"/>
      <point x="211" y="323" type="curve" smooth="yes"/>
    </contour>
    <contour>
      <point x="302" y="-15"/>
      <point x="373" y="54"/>
      <point x="373" y="141" type="curve" smooth="yes"/>
      <point x="373" y="222"/>
      <point x="310" y="283"/>
      <point x="228" y="283" type="curve" smooth="yes"/>
      <point x="138" y="283"/>
      <point x="69" y="213"/>
      <point x="69" y="124" type="curve" smooth="yes"/>
      <point x="69" y="44"/>
      <point x="131" y="-15"/>
      <point x="213" y="-15" type="curve" smooth="yes"/>
    </contour>
    <contour>
      <point x="189" y="66"/>
      <point x="151" y="103"/>
      <point x="151" y="148" type="curve" smooth="yes"/>
      <point x="151" y="181"/>
      <point x="172" y="201"/>
      <point x="206" y="201" type="curve" smooth="yes"/>
      <point x="255" y="201"/>
      <point x="291" y="164"/>
      <point x="291" y="117" type="curve" smooth="yes"/>
      <point x="291" y="85"/>
      <point x="270" y="66"/>
      <point x="237" y="66" type="curve" smooth="yes"/>
    </contour>
    <contour>
      <point x="190" y="405"/>
      <point x="148" y="442"/>
      <point x="148" y="493" type="curve" smooth="yes"/>
      <point x="148" y="527"/>
      <point x="171" y="549"/>
      <point x="207" y="549" type="curve" smooth="yes"/>
      <point x="256" y="549"/>
      <point x="297" y="512"/>
      <point x="297" y="461" type="curve" smooth="yes"/>
      <point x="297" y="427"/>
      <point x="273" y="405"/>
      <point x="238" y="405" type="curve" smooth="yes"/>
    </contour>
  </outline>
</glyph>
<glyph name="bn_aa" format="1">
  <advance width="966"/>
  <unicode hex="0986"/>
  <outline>
    <contour>
      <point x="861" y="520" type="line"/>
      <point x="805" y="621"/>
      <point x="586" y="658"/>
      <point x="400" y="658" type="curve" smooth="yes"/>
      <point x="241" y="658"/>
      <point x="95" y="641"/>
      <point x="0" y="618" type="curve"/>
      <point x="-12" y="596"/>
      <point x="-8" y="542"/>
      <point x="0" y="514" type="curve"/>
      <point x="98" y="534"/>
      <point x="240" y="551"/>
      <point x="396" y="551" type="curve" smooth="yes"/>
      <point x="578" y="551"/>
      <point x="786" y="534"/>
      <point x="786" y="414" type="curve"/>
    </contour>
    <contour>
      <point x="783" y="-49"/>
      <point x="845" y="-48"/>
      <point x="889" y="-41" type="curve"/>
      <point x="875" y="114"/>
      <point x="874" y="298"/>
      <point x="899" y="495" type="curve"/>
      <point x="817" y="484" type="line"/>
      <point x="788" y="480" type="line"/>
      <point x="761" y="253"/>
      <point x="758" y="95"/>
      <point x="754" y="-46" type="curve"/>
    </contour>
    <contour>
      <point x="895" y="479"/>
      <point x="920" y="504"/>
      <point x="966" y="514" type="curve"/>
      <point x="975" y="544"/>
      <point x="978" y="598"/>
      <point x="966" y="618" type="curve"/>
      <point x="892" y="603"/>
      <point x="822" y="566"/>
      <point x="795" y="502" type="curve"/>
      <point x="883" y="450" type="line"/>
    </contour>
    <contour>
      <point x="552" y="-29"/>
      <point x="605" y="-22"/>
      <point x="639" y="-4" type="curve"/>
      <point x="619" y="71"/>
      <point x="612" y="183"/>
      <point x="612" y="300" type="curve" smooth="yes"/>
      <point x="612" y="398"/>
      <point x="620" y="500"/>
      <point x="637" y="576" type="curve"/>
      <point x="544" y="564" type="line"/>
      <point x="512" y="459"/>
      <point x="502" y="301"/>
      <point x="502" y="142" type="curve" smooth="yes"/>
      <point x="502" y="60"/>
      <point x="504" y="10"/>
      <point x="512" y="-29" type="curve"/>
    </contour>
    <contour>
      <point x="534" y="23" type="line"/>
      <point x="506" y="95"/>
      <point x="450" y="154"/>
      <point x="387" y="199" type="curve"/>
      <point x="341" y="127" type="line"/>
      <point x="407" y="95"/>
      <point x="466" y="45"/>
      <point x="512" y="-29" type="curve"/>
    </contour>
    <contour>
      <point x="397" y="54"/>
      <point x="454" y="139"/>
      <point x="454" y="246" type="curve" smooth="yes"/>
      <point x="454" y="369"/>
      <point x="388" y="494"/>
      <point x="283" y="494" type="curve" smooth="yes"/>
      <point x="222" y="494"/>
      <point x="180" y="437"/>
      <point x="180" y="371" type="curve" smooth="yes"/>
      <point x="180" y="348"/>
      <point x="184" y="331"/>
      <point x="190" y="315" type="curve"/>
      <point x="213" y="305"/>
      <point x="257" y="297"/>
      <point x="292" y="297" type="curve"/>
      <point x="281" y="318"/>
      <point x="277" y="338"/>
      <point x="277" y="355" type="curve" smooth="yes"/>
      <point x="277" y="384"/>
      <point x="288" y="404"/>
      <point x="310" y="404" type="curve" smooth="yes"/>
      <point x="342" y="404"/>
      <point x="367" y="364"/>
      <point x="367" y="295" type="curve" smooth="yes"/>
      <point x="367" y="225"/>
      <point x="340" y="185"/>
      <point x="287" y="185" type="curve" smooth="yes"/>
      <point x="207" y="185"/>
      <point x="129" y="299"/>
      <point x="77" y="447" type="curve"/>
      <point x="52" y="439"/>
      <point x="28" y="425"/>
      <point x="8" y="411" type="curve"/>
      <point x="60" y="232"/>
      <point x="148" y="54"/>
      <point x="300" y="54" type="curve" smooth="yes"/>
    </contour>
    <contour>
      <point x="504" y="690" type="move" name="chandrabindu"/>
    </contour>
  </outline>
</glyph>
<glyph name="bn_ii" format="1">
  <advance width="593"/>
  <unicode hex="0988"/>
  <outline>
    <contour>
      <point x="474" y="-29"/>
      <point x="526" y="-20"/>
      <point x="549" y="-10" type="curve"/>
      <point x="511" y="145"/>
      <point x="519" y="274"/>
      <point x="556" y="393" type="curve"/>
      <point x="523" y="429"/>
      <point x="489" y="452"/>
      <point x="442" y="467" type="curve"/>
      <point x="412" y="439"/>
      <point x="342" y="336"/>
      <point x="288" y="242" type="curve"/>
      <point x="366" y="241" type="line"/>
      <point x="366" y="380"/>
      <point x="263" y="489"/>
      <point x="150" y="489" type="curve" smooth="yes"/>
      <point x="84" y="489"/>
      <point x="36" y="450"/>
      <point x="36" y="381" type="curve" smooth="yes"/>
      <point x="36" y="335"/>
      <point x="54" y="295"/>
      <point x="92" y="262" type="curve"/>
      <point x="121" y="263"/>
      <point x="160" y="284"/>
      <point x="182" y="309" type="curve"/>
      <point x="159" y="323"/>
      <point x="135" y="342"/>
      <point x="135" y="368" type="curve" smooth="yes"/>
      <point x="135" y="388"/>
      <point x="147" y="402"/>
      <point x="171" y="402" type="curve" smooth="yes"/>
      <point x="222" y="402"/>
      <point x="269" y="343"/>
      <point x="269" y="271" type="curve" smooth="yes"/>
      <point x="269" y="215"/>
      <point x="233" y="179"/>
      <point x="173" y="179" type="curve" smooth="yes"/>
      <point x="143" y="179"/>
      <point x="103" y="187"/>
      <point x="60" y="203" type="curve"/>
      <point x="80" y="72" type="line"/>
      <point x="115" y="57"/>
      <point x="150" y="51"/>
      <point x="181" y="51" type="curve" smooth="yes"/>
      <point x="313" y="51"/>
      <point x="389" y="141"/>
      <point x="468" y="361" type="curve"/>
      <point x="467" y="379" type="line"/>
      <point x="427" y="264"/>
      <point x="412" y="100"/>
      <point x="447" y="-29" type="curve"/>
    </contour>
    <contour>
      <point x="71" y="527"/>
      <point x="168" y="540"/>
      <point x="297" y="540" type="curve" smooth="yes"/>
      <point x="422" y="540"/>
      <point x="531" y="527"/>
      <point x="593" y="514" type="curve"/>
      <point x="596" y="528"/>
      <point x="599" y="550"/>
      <point x="599" y="572" type="curve" smooth="yes"/>
      <point x="599" y="589"/>
      <point x="597" y="607"/>
      <point x="593" y="618" type="curve"/>
      <point x="537" y="634"/>
      <point x="424" y="648"/>
      <point x="298" y="648" type="curve" smooth="yes"/>
      <point x="169" y="648"/>
      <point x="69" y="634"/>
      <point x="0" y="618" type="curve"/>
      <point x="-5" y="608"/>
      <point x="-8" y="591"/>
      <point x="-8" y="573" type="curve" smooth="yes"/>
      <point x="-8" y="552"/>
      <point x="-5" y="530"/>
      <point x="0" y="514" type="curve"/>
    </contour>
    <contour>
      <point x="593" y="618" type="line"/>
      <point x="573" y="729"/>
      <point x="516" y="817"/>
      <point x="421" y="817" type="curve" smooth="yes"/>
      <point x="360" y="817"/>
      <point x="281" y="791"/>
      <point x="233" y="791" type="curve" smooth="yes"/>
      <point x="180" y="791"/>
      <point x="153" y="825"/>
      <point x="126" y="866" type="curve"/>
      <point x="107" y="854"/>
      <point x="79" y="832"/>
      <point x="60" y="804" type="curve"/>
      <point x="95" y="743"/>
      <point x="145" y="692"/>
      <point x="224" y="692" type="curve" smooth="yes"/>
      <point x="285" y="692"/>
      <point x="359" y="718"/>
      <point x="420" y="718" type="curve" smooth="yes"/>
      <point x="494" y="718"/>
      <point x="520" y="657"/>
      <point x="533" y="596" type="curve"/>
    </contour>
    <contour>
      <point x="292" y="830" type="move" name="chandrabindu"/>
    </contour>
  </outline>
</glyph>
<glyph name="bn_e" format="1">
  <advance width="632"/>
  <unicode hex="098F"/>
  <note>
    uni098F
  </note>
  <outline>
    <contour>
      <point x="473" y="-32"/>
      <point x="513" y="-27"/>
      <point x="544" y="-16" type="curve"/>
      <point x="561" y="125"/>
      <point x="571" y="284"/>
      <point x="571" y="484" type="curve" smooth="yes"/>
      <point x="571" y="592"/>
      <point x="495" y="661"/>
      <point x="409" y="661" type="curve" smooth="yes"/>
      <point x="291" y="661"/>
      <point x="167" y="529"/>
      <point x="167" y="408" type="curve" smooth="yes"/>
      <point x="167" y="320"/>
      <point x="232" y="271"/>
      <point x="306" y="271" type="curve" smooth="yes"/>
      <point x="334" y="271"/>
      <point x="358" y="279"/>
      <point x="375" y="290" type="curve"/>
      <point x="392" y="314"/>
      <point x="404" y="356"/>
      <point x="404" y="389" type="curve" smooth="yes"/>
      <point x="404" y="399"/>
      <point x="403" y="408"/>
      <point x="400" y="412" type="curve"/>
      <point x="387" y="400"/>
      <point x="366" y="386"/>
      <point x="340" y="386" type="curve" smooth="yes"/>
      <point x="315" y="386"/>
      <point x="298" y="399"/>
      <point x="298" y="428" type="curve" smooth="yes"/>
      <point x="298" y="488"/>
      <point x="369" y="579"/>
      <point x="421" y="579" type="curve" smooth="yes"/>
      <point x="444" y="579"/>
      <point x="459" y="560"/>
      <point x="459" y="526" type="curve" smooth="yes"/>
      <point x="459" y="359"/>
      <point x="446" y="170"/>
      <point x="420" y="43" type="curve"/>
      <point x="450" y="10" type="line"/>
      <point x="423" y="128"/>
      <point x="393" y="181"/>
      <point x="331" y="181" type="curve" smooth="yes"/>
      <point x="280" y="181"/>
      <point x="217" y="146"/>
      <point x="173" y="146" type="curve" smooth="yes"/>
      <point x="144" y="146"/>
      <point x="120" y="161"/>
      <point x="120" y="202" type="curve" smooth="yes"/>
      <point x="120" y="226"/>
      <point x="128" y="263"/>
      <point x="143" y="291" type="curve"/>
      <point x="122" y="300"/>
      <point x="94" y="306"/>
      <point x="56" y="307" type="curve"/>
      <point x="36" y="262"/>
      <point x="20" y="206"/>
      <point x="20" y="156" type="curve" smooth="yes"/>
      <point x="20" y="67"/>
      <point x="70" y="9"/>
      <point x="151" y="9" type="curve" smooth="yes"/>
      <point x="219" y="9"/>
      <point x="291" y="51"/>
      <point x="348" y="51" type="curve" smooth="yes"/>
      <point x="406" y="51"/>
      <point x="419" y="7"/>
      <point x="440" y="-32" type="curve"/>
    </contour>
    <contour>
      <point x="387" y="690" type="move" name="chandrabindu"/>
    </contour>
  </outline>
</glyph>
<glyph name="bn_nga" format="1">
  <advance width="606"/>
  <unicode hex="0999"/>
  <outline>
    <contour>
      <point x="505" y="-43"/>
      <point x="578" y="54"/>
      <point x="578" y="197" type="curve" smooth="yes"/>
      <point x="578" y="266"/>
      <point x="561" y="329"/>
      <point x="536" y="378" type="curve"/>
      <point x="509" y="391"/>
      <point x="477" y="404"/>
      <point x="450" y="410" type="curve"/>
      <point x="413" y="356"/>
      <point x="378" y="310"/>
      <point x="353" y="310" type="curve" smooth="yes"/>
      <point x="335" y="310"/>
      <point x="325" y="321"/>
      <point x="325" y="351" type="curve" smooth="yes"/>
      <point x="325" y="454"/>
      <point x="349" y="611"/>
      <point x="428" y="611" type="curve" smooth="yes"/>
      <point x="455" y="611"/>
      <point x="472" y="595"/>
      <point x="472" y="571" type="curve" smooth="yes"/>
      <point x="472" y="545"/>
      <point x="453" y="526"/>
      <point x="406" y="526" type="curve" smooth="yes"/>
      <point x="319" y="526"/>
      <point x="194" y="591"/>
      <point x="139" y="650" type="curve"/>
      <point x="117" y="620"/>
      <point x="103" y="585"/>
      <point x="93" y="548" type="curve"/>
      <point x="153" y="496"/>
      <point x="291" y="442"/>
      <point x="388" y="442" type="curve" smooth="yes"/>
      <point x="488" y="442"/>
      <point x="537" y="498"/>
      <point x="537" y="565" type="curve" smooth="yes"/>
      <point x="537" y="623"/>
      <point x="497" y="675"/>
      <point x="414" y="675" type="curve" smooth="yes"/>
      <point x="276" y="675"/>
      <point x="226" y="537"/>
      <point x="226" y="408" type="curve" smooth="yes"/>
      <point x="226" y="284"/>
      <point x="288" y="211"/>
      <point x="374" y="213" type="curve" smooth="yes"/>
      <point x="443" y="215"/>
      <point x="482" y="267"/>
      <point x="532" y="318" type="curve"/>
      <point x="481" y="347" type="line"/>
      <point x="491" y="316"/>
      <point x="498" y="277"/>
      <point x="498" y="234" type="curve" smooth="yes"/>
      <point x="498" y="147"/>
      <point x="464" y="85"/>
      <point x="377" y="85" type="curve" smooth="yes"/>
      <point x="251" y="85"/>
      <point x="162" y="220"/>
      <point x="95" y="451" type="curve"/>
      <point x="66" y="443"/>
      <point x="37" y="432"/>
      <point x="10" y="418" type="curve"/>
      <point x="63" y="207"/>
      <point x="156" y="-43"/>
      <point x="372" y="-43" type="curve" smooth="yes"/>
    </contour>
    <contour>
      <point x="340" y="-13" type="move" name="blwm"/>
    </contour>
    <contour>
      <point x="151" y="-120" type="move" name="nukt"/>
    </contour>
    <contour>
      <point x="345" y="690" type="move" name="reph"/>
    </contour>
    <contour>
      <point x="345" y="690" type="move" name="chandrabindu"/>
    </contour>
    <contour>
      <point x="260" y="-13" type="move" name="haln"/>
    </contour>
  </outline>
</glyph>
<glyph name="bn_cha" format="1">
  <advance width="532"/>
  <unicode hex="099B"/>
  <outline>
    <contour>
      <point x="489" y="-139"/>
      <point x="512" y="-114"/>
      <point x="531" y="-89" type="curve"/>
      <point x="421" y="0"/>
      <point x="319" y="71"/>
      <point x="214" y="126" type="curve"/>
      <point x="256" y="74" type="line"/>
      <point x="388" y="74"/>
      <point x="489" y="132"/>
      <point x="489" y="254" type="curve" smooth="yes"/>
      <point x="489" y="347"/>
      <point x="432" y="427"/>
      <point x="367" y="475" type="curve"/>
      <point x="277" y="488"/>
      <point x="185" y="514"/>
      <point x="160" y="567" type="curve"/>
      <point x="148" y="511" type="line"/>
      <point x="162" y="466"/>
      <point x="210" y="431"/>
      <point x="277" y="420" type="curve"/>
      <point x="264" y="445" type="line"/>
      <point x="267" y="436"/>
      <point x="268" y="428"/>
      <point x="268" y="419" type="curve" smooth="yes"/>
      <point x="268" y="358"/>
      <point x="224" y="304"/>
      <point x="186" y="304" type="curve" smooth="yes"/>
      <point x="170" y="304"/>
      <point x="163" y="313"/>
      <point x="163" y="333" type="curve" smooth="yes"/>
      <point x="163" y="394"/>
      <point x="172" y="497"/>
      <point x="184" y="558" type="curve"/>
      <point x="71" y="577" type="line"/>
      <point x="61" y="507"/>
      <point x="54" y="410"/>
      <point x="54" y="358" type="curve" smooth="yes"/>
      <point x="54" y="282"/>
      <point x="121" y="237"/>
      <point x="185" y="237" type="curve" smooth="yes"/>
      <point x="292" y="237"/>
      <point x="372" y="330"/>
      <point x="372" y="435" type="curve"/>
      <point x="331" y="398" type="line"/>
      <point x="361" y="374"/>
      <point x="381" y="340"/>
      <point x="381" y="296" type="curve" smooth="yes"/>
      <point x="381" y="223"/>
      <point x="326" y="183"/>
      <point x="243" y="183" type="curve" smooth="yes"/>
      <point x="202" y="183"/>
      <point x="151" y="191"/>
      <point x="95" y="211" type="curve"/>
      <point x="114" y="72" type="line"/>
      <point x="234" y="23"/>
      <point x="350" y="-50"/>
      <point x="462" y="-160" type="curve"/>
    </contour>
    <contour>
      <point x="57" y="529"/>
      <point x="169" y="542"/>
      <point x="272" y="542" type="curve" smooth="yes"/>
      <point x="374" y="542"/>
      <point x="478" y="529"/>
      <point x="532" y="514" type="curve"/>
      <point x="535" y="528"/>
      <point x="540" y="550"/>
      <point x="540" y="573" type="curve" smooth="yes"/>
      <point x="540" y="589"/>
      <point x="538" y="607"/>
      <point x="533" y="618" type="curve"/>
      <point x="485" y="636"/>
      <point x="376" y="650"/>
      <point x="273" y="650" type="curve" smooth="yes"/>
      <point x="169" y="650"/>
      <point x="52" y="636"/>
      <point x="0" y="618" type="curve"/>
      <point x="-4" y="607"/>
      <point x="-7" y="589"/>
      <point x="-7" y="572" type="curve" smooth="yes"/>
      <point x="-7" y="550"/>
      <point x="-4" y="528"/>
      <point x="0" y="514" type="curve"/>
    </contour>
    <contour>
      <point x="262" y="0" type="move" name="blwm"/>
    </contour>
    <contour>
      <point x="124" y="-170" type="move" name="nukt"/>
    </contour>
    <contour>
      <point x="256" y="690" type="move" name="reph"/>
    </contour>
    <contour>
      <point x="256" y="690" type="move" name="chandrabindu"/>
    </contour>
    <contour>
      <point x="94" y="0" type="move" name="haln"/>
    </contour>
  </outline>
</glyph>
<glyph name="bn_ja" format="1">
  <advance width="731"/>
  <unicode hex="099C"/>
  <outline>
    <contour>
      <point x="454" y="-26"/>
      <point x="520" y="65"/>
      <point x="520" y="203" type="curve" smooth="yes"/>
      <point x="520" y="247"/>
      <point x="513" y="293"/>
      <point x="502" y="331" type="curve"/>
      <point x="474" y="353"/>
      <point x="438" y="376"/>
      <point x="408" y="391" type="curve"/>
      <point x="376" y="350"/>
      <point x="332" y="318"/>
      <point x="305" y="318" type="curve" smooth="yes"/>
      <point x="292" y="318"/>
      <point x="276" y="325"/>
      <point x="276" y="352" type="curve" smooth="yes"/>
      <point x="276" y="394"/>
      <point x="318" y="499"/>
      <point x="366" y="560" type="curve"/>
      <point x="245" y="567" type="line"/>
      <point x="222" y="523"/>
      <point x="192" y="444"/>
      <point x="192" y="382" type="curve" smooth="yes"/>
      <point x="192" y="280"/>
      <point x="266" y="217"/>
      <point x="337" y="217" type="curve" smooth="yes"/>
      <point x="387" y="217"/>
      <point x="429" y="249"/>
      <point x="468" y="280" type="curve"/>
      <point x="434" y="341" type="line"/>
      <point x="440" y="308"/>
      <point x="445" y="274"/>
      <point x="445" y="239" type="curve" smooth="yes"/>
      <point x="445" y="155"/>
      <point x="416" y="95"/>
      <point x="342" y="95" type="curve" smooth="yes"/>
      <point x="231" y="95"/>
      <point x="149" y="227"/>
      <point x="92" y="454" type="curve"/>
      <point x="64" y="445"/>
      <point x="35" y="433"/>
      <point x="10" y="419" type="curve"/>
      <point x="56" y="220"/>
      <point x="139" y="-26"/>
      <point x="335" y="-26" type="curve" smooth="yes"/>
    </contour>
    <contour>
      <point x="606" y="-24"/>
      <point x="663" y="-17"/>
      <point x="685" y="-7" type="curve"/>
      <point x="671" y="56"/>
      <point x="664" y="118"/>
      <point x="664" y="179" type="curve" smooth="yes"/>
      <point x="664" y="256"/>
      <point x="675" y="328"/>
      <point x="697" y="395" type="curve"/>
      <point x="682" y="438"/>
      <point x="656" y="472"/>
      <point x="628" y="491" type="curve"/>
      <point x="606" y="479"/>
      <point x="582" y="470"/>
      <point x="549" y="470" type="curve" smooth="yes"/>
      <point x="484" y="470"/>
      <point x="441" y="506"/>
      <point x="413" y="566" type="curve"/>
      <point x="344" y="556" type="line"/>
      <point x="378" y="447"/>
      <point x="473" y="365"/>
      <point x="586" y="365" type="curve" smooth="yes"/>
      <point x="634" y="365"/>
      <point x="656" y="380"/>
      <point x="669" y="398" type="curve"/>
      <point x="613" y="397" type="line"/>
      <point x="581" y="327"/>
      <point x="563" y="227"/>
      <point x="563" y="141" type="curve" smooth="yes"/>
      <point x="563" y="82"/>
      <point x="568" y="24"/>
      <point x="579" y="-24" type="curve"/>
    </contour>
    <contour>
      <point x="86" y="532"/>
      <point x="218" y="548"/>
      <point x="361" y="548" type="curve" smooth="yes"/>
      <point x="504" y="548"/>
      <point x="642" y="532"/>
      <point x="731" y="514" type="curve"/>
      <point x="735" y="528"/>
      <point x="739" y="549"/>
      <point x="739" y="571" type="curve" smooth="yes"/>
      <point x="739" y="589"/>
      <point x="736" y="607"/>
      <point x="731" y="618" type="curve"/>
      <point x="652" y="639"/>
      <point x="510" y="656"/>
      <point x="365" y="656" type="curve" smooth="yes"/>
      <point x="220" y="656"/>
      <point x="84" y="639"/>
      <point x="0" y="618" type="curve"/>
      <point x="-5" y="609"/>
      <point x="-8" y="591"/>
      <point x="-8" y="574" type="curve" smooth="yes"/>
      <point x="-8" y="552"/>
      <point x="-4" y="528"/>
      <point x="0" y="514" type="curve"/>
    </contour>
    <contour>
      <point x="330" y="-6" type="move" name="blwm"/>
    </contour>
    <contour>
      <point x="239" y="-120" type="move" name="nukt"/>
    </contour>
    <contour>
      <point x="396" y="690" type="move" name="reph"/>
    </contour>
    <contour>
      <point x="396" y="690" type="move" name="chandrabindu"/>
    </contour>
    <contour>
      <point x="227" y="0" type="move" name="haln"/>
    </contour>
  </outline>
</glyph>
<glyph name="bn_ttha" format="1">
  <advance width="489"/>
  <unicode hex="09A0"/>
  <outline>
    <contour>
      <point x="367" y="-29"/>
      <point x="454" y="80"/>
      <point x="454" y="232" type="curve" smooth="yes"/>
      <point x="454" y="386"/>
      <point x="366" y="528"/>
      <point x="285" y="634" type="curve"/>
      <point x="216" y="636" type="line"/>
      <point x="288" y="534"/>
      <point x="351" y="427"/>
      <point x="351" y="296" type="curve" smooth="yes"/>
      <point x="351" y="182"/>
      <point x="290" y="73"/>
      <point x="187" y="73" type="curve" smooth="yes"/>
      <point x="113" y="73"/>
      <point x="69" y="124"/>
      <point x="69" y="206" type="curve"/>
      <point x="58" y="118" type="line"/>
      <point x="202" y="158"/>
      <point x="293" y="274"/>
      <point x="293" y="439" type="curve" smooth="yes"/>
      <point x="293" y="499"/>
      <point x="278" y="554"/>
      <point x="248" y="609" type="curve"/>
      <point x="194" y="604" type="line"/>
      <point x="209" y="578"/>
      <point x="219" y="540"/>
      <point x="219" y="502" type="curve" smooth="yes"/>
      <point x="219" y="363"/>
      <point x="108" y="268"/>
      <point x="25" y="231" type="curve"/>
      <point x="24" y="219"/>
      <point x="23" y="208"/>
      <point x="23" y="196" type="curve" smooth="yes"/>
      <point x="23" y="64"/>
      <point x="94" y="-29"/>
      <point x="227" y="-29" type="curve" smooth="yes"/>
    </contour>
    <contour>
      <point x="70" y="528"/>
      <point x="160" y="541"/>
      <point x="244" y="541" type="curve" smooth="yes"/>
      <point x="328" y="541"/>
      <point x="419" y="528"/>
      <point x="489" y="514" type="curve"/>
      <point x="494" y="530"/>
      <point x="498" y="553"/>
      <point x="498" y="574" type="curve" smooth="yes"/>
      <point x="498" y="592"/>
      <point x="495" y="608"/>
      <point x="489" y="618" type="curve"/>
      <point x="420" y="635"/>
      <point x="330" y="649"/>
      <point x="244" y="649" type="curve" smooth="yes"/>
      <point x="159" y="649"/>
      <point x="69" y="635"/>
      <point x="0" y="618" type="curve"/>
      <point x="-6" y="608"/>
      <point x="-8" y="592"/>
      <point x="-8" y="574" type="curve" smooth="yes"/>
      <point x="-8" y="553"/>
      <point x="-4" y="530"/>
      <point x="0" y="514" type="curve"/>
    </contour>
    <contour>
      <point x="308" y="617" type="line"/>
      <point x="269" y="674"/>
      <point x="239" y="731"/>
      <point x="239" y="790" type="curve" smooth="yes"/>
      <point x="239" y="839"/>
      <point x="262" y="892"/>
      <point x="290" y="919" type="curve"/>
      <point x="265" y="941"/>
      <point x="239" y="956"/>
      <point x="209" y="967" type="curve"/>
      <point x="172" y="922"/>
      <point x="152" y="864"/>
      <point x="152" y="807" type="curve" smooth="yes"/>
      <point x="152" y="736"/>
      <point x="186" y="669"/>
      <point x="224" y="612" type="curve"/>
    </contour>
    <contour>
      <point x="226" y="-6" type="move" name="blwm"/>
    </contour>
    <contour>
      <point x="192" y="-120" type="move" name="nukt"/>
    </contour>
    <contour>
      <point x="281" y="675" type="move" name="reph"/>
    </contour>
    <contour>
      <point x="434" y="690" type="move" name="chandrabindu"/>
    </contour>
    <contour>
      <point x="80" y="0" type="move" name="haln"/>
    </contour>
  </outline>
</glyph>
<glyph name="bn_dda" format="1">
  <advance width="602"/>
  <unicode hex="09A1"/>
  <note>
    uni09A1
  </note>
  <outline>
    <contour>
      <point x="507" y="-31"/>
      <point x="580" y="68"/>
      <point x="580" y="212" type="curve" smooth="yes"/>
      <point x="580" y="282"/>
      <point x="564" y="350"/>
      <point x="539" y="400" type="curve"/>
      <point x="511" y="415"/>
      <point x="476" y="427"/>
      <point x="447" y="434" type="curve"/>
      <point x="410" y="373"/>
      <point x="375" y="320"/>
      <point x="348" y="320" type="curve" smooth="yes"/>
      <point x="330" y="320"/>
      <point x="317" y="332"/>
      <point x="317" y="358" type="curve" smooth="yes"/>
      <point x="317" y="398"/>
      <point x="346" y="501"/>
      <point x="374" y="578" type="curve"/>
      <point x="255" y="602" type="line"/>
      <point x="238" y="534"/>
      <point x="222" y="452"/>
      <point x="222" y="403" type="curve" smooth="yes"/>
      <point x="222" y="318"/>
      <point x="278" y="217"/>
      <point x="374" y="217" type="curve" smooth="yes"/>
      <point x="446" y="217"/>
      <point x="489" y="274"/>
      <point x="524" y="331" type="curve"/>
      <point x="482" y="360" type="line"/>
      <point x="492" y="327"/>
      <point x="500" y="284"/>
      <point x="500" y="241" type="curve" smooth="yes"/>
      <point x="500" y="150"/>
      <point x="463" y="93"/>
      <point x="381" y="93" type="curve" smooth="yes"/>
      <point x="253" y="93"/>
      <point x="161" y="226"/>
      <point x="93" y="458" type="curve"/>
      <point x="64" y="448"/>
      <point x="36" y="435"/>
      <point x="10" y="419" type="curve"/>
      <point x="62" y="218"/>
      <point x="156" y="-31"/>
      <point x="374" y="-31" type="curve" smooth="yes"/>
    </contour>
    <contour>
      <point x="76" y="531"/>
      <point x="175" y="545"/>
      <point x="302" y="545" type="curve" smooth="yes"/>
      <point x="425" y="545"/>
      <point x="525" y="532"/>
      <point x="602" y="514" type="curve"/>
      <point x="607" y="530"/>
      <point x="611" y="555"/>
      <point x="611" y="575" type="curve" smooth="yes"/>
      <point x="611" y="592"/>
      <point x="608" y="608"/>
      <point x="602" y="618" type="curve"/>
      <point x="527" y="637"/>
      <point x="428" y="653"/>
      <point x="302" y="653" type="curve" smooth="yes"/>
      <point x="174" y="653"/>
      <point x="74" y="637"/>
      <point x="0" y="618" type="curve"/>
      <point x="-6" y="608"/>
      <point x="-8" y="591"/>
      <point x="-8" y="573" type="curve" smooth="yes"/>
      <point x="-8" y="552"/>
      <point x="-5" y="528"/>
      <point x="0" y="514" type="curve"/>
    </contour>
    <contour>
      <point x="363" y="-6" type="move" name="blwm"/>
    </contour>
    <contour>
      <point x="316" y="-120" type="move" name="nukt"/>
    </contour>
    <contour>
      <point x="331" y="690" type="move" name="reph"/>
    </contour>
    <contour>
      <point x="331" y="690" type="move" name="chandrabindu"/>
    </contour>
    <contour>
      <point x="225" y="0" type="move" name="haln"/>
    </contour>
  </outline>
</glyph>
<glyph name="bn_ddha" format="1">
  <advance width="503"/>
  <unicode hex="09A2"/>
  <outline>
    <contour>
      <point x="348" y="-30"/>
      <point x="473" y="112"/>
      <point x="473" y="247" type="curve" smooth="yes"/>
      <point x="473" y="340"/>
      <point x="409" y="392"/>
      <point x="337" y="392" type="curve" smooth="yes"/>
      <point x="304" y="392"/>
      <point x="281" y="383"/>
      <point x="265" y="372" type="curve"/>
      <point x="249" y="350"/>
      <point x="237" y="310"/>
      <point x="237" y="275" type="curve" smooth="yes"/>
      <point x="237" y="266"/>
      <point x="239" y="256"/>
      <point x="242" y="250" type="curve"/>
      <point x="254" y="264"/>
      <point x="276" y="278"/>
      <point x="301" y="278" type="curve" smooth="yes"/>
      <point x="325" y="278"/>
      <point x="342" y="259"/>
      <point x="342" y="225" type="curve" smooth="yes"/>
      <point x="342" y="156"/>
      <point x="272" y="50"/>
      <point x="220" y="50" type="curve" smooth="yes"/>
      <point x="195" y="51"/>
      <point x="180" y="69"/>
      <point x="180" y="110" type="curve" smooth="yes"/>
      <point x="180" y="271"/>
      <point x="200" y="459"/>
      <point x="228" y="582" type="curve"/>
      <point x="103" y="619" type="line"/>
      <point x="83" y="486"/>
      <point x="67" y="321"/>
      <point x="67" y="147" type="curve" smooth="yes"/>
      <point x="67" y="39"/>
      <point x="141" y="-30"/>
      <point x="232" y="-30" type="curve" smooth="yes"/>
    </contour>
    <contour>
      <point x="49" y="527"/>
      <point x="138" y="541"/>
      <point x="246" y="541" type="curve" smooth="yes"/>
      <point x="338" y="541"/>
      <point x="436" y="528"/>
      <point x="503" y="514" type="curve"/>
      <point x="508" y="528"/>
      <point x="511" y="549"/>
      <point x="511" y="568" type="curve" smooth="yes"/>
      <point x="511" y="588"/>
      <point x="509" y="606"/>
      <point x="503" y="618" type="curve"/>
      <point x="437" y="636"/>
      <point x="336" y="649"/>
      <point x="244" y="649" type="curve" smooth="yes"/>
      <point x="136" y="649"/>
      <point x="46" y="635"/>
      <point x="0" y="618" type="curve"/>
      <point x="-4" y="605"/>
      <point x="-6" y="585"/>
      <point x="-6" y="567" type="curve" smooth="yes"/>
      <point x="-6" y="547"/>
      <point x="-3" y="528"/>
      <point x="0" y="514" type="curve"/>
    </contour>
    <contour>
      <point x="226" y="-6" type="move" name="blwm"/>
    </contour>
    <contour>
      <point x="188" y="-120" type="move" name="nukt"/>
    </contour>
    <contour>
      <point x="224" y="690" type="move" name="reph"/>
    </contour>
    <contour>
      <point x="224" y="690" type="move" name="chandrabindu"/>
    </contour>
    <contour>
      <point x="105" y="0" type="move" name="haln"/>
    </contour>
  </outline>
</glyph>
<glyph name="bn_tha" format="1">
  <advance width="588"/>
  <unicode hex="09A5"/>
  <outline>
    <contour>
      <point x="387" y="42" type="line"/>
      <point x="353" y="146"/>
      <point x="279" y="231"/>
      <point x="178" y="271" type="curve"/>
      <point x="185" y="196" type="line"/>
      <point x="248" y="237" type="line" smooth="yes"/>
      <point x="329" y="288"/>
      <point x="363" y="357"/>
      <point x="363" y="444" type="curve" smooth="yes"/>
      <point x="363" y="553"/>
      <point x="296" y="638"/>
      <point x="187" y="638" type="curve" smooth="yes"/>
      <point x="85" y="638"/>
      <point x="28" y="564"/>
      <point x="28" y="481" type="curve" smooth="yes"/>
      <point x="28" y="449"/>
      <point x="38" y="417"/>
      <point x="54" y="392" type="curve"/>
      <point x="102" y="392"/>
      <point x="141" y="402"/>
      <point x="176" y="424" type="curve"/>
      <point x="159" y="437"/>
      <point x="151" y="454"/>
      <point x="151" y="479" type="curve" smooth="yes"/>
      <point x="151" y="509"/>
      <point x="170" y="542"/>
      <point x="211" y="542" type="curve" smooth="yes"/>
      <point x="245" y="542"/>
      <point x="269" y="520"/>
      <point x="269" y="482" type="curve" smooth="yes"/>
      <point x="269" y="436"/>
      <point x="245" y="390"/>
      <point x="175" y="351" type="curve" smooth="yes"/>
      <point x="85" y="302" type="line"/>
      <point x="90" y="257"/>
      <point x="105" y="217"/>
      <point x="130" y="177" type="curve"/>
      <point x="223" y="158"/>
      <point x="288" y="101"/>
      <point x="341" y="-6" type="curve"/>
    </contour>
    <contour>
      <point x="510" y="85"/>
      <point x="526" y="280"/>
      <point x="526" y="452" type="curve" smooth="yes"/>
      <point x="526" y="481"/>
      <point x="531" y="493"/>
      <point x="551" y="502" type="curve" smooth="yes"/>
      <point x="561" y="506"/>
      <point x="575" y="510"/>
      <point x="588" y="514" type="curve"/>
      <point x="593" y="528"/>
      <point x="597" y="552"/>
      <point x="597" y="572" type="curve" smooth="yes"/>
      <point x="597" y="592"/>
      <point x="594" y="608"/>
      <point x="588" y="618" type="curve"/>
      <point x="543" y="610"/>
      <point x="503" y="600"/>
      <point x="465" y="584" type="curve" smooth="yes"/>
      <point x="435" y="571"/>
      <point x="411" y="543"/>
      <point x="411" y="503" type="curve"/>
      <point x="411" y="478"/>
      <point x="415" y="449"/>
      <point x="415" y="403" type="curve" smooth="yes"/>
      <point x="415" y="262"/>
      <point x="403" y="147"/>
      <point x="370" y="51" type="curve"/>
      <point x="341" y="-6" type="line"/>
      <point x="369" y="-22"/>
      <point x="423" y="-33"/>
      <point x="465" y="-33" type="curve"/>
    </contour>
    <contour>
      <point x="392" y="-6" type="move" name="blwm"/>
    </contour>
    <contour>
      <point x="171" y="0" type="move" name="nukt"/>
    </contour>
    <contour>
      <point x="467" y="690" type="move" name="reph"/>
    </contour>
    <contour>
      <point x="467" y="690" type="move" name="chandrabindu"/>
    </contour>
    <contour>
      <point x="276" y="0" type="move" name="haln"/>
    </contour>
  </outline>
</glyph>
<glyph name="bn_pha" format="1">
  <advance width="708"/>
  <unicode hex="09AB"/>
  <outline>
    <contour>
      <point x="400" y="-31"/>
      <point x="453" y="-24"/>
      <point x="488" y="-6" type="curve"/>
      <point x="463" y="69"/>
      <point x="457" y="182"/>
      <point x="457" y="298" type="curve" smooth="yes"/>
      <point x="457" y="331"/>
      <point x="457" y="359"/>
      <point x="459" y="388" type="curve"/>
      <point x="434" y="365" type="line"/>
      <point x="521" y="359"/>
      <point x="596" y="346"/>
      <point x="596" y="301" type="curve" smooth="yes"/>
      <point x="596" y="269"/>
      <point x="550" y="234"/>
      <point x="499" y="218" type="curve"/>
      <point x="518" y="171"/>
      <point x="554" y="137"/>
      <point x="585" y="131" type="curve"/>
      <point x="629" y="159"/>
      <point x="670" y="212"/>
      <point x="670" y="286" type="curve" smooth="yes"/>
      <point x="670" y="400"/>
      <point x="561" y="495"/>
      <point x="365" y="503" type="curve"/>
      <point x="350" y="382"/>
      <point x="345" y="281"/>
      <point x="345" y="141" type="curve" smooth="yes"/>
      <point x="345" y="62"/>
      <point x="348" y="9"/>
      <point x="359" y="-31" type="curve"/>
    </contour>
    <contour>
      <point x="389" y="20" type="line"/>
      <point x="343" y="130"/>
      <point x="257" y="204"/>
      <point x="160" y="246" type="curve"/>
      <point x="146" y="185" type="line"/>
      <point x="312" y="368" type="line"/>
      <point x="199" y="436" type="line"/>
      <point x="40" y="277" type="line"/>
      <point x="43" y="233"/>
      <point x="67" y="188"/>
      <point x="108" y="154" type="curve"/>
      <point x="208" y="135"/>
      <point x="293" y="78"/>
      <point x="359" y="-31" type="curve"/>
    </contour>
    <contour>
      <point x="312" y="368" type="line"/>
      <point x="275" y="403" type="line" smooth="yes"/>
      <point x="222" y="450"/>
      <point x="177" y="499"/>
      <point x="175" y="539" type="curve"/>
      <point x="29" y="533" type="line"/>
      <point x="29" y="471"/>
      <point x="153" y="429"/>
      <point x="206" y="386" type="curve"/>
    </contour>
    <contour>
      <point x="88" y="529"/>
      <point x="217" y="543"/>
      <point x="374" y="543" type="curve" smooth="yes"/>
      <point x="503" y="543"/>
      <point x="635" y="529"/>
      <point x="708" y="514" type="curve"/>
      <point x="715" y="541"/>
      <point x="719" y="590"/>
      <point x="708" y="618" type="curve"/>
      <point x="642" y="636"/>
      <point x="508" y="651"/>
      <point x="377" y="651" type="curve" smooth="yes"/>
      <point x="219" y="651"/>
      <point x="86" y="636"/>
      <point x="0" y="618" type="curve"/>
      <point x="-13" y="596"/>
      <point x="-9" y="542"/>
      <point x="0" y="514" type="curve"/>
    </contour>
    <contour>
      <point x="400" y="0" type="move" name="blwm"/>
    </contour>
    <contour>
      <point x="157" y="0" type="move" name="nukt"/>
    </contour>
    <contour>
      <point x="372" y="690" type="move" name="reph"/>
    </contour>
    <contour>
      <point x="372" y="690" type="move" name="chandrabindu"/>
    </contour>
    <contour>
      <point x="291" y="0" type="move" name="haln"/>
    </contour>
  </outline>
</glyph>
<glyph name="bn_ba" format="1">
  <advance width="501"/>
  <unicode hex="09AC"/>
  <outline>
    <contour>
      <point x="346" y="23" type="line"/>
      <point x="304" y="137"/>
      <point x="213" y="214"/>
      <point x="122" y="258" type="curve"/>
      <point x="116" y="212" type="line"/>
      <point x="183" y="283"/>
      <point x="294" y="353"/>
      <point x="373" y="380" type="curve"/>
      <point x="354" y="514" type="line"/>
      <point x="212" y="460"/>
      <point x="97" y="383"/>
      <point x="24" y="304" type="curve"/>
      <point x="28" y="255"/>
      <point x="43" y="213"/>
      <point x="76" y="167" type="curve"/>
      <point x="174" y="146"/>
      <point x="259" y="87"/>
      <point x="324" y="-29" type="curve"/>
    </contour>
    <contour>
      <point x="364" y="-29"/>
      <point x="417" y="-22"/>
      <point x="451" y="-4" type="curve"/>
      <point x="430" y="71"/>
      <point x="423" y="183"/>
      <point x="423" y="298" type="curve" smooth="yes"/>
      <point x="423" y="386"/>
      <point x="429" y="459"/>
      <point x="439" y="541" type="curve"/>
      <point x="354" y="564" type="line"/>
      <point x="323" y="413"/>
      <point x="312" y="302"/>
      <point x="312" y="139" type="curve" smooth="yes"/>
      <point x="312" y="57"/>
      <point x="316" y="5"/>
      <point x="324" y="-29" type="curve"/>
    </contour>
    <contour>
      <point x="71" y="528"/>
      <point x="168" y="541"/>
      <point x="264" y="541" type="curve" smooth="yes"/>
      <point x="342" y="541"/>
      <point x="439" y="528"/>
      <point x="501" y="514" type="curve"/>
      <point x="505" y="528"/>
      <point x="509" y="549"/>
      <point x="509" y="571" type="curve" smooth="yes"/>
      <point x="509" y="589"/>
      <point x="506" y="607"/>
      <point x="501" y="618" type="curve"/>
      <point x="445" y="635"/>
      <point x="346" y="649"/>
      <point x="268" y="649" type="curve" smooth="yes"/>
      <point x="171" y="649"/>
      <point x="70" y="635"/>
      <point x="0" y="618" type="curve"/>
      <point x="-6" y="606"/>
      <point x="-8" y="590"/>
      <point x="-8" y="572" type="curve" smooth="yes"/>
      <point x="-8" y="550"/>
      <point x="-4" y="529"/>
      <point x="0" y="514" type="curve"/>
    </contour>
    <contour>
      <point x="363" y="-3" type="move" name="blwm"/>
    </contour>
    <contour>
      <point x="125" y="0" type="move" name="nukt"/>
    </contour>
    <contour>
      <point x="387" y="690" type="move" name="reph"/>
    </contour>
    <contour>
      <point x="387" y="690" type="move" name="chandrabindu"/>
    </contour>
    <contour>
      <point x="265" y="0" type="move" name="haln"/>
    </contour>
  </outline>
</glyph>
<glyph name="bn_ssa" format="1">
  <advance width="530"/>
  <unicode hex="09B7"/>
  <outline>
    <contour>
      <point x="377" y="22" type="line"/>
      <point x="336" y="132"/>
      <point x="245" y="210"/>
      <point x="152" y="252" type="curve"/>
      <point x="147" y="184" type="line"/>
      <point x="290" y="362" type="line"/>
      <point x="186" y="446" type="line"/>
      <point x="43" y="273" type="line"/>
      <point x="46" y="232"/>
      <point x="68" y="190"/>
      <point x="109" y="160" type="curve"/>
      <point x="202" y="139"/>
      <point x="283" y="81"/>
      <point x="345" y="-31" type="curve"/>
    </contour>
    <contour>
      <point x="393" y="367" type="line"/>
      <point x="303" y="414" type="line" smooth="yes"/>
      <point x="223" y="454"/>
      <point x="170" y="501"/>
      <point x="167" y="541" type="curve"/>
      <point x="23" y="533" type="line"/>
      <point x="23" y="486"/>
      <point x="103" y="423"/>
      <point x="169" y="393" type="curve" smooth="yes"/>
      <point x="363" y="304" type="line"/>
    </contour>
    <contour>
      <point x="385" y="-31"/>
      <point x="439" y="-25"/>
      <point x="472" y="-7" type="curve"/>
      <point x="455" y="68"/>
      <point x="450" y="182"/>
      <point x="450" y="298" type="curve" smooth="yes"/>
      <point x="450" y="386"/>
      <point x="454" y="459"/>
      <point x="463" y="541" type="curve"/>
      <point x="370" y="564" type="line"/>
      <point x="347" y="413"/>
      <point x="338" y="304"/>
      <point x="338" y="141" type="curve" smooth="yes"/>
      <point x="338" y="62"/>
      <point x="341" y="9"/>
      <point x="345" y="-31" type="curve"/>
    </contour>
    <contour>
      <point x="66" y="528"/>
      <point x="151" y="541"/>
      <point x="271" y="541" type="curve" smooth="yes"/>
      <point x="370" y="541"/>
      <point x="471" y="528"/>
      <point x="530" y="514" type="curve"/>
      <point x="537" y="538"/>
      <point x="541" y="591"/>
      <point x="530" y="618" type="curve"/>
      <point x="477" y="635"/>
      <point x="374" y="649"/>
      <point x="275" y="649" type="curve" smooth="yes"/>
      <point x="153" y="649"/>
      <point x="65" y="635"/>
      <point x="0" y="618" type="curve"/>
      <point x="-12" y="596"/>
      <point x="-8" y="542"/>
      <point x="0" y="514" type="curve"/>
    </contour>
    <contour>
      <point x="385" y="-6" type="move" name="blwm"/>
    </contour>
    <contour>
      <point x="153" y="0" type="move" name="nukt"/>
    </contour>
    <contour>
      <point x="429" y="690" type="move" name="reph"/>
    </contour>
    <contour>
      <point x="429" y="690" type="move" name="chandrabindu"/>
    </contour>
    <contour>
      <point x="303" y="0" type="move" name="haln"/>
    </contour>
  </outline>
</glyph>
<glyph name="bn_ha" format="1">
  <advance width="496"/>
  <unicode hex="09B9"/>
  <outline>
    <contour>
      <point x="468" y="-117"/>
      <point x="490" y="-92"/>
      <point x="508" y="-67" type="curve"/>
      <point x="402" y="26"/>
      <point x="303" y="98"/>
      <point x="204" y="150" type="curve"/>
      <point x="161" y="106" type="line"/>
      <point x="187" y="103"/>
      <point x="213" y="101"/>
      <point x="236" y="101" type="curve" smooth="yes"/>
      <point x="352" y="101"/>
      <point x="434" y="150"/>
      <point x="434" y="253" type="curve" smooth="yes"/>
      <point x="434" y="374"/>
      <point x="319" y="499"/>
      <point x="199" y="499" type="curve" smooth="yes"/>
      <point x="133" y="499"/>
      <point x="80" y="461"/>
      <point x="80" y="387" type="curve" smooth="yes"/>
      <point x="80" y="359"/>
      <point x="89" y="327"/>
      <point x="112" y="298" type="curve"/>
      <point x="147" y="297"/>
      <point x="194" y="310"/>
      <point x="222" y="327" type="curve"/>
      <point x="207" y="341"/>
      <point x="193" y="356"/>
      <point x="193" y="377" type="curve" smooth="yes"/>
      <point x="193" y="398"/>
      <point x="204" y="412"/>
      <point x="230" y="412" type="curve" smooth="yes"/>
      <point x="278" y="412"/>
      <point x="322" y="360"/>
      <point x="322" y="303" type="curve" smooth="yes"/>
      <point x="322" y="249"/>
      <point x="282" y="223"/>
      <point x="206" y="223" type="curve" smooth="yes"/>
      <point x="159" y="223"/>
      <point x="100" y="232"/>
      <point x="35" y="253" type="curve"/>
      <point x="55" y="115" type="line"/>
      <point x="188" y="73"/>
      <point x="314" y="-6"/>
      <point x="443" y="-138" type="curve"/>
    </contour>
    <contour>
      <point x="62" y="528"/>
      <point x="150" y="541"/>
      <point x="248" y="541" type="curve" smooth="yes"/>
      <point x="347" y="541"/>
      <point x="441" y="528"/>
      <point x="496" y="514" type="curve"/>
      <point x="500" y="528"/>
      <point x="503" y="550"/>
      <point x="503" y="572" type="curve" smooth="yes"/>
      <point x="503" y="589"/>
      <point x="501" y="607"/>
      <point x="496" y="618" type="curve"/>
      <point x="447" y="635"/>
      <point x="349" y="649"/>
      <point x="251" y="649" type="curve" smooth="yes"/>
      <point x="151" y="649"/>
      <point x="61" y="635"/>
      <point x="0" y="618" type="curve"/>
      <point x="-5" y="608"/>
      <point x="-8" y="591"/>
      <point x="-8" y="573" type="curve" smooth="yes"/>
      <point x="-8" y="552"/>
      <point x="-5" y="530"/>
      <point x="0" y="514" type="curve"/>
    </contour>
    <contour>
      <point x="267" y="21" type="move" name="blwm"/>
    </contour>
    <contour>
      <point x="183" y="-66" type="move" name="nukt"/>
    </contour>
    <contour>
      <point x="248" y="690" type="move" name="reph"/>
    </contour>
    <contour>
      <point x="248" y="690" type="move" name="chandrabindu"/>
    </contour>
    <contour>
      <point x="108" y="0" type="move" name="haln"/>
    </contour>
  </outline>
</glyph>
<glyph name="bn_rikaar" format="1">
  <advance width="0"/>
  <unicode hex="09C3"/>
  <outline>
    <contour>
      <point x="82" y="-251" type="curve"/>
      <point x="-96" y="-123" type="line"/>
      <point x="-88" y="-183" type="line"/>
      <point x="62" y="-25" type="line"/>
      <point x="43" y="18" type="line"/>
      <point x="-43" y="22" type="line"/>
      <point x="-43" y="-7" type="line"/>
      <point x="-171" y="-143" type="line"/>
      <point x="-171" y="-167" type="line"/>
      <point x="30" y="-322" type="line"/>
      <point x="52" y="-301"/>
      <point x="71" y="-275"/>
    </contour>
    <contour>
      <point x="0" y="-20" type="move" name="_blwm"/>
    </contour>
  </outline>
</glyph>
<glyph name="bn_okaar" format="1">
  <advance width="1274"/>
  <unicode hex="09CB"/>
  <outline>
    <contour>
      <point x="452" y="110"/>
      <point x="468" y="127"/>
      <point x="468" y="155" type="curve" smooth="yes"/>
      <point x="468" y="181"/>
      <point x="452" y="197"/>
      <point x="428" y="197" type="curve" smooth="yes"/>
      <point x="402" y="197"/>
      <point x="384" y="180"/>
      <point x="384" y="155" type="curve" smooth="yes"/>
      <point x="384" y="128"/>
      <point x="402" y="110"/>
      <point x="428" y="110" type="curve" smooth="yes"/>
    </contour>
    <contour>
      <point x="552" y="10"/>
      <point x="569" y="27"/>
      <point x="569" y="52" type="curve" smooth="yes"/>
      <point x="569" y="78"/>
      <point x="552" y="95"/>
      <point x="527" y="95" type="curve" smooth="yes"/>
      <point x="502" y="95"/>
      <point x="485" y="78"/>
      <point x="485" y="52" type="curve" smooth="yes"/>
      <point x="485" y="27"/>
      <point x="502" y="10"/>
      <point x="527" y="10" type="curve" smooth="yes"/>
    </contour>
    <contour>
      <point x="416" y="247"/>
      <point x="432" y="264"/>
      <point x="432" y="291" type="curve" smooth="yes"/>
      <point x="432" y="318"/>
      <point x="416" y="334"/>
      <point x="390" y="334" type="curve" smooth="yes"/>
      <point x="364" y="334"/>
      <point x="347" y="316"/>
      <point x="347" y="291" type="curve" smooth="yes"/>
      <point x="347" y="265"/>
      <point x="364" y="247"/>
      <point x="390" y="247" type="curve" smooth="yes"/>
    </contour>
    <contour>
      <point x="693" y="-28"/>
      <point x="710" y="-11"/>
      <point x="710" y="14" type="curve" smooth="yes"/>
      <point x="710" y="41"/>
      <point x="693" y="58"/>
      <point x="667" y="58" type="curve" smooth="yes"/>
      <point x="641" y="58"/>
      <point x="625" y="41"/>
      <point x="625" y="14" type="curve" smooth="yes"/>
      <point x="625" y="-12"/>
      <point x="641" y="-28"/>
      <point x="667" y="-28" type="curve" smooth="yes"/>
    </contour>
    <contour>
      <point x="832" y="10"/>
      <point x="849" y="27"/>
      <point x="849" y="52" type="curve" smooth="yes"/>
      <point x="849" y="78"/>
      <point x="832" y="95"/>
      <point x="806" y="95" type="curve" smooth="yes"/>
      <point x="780" y="95"/>
      <point x="764" y="78"/>
      <point x="764" y="52" type="curve" smooth="yes"/>
      <point x="764" y="27"/>
      <point x="780" y="10"/>
      <point x="806" y="10" type="curve" smooth="yes"/>
    </contour>
    <contour>
      <point x="552" y="487"/>
      <point x="569" y="503"/>
      <point x="569" y="528" type="curve" smooth="yes"/>
      <point x="569" y="554"/>
      <point x="552" y="572"/>
      <point x="527" y="572" type="curve" smooth="yes"/>
      <point x="502" y="572"/>
      <point x="485" y="554"/>
      <point x="485" y="528" type="curve" smooth="yes"/>
      <point x="485" y="503"/>
      <point x="502" y="487"/>
      <point x="527" y="487" type="curve" smooth="yes"/>
    </contour>
    <contour>
      <point x="934" y="110"/>
      <point x="950" y="127"/>
      <point x="950" y="155" type="curve" smooth="yes"/>
      <point x="950" y="181"/>
      <point x="934" y="197"/>
      <point x="909" y="197" type="curve" smooth="yes"/>
      <point x="884" y="197"/>
      <point x="865" y="179"/>
      <point x="865" y="155" type="curve" smooth="yes"/>
      <point x="865" y="128"/>
      <point x="884" y="110"/>
      <point x="909" y="110" type="curve" smooth="yes"/>
    </contour>
    <contour>
      <point x="694" y="524"/>
      <point x="710" y="540"/>
      <point x="710" y="567" type="curve" smooth="yes"/>
      <point x="710" y="594"/>
      <point x="693" y="611"/>
      <point x="667" y="611" type="curve" smooth="yes"/>
      <point x="641" y="611"/>
      <point x="625" y="594"/>
      <point x="625" y="567" type="curve" smooth="yes"/>
      <point x="625" y="540"/>
      <point x="641" y="524"/>
      <point x="667" y="524" type="curve" smooth="yes"/>
    </contour>
    <contour>
      <point x="972" y="247"/>
      <point x="988" y="264"/>
      <point x="988" y="291" type="curve" smooth="yes"/>
      <point x="988" y="318"/>
      <point x="972" y="334"/>
      <point x="946" y="334" type="curve" smooth="yes"/>
      <point x="921" y="334"/>
      <point x="903" y="316"/>
      <point x="903" y="291" type="curve" smooth="yes"/>
      <point x="903" y="266"/>
      <point x="921" y="247"/>
      <point x="946" y="247" type="curve" smooth="yes"/>
    </contour>
    <contour>
      <point x="934" y="384"/>
      <point x="950" y="401"/>
      <point x="950" y="427" type="curve" smooth="yes"/>
      <point x="950" y="454"/>
      <point x="934" y="470"/>
      <point x="909" y="470" type="curve" smooth="yes"/>
      <point x="884" y="470"/>
      <point x="865" y="452"/>
      <point x="865" y="427" type="curve" smooth="yes"/>
      <point x="865" y="403"/>
      <point x="884" y="384"/>
      <point x="909" y="384" type="curve" smooth="yes"/>
    </contour>
    <contour>
      <point x="832" y="487"/>
      <point x="849" y="503"/>
      <point x="849" y="528" type="curve" smooth="yes"/>
      <point x="849" y="554"/>
      <point x="832" y="572"/>
      <point x="806" y="572" type="curve" smooth="yes"/>
      <point x="780" y="572"/>
      <point x="764" y="554"/>
      <point x="764" y="528" type="curve" smooth="yes"/>
      <point x="764" y="503"/>
      <point x="780" y="487"/>
      <point x="806" y="487" type="curve" smooth="yes"/>
    </contour>
    <contour>
      <point x="451" y="384"/>
      <point x="468" y="402"/>
      <point x="468" y="426" type="curve" smooth="yes"/>
      <point x="468" y="454"/>
      <point x="453" y="470"/>
      <point x="428" y="470" type="curve" smooth="yes"/>
      <point x="402" y="470"/>
      <point x="384" y="453"/>
      <point x="384" y="427" type="curve" smooth="yes"/>
      <point x="384" y="403"/>
      <point x="402" y="384"/>
      <point x="428" y="384" type="curve" smooth="yes"/>
    </contour>
    <component base="bn_ekaar"/>
    <component base="bn_aakaar" xOffset="1008"/>
  </outline>
</glyph>
<glyph name="bn_halanth" format="1">
  <advance width="0"/>
  <unicode hex="09CD"/>
  <outline>
    <contour>
      <point x="270" y="-304"/>
      <point x="288" y="-278"/>
      <point x="299" y="-254" type="curve"/>
      <point x="82" y="-89" type="line"/>
      <point x="58" y="-105"/>
      <point x="39" y="-129"/>
      <point x="26" y="-155" type="curve"/>
      <point x="248" y="-324" type="line"/>
    </contour>
    <contour>
      <point x="0" y="-20" type="move" name="_haln"/>
    </contour>
  </outline>
</glyph>
<glyph name="bn_four" format="1">
  <advance width="551"/>
  <unicode hex="09EA"/>
  <outline>
    <contour>
      <point x="425" y="-30"/>
      <point x="496" y="66"/>
      <point x="496" y="154" type="curve" smooth="yes"/>
      <point x="496" y="237"/>
      <point x="431" y="299"/>
      <point x="337" y="305" type="curve"/>
      <point x="319" y="262" type="line"/>
      <point x="368" y="262"/>
      <point x="399" y="240"/>
      <point x="399" y="199" type="curve" smooth="yes"/>
      <point x="399" y="128"/>
      <point x="307" y="48"/>
      <point x="228" y="48" type="curve" smooth="yes"/>
      <point x="188" y="48"/>
      <point x="166" y="65"/>
      <point x="166" y="99" type="curve" smooth="yes"/>
      <point x="166" y="221"/>
      <point x="480" y="232"/>
      <point x="480" y="426" type="curve" smooth="yes"/>
      <point x="480" y="512"/>
      <point x="416" y="590"/>
      <point x="277" y="590" type="curve" smooth="yes"/>
      <point x="123" y="590"/>
      <point x="52" y="494"/>
      <point x="52" y="406" type="curve" smooth="yes"/>
      <point x="52" y="320"/>
      <point x="120" y="260"/>
      <point x="211" y="255" type="curve"/>
      <point x="232" y="297" type="line"/>
      <point x="181" y="297"/>
      <point x="149" y="320"/>
      <point x="149" y="362" type="curve" smooth="yes"/>
      <point x="149" y="431"/>
      <point x="241" y="511"/>
      <point x="319" y="511" type="curve" smooth="yes"/>
      <point x="360" y="511"/>
      <point x="382" y="493"/>
      <point x="382" y="461" type="curve" smooth="yes"/>
      <point x="382" y="337"/>
      <point x="68" y="320"/>
      <point x="68" y="132" type="curve" smooth="yes"/>
      <point x="68" y="47"/>
      <point x="132" y="-30"/>
      <point x="270" y="-30" type="curve" smooth="yes"/>
    </contour>
  </outline>
</glyph>
<glyph name="bn_eight" format="1">
  <advance width="550"/>
  <unicode hex="09EE"/>
  <outline>
    <contour>
      <point x="355" y="-30"/>
      <point x="456" y="117"/>
      <point x="456" y="211" type="curve" smooth="yes"/>
      <point x="456" y="253"/>
      <point x="434" y="291"/>
      <point x="405" y="316" type="curve"/>
      <point x="404" y="293" type="line"/>
      <point x="426" y="278"/>
      <point x="450" y="270"/>
      <point x="472" y="270" type="curve" smooth="yes"/>
      <point x="502" y="270"/>
      <point x="528" y="285"/>
      <point x="543" y="300" type="curve"/>
      <point x="540" y="339"/>
      <point x="533" y="377"/>
      <point x="521" y="414" type="curve"/>
      <point x="498" y="397"/>
      <point x="462" y="369"/>
      <point x="419" y="369" type="curve" smooth="yes"/>
      <point x="375" y="369"/>
      <point x="349" y="396"/>
      <point x="300" y="396" type="curve"/>
      <point x="269" y="396"/>
      <point x="238" y="385"/>
      <point x="219" y="375" type="curve"/>
      <point x="220" y="338"/>
      <point x="226" y="302"/>
      <point x="236" y="265" type="curve"/>
      <point x="261" y="286"/>
      <point x="291" y="303"/>
      <point x="317" y="303" type="curve" smooth="yes"/>
      <point x="337" y="303"/>
      <point x="356" y="292"/>
      <point x="356" y="256" type="curve" smooth="yes"/>
      <point x="356" y="181"/>
      <point x="285" y="79"/>
      <point x="211" y="79" type="curve" smooth="yes"/>
      <point x="177" y="79"/>
      <point x="162" y="102"/>
      <point x="162" y="140" type="curve" smooth="yes"/>
      <point x="162" y="197"/>
      <point x="202" y="359"/>
      <point x="202" y="470" type="curve" smooth="yes"/>
      <point x="202" y="541"/>
      <point x="183" y="573"/>
      <point x="104" y="593" type="curve"/>
      <point x="66" y="572"/>
      <point x="33" y="546"/>
      <point x="4" y="518" type="curve"/>
      <point x="79" y="488"/>
      <point x="81" y="469"/>
      <point x="81" y="378" type="curve" smooth="yes"/>
      <point x="80" y="264"/>
      <point x="71" y="181"/>
      <point x="71" y="145" type="curve" smooth="yes"/>
      <point x="71" y="20"/>
      <point x="156" y="-30"/>
      <point x="230" y="-30" type="curve" smooth="yes"/>
    </contour>
  </outline>
</glyph>
<glyph name="bn_rupeesign" format="1">
  <advance width="503"/>
  <unicode hex="09F3"/>
  <outline>
    <contour>
      <point x="348" y="-30"/>
      <point x="473" y="112"/>
      <point x="473" y="247" type="curve" smooth="yes"/>
      <point x="473" y="340"/>
      <point x="409" y="392"/>
      <point x="337" y="392" type="curve" smooth="yes"/>
      <point x="304" y="392"/>
      <point x="281" y="383"/>
      <point x="265" y="372" type="curve"/>
      <point x="249" y="350"/>
      <point x="237" y="310"/>
      <point x="237" y="275" type="curve" smooth="yes"/>
      <point x="237" y="266"/>
      <point x="239" y="256"/>
      <point x="242" y="250" type="curve"/>
      <point x="254" y="264"/>
      <point x="276" y="278"/>
      <point x="301" y="278" type="curve" smooth="yes"/>
      <point x="325" y="278"/>
      <point x="342" y="259"/>
      <point x="342" y="225" type="curve" smooth="yes"/>
      <point x="342" y="156"/>
      <point x="272" y="50"/>
      <point x="220" y="50" type="curve" smooth="yes"/>
      <point x="195" y="51"/>
      <point x="180" y="69"/>
      <point x="180" y="110" type="curve" smooth="yes"/>
      <point x="180" y="325"/>
      <point x="224" y="571"/>
      <point x="260" y="738" type="curve"/>
      <point x="116" y="722" type="line"/>
      <point x="92" y="559"/>
      <point x="67" y="360"/>
      <point x="67" y="147" type="curve" smooth="yes"/>
      <point x="67" y="39"/>
      <point x="141" y="-30"/>
      <point x="232" y="-30" type="curve" smooth="yes"/>
    </contour>
    <contour>
      <point x="49" y="431"/>
      <point x="138" y="445"/>
      <point x="246" y="445" type="curve" smooth="yes"/>
      <point x="338" y="445"/>
      <point x="436" y="432"/>
      <point x="503" y="418" type="curve"/>
      <point x="508" y="431"/>
      <point x="511" y="452"/>
      <point x="511" y="472" type="curve" smooth="yes"/>
      <point x="511" y="492"/>
      <point x="509" y="510"/>
      <point x="503" y="522" type="curve"/>
      <point x="437" y="540"/>
      <point x="336" y="553"/>
      <point x="244" y="553" type="curve" smooth="yes"/>
      <point x="136" y="553"/>
      <point x="46" y="539"/>
      <point x="0" y="522" type="curve"/>
      <point x="-4" y="509"/>
      <point x="-6" y="489"/>
      <point x="-6" y="470" type="curve" smooth="yes"/>
      <point x="-6" y="450"/>
      <point x="-3" y="432"/>
      <point x="0" y="418" type="curve"/>
    </contour>
  </outline>
</glyph>
<glyph name="bn_currencyless" format="1">
  <advance width="515"/>
  <unicode hex="09F8"/>
  <outline>
    <contour>
      <point x="386" y="-28"/>
      <point x="436" y="-17"/>
      <point x="459" y="-3" type="curve"/>
      <point x="447" y="57"/>
      <point x="441" y="114"/>
      <point x="441" y="168" type="curve" smooth="yes"/>
      <point x="441" y="249"/>
      <point x="454" y="323"/>
      <point x="475" y="393" type="curve"/>
      <point x="442" y="437"/>
      <point x="409" y="466"/>
      <point x="363" y="485" type="curve"/>
      <point x="261" y="423"/>
      <point x="160" y="322"/>
      <point x="64" y="170" type="curve"/>
      <point x="169" y="217" type="line"/>
      <point x="186" y="309"/>
      <point x="195" y="416"/>
      <point x="195" y="506" type="curve" smooth="yes"/>
      <point x="195" y="556"/>
      <point x="194" y="604"/>
      <point x="191" y="650" type="curve"/>
      <point x="103" y="639" type="line"/>
      <point x="105" y="488"/>
      <point x="86" y="306"/>
      <point x="38" y="153" type="curve"/>
      <point x="65" y="132"/>
      <point x="121" y="114"/>
      <point x="163" y="109" type="curve"/>
      <point x="220" y="206"/>
      <point x="323" y="315"/>
      <point x="423" y="376" type="curve"/>
      <point x="382" y="381" type="line"/>
      <point x="357" y="309"/>
      <point x="342" y="218"/>
      <point x="342" y="127" type="curve" smooth="yes"/>
      <point x="342" y="74"/>
      <point x="347" y="20"/>
      <point x="358" y="-29" type="curve"/>
    </contour>
  </outline>
</glyph>
<glyph name="quoteright" format="1">
  <advance width="207"/>
  <unicode hex="2019"/>
  <outline>
    <contour>
      <point x="188" y="727" type="curve"/>
      <point x="146" y="737"/>
      <point x="96" y="739"/>
      <point x="56" y="736" type="curve"/>
      <point x="60" y="671"/>
      <point x="53" y="594"/>
      <point x="35" y="497" type="curve"/>
      <point x="61" y="489"/>
      <point x="98" y="484"/>
      <point x="135" y="483" type="curve"/>
      <point x="174" y="589"/>
      <point x="186" y="646"/>
    </contour>
  </outline>
</glyph>
<glyph name="bullet" format="1">
  <advance width="296"/>
  <unicode hex="2022"/>
  <outline>
    <contour>
      <point x="261" y="242"/>
      <point x="266" y="303"/>
      <point x="268" y="374" type="curve"/>
      <point x="170" y="388"/>
      <point x="92" y="379"/>
      <point x="35" y="366" type="curve"/>
      <point x="35" y="295"/>
      <point x="38" y="250"/>
      <point x="44" y="173" type="curve"/>
      <point x="110" y="164"/>
      <point x="169" y="164"/>
      <point x="250" y="172" type="curve"/>
    </contour>
  </outline>
</glyph>
